<svg xmlns="http://www.w3.org/2000/svg" xmlns:xlink="http://www.w3.org/1999/xlink" width="500" zoomAndPan="magnify" viewBox="0 0 375 374.999991" height="500" preserveAspectRatio="xMidYMid meet" version="1.0"><defs><clipPath id="8f8f42477b"><path d="M 139.140625 133 L 186 133 L 186 169 L 139.140625 169 Z M 139.140625 133 " clip-rule="nonzero"/></clipPath><clipPath id="ad6737a7ca"><path d="M 189 124 L 235.890625 124 L 235.890625 158 L 189 158 Z M 189 124 " clip-rule="nonzero"/></clipPath></defs><g clip-path="url(#8f8f42477b)"><path fill="#82001a" d="M 154.394531 167.632812 C 150.539062 168.460938 147.398438 168.214844 145.007812 166.890625 C 140.90625 164.613281 139.175781 159.167969 139.867188 150.703125 C 140.546875 142.390625 143.421875 137.011719 148.414062 134.722656 C 153.609375 132.339844 160.90625 133.28125 170.109375 137.527344 C 176.925781 140.671875 182.304688 144.5625 182.359375 144.601562 L 182.546875 144.738281 L 182.476562 144.960938 C 180.726562 150.609375 183.78125 152.015625 183.914062 152.074219 L 185.847656 152.921875 L 183.75 152.695312 C 182.652344 152.574219 180.882812 153.296875 178.632812 154.78125 C 176.898438 155.929688 175.492188 157.128906 175.476562 157.140625 L 175.460938 157.15625 C 175.410156 157.195312 170.28125 160.992188 164.023438 164.074219 C 160.441406 165.835938 157.226562 167.023438 154.398438 167.636719 Z M 151.289062 134.453125 C 150.378906 134.648438 149.511719 134.929688 148.679688 135.3125 C 143.917969 137.496094 141.167969 142.691406 140.511719 150.753906 C 139.84375 158.945312 141.460938 164.183594 145.320312 166.324219 C 154.722656 171.535156 174.550781 157.019531 175.0625 156.640625 C 175.367188 156.382812 179.777344 152.648438 182.824219 152.097656 C 181.859375 151.222656 180.558594 149.183594 181.789062 144.992188 C 179.820312 143.605469 162.832031 131.972656 151.289062 134.453125 Z M 151.289062 134.453125 " fill-opacity="1" fill-rule="nonzero"/></g><g clip-path="url(#ad6737a7ca)"><path fill="#82001a" d="M 226.792969 157.074219 C 223.382812 157.804688 218.96875 157.703125 213.585938 156.753906 C 206.714844 155.542969 200.730469 153.328125 200.671875 153.308594 L 200.648438 153.300781 C 200.582031 153.269531 193.980469 150.300781 191.460938 151.339844 L 189.441406 152.175781 L 191.136719 150.789062 C 191.136719 150.789062 191.804688 150.21875 192.066406 149.066406 C 192.414062 147.519531 191.878906 145.613281 190.523438 143.558594 L 190.394531 143.363281 L 190.539062 143.179688 C 190.578125 143.128906 194.65625 137.890625 200.320312 132.964844 C 207.96875 126.320312 214.714844 123.375 220.371094 124.210938 C 225.804688 125.015625 230.066406 129.375 233.039062 137.167969 C 236.070312 145.105469 235.933594 150.816406 232.628906 154.144531 C 231.222656 155.5625 229.269531 156.539062 226.792969 157.074219 Z M 200.910156 152.707031 C 201.503906 152.925781 224.601562 161.324219 232.171875 153.691406 C 235.28125 150.554688 235.371094 145.074219 232.4375 137.398438 C 229.554688 129.839844 225.464844 125.621094 220.277344 124.851562 C 213.480469 123.847656 205.910156 128.972656 200.753906 133.453125 C 195.726562 137.820312 191.957031 142.445312 191.191406 143.402344 C 193.546875 147.082031 192.871094 149.402344 192.1875 150.511719 C 195.261719 150.183594 200.542969 152.539062 200.910156 152.703125 Z M 200.910156 152.707031 " fill-opacity="1" fill-rule="nonzero"/></g><path fill="#82001a" d="M 221.398438 148.914062 C 219.101562 149.40625 216.292969 149.53125 212.976562 149.28125 C 207.96875 148.90625 203.601562 147.773438 203.558594 147.761719 L 203.535156 147.753906 C 203.480469 147.734375 198.046875 145.902344 192.613281 147.894531 L 192.390625 147.285156 C 197.96875 145.242188 203.363281 147.011719 203.734375 147.136719 C 204.257812 147.273438 220.953125 151.492188 226.410156 145.707031 C 228.34375 143.65625 228.644531 140.53125 227.304688 136.414062 C 226.695312 134.542969 225.558594 133.371094 223.824219 132.832031 C 214.617188 129.953125 192.667969 146.511719 192.449219 146.679688 L 192.058594 146.164062 C 192.113281 146.121094 197.699219 141.890625 204.375 138.082031 C 213.390625 132.933594 220 130.957031 224.015625 132.214844 C 225.9375 132.816406 227.25 134.160156 227.921875 136.214844 C 229.34375 140.574219 228.992188 143.917969 226.882812 146.152344 C 225.636719 147.476562 223.800781 148.398438 221.398438 148.917969 Z M 221.398438 148.914062 " fill-opacity="1" fill-rule="nonzero"/><path fill="#82001a" d="M 157.140625 158.710938 C 153.347656 159.527344 150.347656 159.308594 148.191406 158.054688 C 145.535156 156.511719 144.25 153.40625 144.371094 148.824219 C 144.429688 146.664062 145.308594 145 146.976562 143.878906 C 150.472656 141.53125 157.371094 141.546875 167.480469 143.921875 C 174.960938 145.679688 181.519531 148.148438 181.582031 148.175781 L 181.355469 148.78125 C 181.097656 148.679688 155.347656 139.039062 147.335938 144.417969 C 145.828125 145.429688 145.070312 146.878906 145.015625 148.84375 C 144.898438 153.171875 146.078125 156.082031 148.515625 157.496094 C 155.390625 161.496094 170.203125 152.703125 170.660156 152.425781 C 170.980469 152.199219 175.652344 148.972656 181.578125 149.34375 L 181.539062 149.988281 C 175.761719 149.625 171.074219 152.925781 171.027344 152.957031 L 171.003906 152.972656 C 170.964844 152.996094 167.105469 155.324219 162.40625 157.109375 C 160.507812 157.828125 158.75 158.363281 157.136719 158.710938 Z M 157.140625 158.710938 " fill-opacity="1" fill-rule="nonzero"/><path fill="#82001a" d="M 190.707031 143.691406 C 185.671875 142.277344 182.414062 145.074219 182.382812 145.105469 L 181.953125 144.617188 C 182.097656 144.492188 185.511719 141.558594 190.878906 143.070312 Z M 190.707031 143.691406 " fill-opacity="1" fill-rule="nonzero"/><path fill="#82001a" d="M 188.132812 152.730469 C 185.699219 153.253906 183.804688 152.714844 183.691406 152.679688 L 183.875 152.058594 C 183.910156 152.070312 187.585938 153.113281 191.164062 150.769531 L 191.515625 151.308594 C 190.351562 152.070312 189.191406 152.503906 188.132812 152.726562 Z M 188.132812 152.730469 " fill-opacity="1" fill-rule="nonzero"/><path fill="#82001a" d="M 232.660156 195.183594 L 232.28125 194.972656 C 232.25 194.957031 229.167969 193.265625 227.292969 193.667969 C 225.421875 194.070312 222.941406 195.628906 222.914062 195.644531 L 222.628906 195.828125 L 222.457031 195.53125 C 222.226562 195.121094 216.746094 185.386719 216.550781 181.183594 C 216.472656 179.589844 214.675781 177.707031 211.347656 175.742188 C 208.78125 174.226562 206.210938 173.203125 206.183594 173.195312 C 206.101562 173.160156 199.019531 169.972656 196.597656 162 C 194.261719 154.308594 190.511719 151.738281 190.476562 151.710938 L 190.832031 151.171875 C 190.875 151.199219 191.855469 151.859375 193.136719 153.507812 C 194.304688 155.011719 195.960938 157.675781 197.21875 161.8125 C 199.550781 169.492188 206.363281 172.566406 206.433594 172.597656 C 206.855469 172.765625 216.992188 176.816406 217.195312 181.152344 C 217.363281 184.808594 221.929688 193.238281 222.859375 194.921875 C 223.578125 194.484375 225.496094 193.394531 227.160156 193.035156 C 228.839844 192.675781 231.203125 193.710938 232.164062 194.1875 C 232.207031 193.308594 232.113281 191.125 230.636719 187.824219 C 229.84375 186.050781 229.144531 185.203125 228.464844 184.378906 C 227.402344 183.097656 226.402344 181.886719 225.269531 177.617188 C 224.285156 173.90625 220.109375 171.691406 215.273438 169.128906 C 211.402344 167.078125 207.019531 164.753906 203.871094 161.277344 C 198.296875 155.113281 197.078125 154.3125 194.414062 152.5625 C 193.785156 152.152344 193.074219 151.683594 192.210938 151.085938 L 192.582031 150.554688 C 193.4375 151.148438 194.144531 151.613281 194.769531 152.023438 C 197.480469 153.804688 198.722656 154.617188 204.351562 160.84375 C 207.421875 164.238281 211.753906 166.535156 215.574219 168.558594 C 220.546875 171.191406 224.839844 173.46875 225.898438 177.453125 C 226.996094 181.585938 227.953125 182.746094 228.964844 183.96875 C 229.671875 184.824219 230.402344 185.710938 231.230469 187.5625 C 233.28125 192.148438 232.78125 194.65625 232.757812 194.761719 L 232.667969 195.191406 Z M 232.660156 195.183594 " fill-opacity="1" fill-rule="nonzero"/><path fill="#82001a" d="M 152.394531 196.363281 L 152.109375 196.171875 C 152.085938 196.15625 149.699219 194.554688 147.773438 194.097656 C 145.910156 193.65625 142.792969 195.28125 142.761719 195.296875 L 142.375 195.496094 L 142.292969 195.070312 C 142.273438 194.964844 141.828125 192.445312 143.980469 187.902344 C 144.847656 186.070312 145.597656 185.203125 146.324219 184.363281 C 147.363281 183.15625 148.347656 182.023438 149.535156 177.914062 C 150.679688 173.953125 155.019531 171.773438 160.046875 169.25 C 163.914062 167.308594 168.296875 165.113281 171.4375 161.785156 C 177.113281 155.78125 178.15625 155.136719 180.671875 153.582031 C 181.3125 153.183594 182.039062 152.734375 182.96875 152.121094 L 183.324219 152.660156 C 182.386719 153.28125 181.65625 153.734375 181.011719 154.132812 C 178.546875 155.65625 177.527344 156.285156 171.910156 162.226562 C 168.6875 165.636719 164.253906 167.863281 160.339844 169.828125 C 155.445312 172.285156 151.222656 174.402344 150.152344 178.09375 C 148.929688 182.335938 147.898438 183.523438 146.8125 184.78125 C 146.117188 185.589844 145.394531 186.425781 144.5625 188.179688 C 143.015625 191.445312 142.871094 193.628906 142.894531 194.507812 C 143.867188 194.050781 146.253906 193.066406 147.925781 193.464844 C 149.578125 193.859375 151.472656 194.992188 152.183594 195.441406 C 153.148438 193.78125 157.898438 185.457031 158.148438 181.800781 C 158.445312 177.472656 168.671875 173.644531 169.109375 173.484375 C 169.167969 173.460938 176.046875 170.535156 178.546875 162.910156 C 181.136719 155.023438 185.230469 152.429688 185.40625 152.324219 L 185.742188 152.871094 C 185.703125 152.898438 181.667969 155.46875 179.160156 163.109375 C 176.5625 171.023438 169.414062 174.054688 169.34375 174.085938 C 169.304688 174.101562 166.703125 175.066406 164.105469 176.527344 C 160.738281 178.417969 158.902344 180.257812 158.792969 181.847656 C 158.503906 186.046875 152.8125 195.65625 152.570312 196.066406 L 152.394531 196.359375 Z M 152.394531 196.363281 " fill-opacity="1" fill-rule="nonzero"/><path fill="#82001a" d="M 167.09375 206.179688 L 166.679688 205.679688 C 179.714844 194.871094 185.199219 152.984375 185.25 152.558594 L 185.894531 152.640625 C 185.882812 152.746094 184.507812 163.375 181.523438 175.214844 C 177.511719 191.148438 172.65625 201.566406 167.09375 206.179688 Z M 167.09375 206.179688 " fill-opacity="1" fill-rule="nonzero"/><path fill="#82001a" d="M 172.246094 209.175781 L 171.671875 208.878906 C 185.132812 182.5 187.660156 152.722656 187.683594 152.425781 L 188.328125 152.476562 C 188.304688 152.777344 185.765625 182.683594 172.246094 209.175781 Z M 172.246094 209.175781 " fill-opacity="1" fill-rule="nonzero"/><path fill="#82001a" d="M 226.445312 223.539062 C 226.445312 223.539062 225.386719 220.675781 221.226562 216.976562 C 217.066406 213.273438 212.289062 215.121094 212.289062 215.121094 C 207.128906 217.773438 202.417969 216.359375 202.417969 216.359375 C 202.417969 216.359375 199.195312 215.730469 195.554688 217.835938 C 191.910156 219.941406 190.019531 224.316406 189.980469 230.277344 C 189.941406 236.238281 193.753906 242.695312 193.753906 242.695312 C 193.753906 242.695312 197.347656 249.320312 203.320312 250.457031 C 209.296875 251.59375 217.628906 248.785156 219.480469 248.164062 C 221.332031 247.546875 227.039062 244.367188 228.246094 237.035156 C 229.492188 229.492188 226.445312 223.539062 226.445312 223.539062 Z M 207.976562 245.125 C 207.976562 245.125 206.941406 246.449219 203.207031 245.488281 C 199.472656 244.527344 197.722656 239.632812 197.722656 239.632812 C 197.722656 239.632812 197.351562 238.882812 198.339844 238.398438 C 199.136719 238.007812 200.597656 239.675781 200.597656 239.675781 C 200.597656 239.675781 202.316406 242.738281 204.855469 243.097656 C 209.175781 243.714844 207.976562 245.125 207.976562 245.125 Z M 205.175781 222.027344 C 200.5 223.261719 199.46875 220.082031 201.621094 219.839844 C 201.621094 219.839844 204.613281 219.414062 205.636719 220.078125 C 205.636719 220.078125 207.886719 221.3125 205.175781 222.027344 Z M 210.636719 220.765625 C 207.941406 221.566406 207.746094 219.625 209.019531 219.351562 C 210.292969 219.078125 211.832031 218.101562 213.46875 217.289062 C 215.8125 216.125 216.128906 217.601562 216.128906 217.601562 C 216.65625 219.027344 213.332031 219.964844 210.636719 220.765625 Z M 224.957031 232.011719 C 222.328125 234.125 221.421875 229.910156 221.433594 228.945312 C 221.433594 228.945312 221.40625 227.800781 221.34375 227.5 C 221.253906 227.078125 220.769531 225.859375 222.546875 225.917969 C 223.644531 225.957031 224.367188 226.1875 225.285156 228.414062 C 226.207031 230.640625 224.957031 232.011719 224.957031 232.011719 Z M 224.957031 232.011719 " fill-opacity="1" fill-rule="nonzero"/><path fill="#82001a" d="M 178.195312 210.332031 C 178.195312 210.332031 175.378906 208.511719 173.480469 208.917969 C 171.152344 209.417969 169.589844 208.207031 169.589844 208.207031 C 169.589844 208.207031 166.542969 206.289062 165.03125 203.460938 C 163.554688 200.691406 157.820312 198.621094 154.296875 200.699219 C 154.296875 200.699219 149.679688 202.796875 146.25 208.382812 C 142.824219 213.96875 144.199219 221.390625 144.199219 221.390625 C 144.199219 221.390625 145.5625 230.796875 150.5625 234.570312 C 155.5625 238.34375 161.117188 239.574219 168.085938 239.175781 C 175.054688 238.78125 181.878906 228.492188 182.761719 222.351562 C 183.585938 216.609375 182.707031 212.886719 178.191406 210.328125 Z M 151.386719 215.65625 C 151.386719 215.65625 150.066406 217.921875 151.851562 221.84375 C 153.617188 225.730469 150.675781 224.84375 150.675781 224.84375 C 146.746094 221.941406 148.753906 214.898438 148.753906 214.898438 C 148.753906 214.898438 149.160156 213.707031 149.539062 213.40625 C 150.015625 213.023438 151.179688 212.832031 151.570312 213.628906 C 151.960938 214.429688 151.386719 215.652344 151.386719 215.652344 Z M 163.339844 211.980469 C 161.292969 210.660156 158.683594 205.707031 158.683594 205.707031 C 158.15625 204.28125 159.210938 204.054688 159.628906 203.960938 C 160.050781 203.867188 160.730469 203.945312 161.292969 204.601562 C 161.648438 205.015625 163.574219 207.960938 164.480469 209.089844 C 165.386719 210.21875 166.832031 210.789062 166.832031 210.789062 C 166.832031 210.789062 167.855469 211.449219 170.097656 211.628906 C 172.339844 211.808594 173.636719 213.730469 171.484375 213.976562 C 169.328125 214.21875 165.386719 213.304688 163.339844 211.980469 Z M 175.808594 223.847656 C 174.441406 225.6875 173.601562 224.855469 173.539062 224.558594 C 173.449219 224.132812 173.734375 223.414062 173.734375 223.414062 C 173.734375 223.414062 174.015625 222.691406 173.792969 221.636719 C 173.566406 220.582031 173.878906 219.1875 173.878906 219.1875 C 173.878906 219.1875 174.285156 217.785156 175.472656 218.1875 C 176.386719 218.5 176.589844 219.269531 176.589844 219.269531 C 176.589844 219.269531 177.175781 222.007812 175.808594 223.847656 Z M 175.808594 223.847656 " fill-opacity="1" fill-rule="nonzero"/><path fill="#82001a" d="M 209.964844 216.105469 L 209.320312 216.152344 C 207.773438 195.246094 202.660156 178.84375 198.640625 168.765625 C 194.285156 157.84375 190.242188 151.789062 190.199219 151.726562 L 190.738281 151.367188 C 190.777344 151.425781 194.851562 157.523438 199.230469 168.5 C 203.273438 178.625 208.414062 195.101562 209.964844 216.105469 Z M 209.964844 216.105469 " fill-opacity="1" fill-rule="nonzero"/><path fill="#82001a" d="M 206.90625 216.753906 L 206.261719 216.808594 C 204.527344 195.816406 199.582031 179.484375 195.742188 169.480469 C 191.578125 158.636719 187.773438 152.683594 187.734375 152.625 L 188.277344 152.273438 C 188.316406 152.332031 192.148438 158.328125 196.335938 169.222656 C 200.195312 179.269531 205.164062 195.671875 206.90625 216.75 Z M 206.90625 216.753906 " fill-opacity="1" fill-rule="nonzero"/></svg>