<svg xmlns="http://www.w3.org/2000/svg" xmlns:xlink="http://www.w3.org/1999/xlink" width="500" zoomAndPan="magnify" viewBox="0 0 375 374.999991" height="500" preserveAspectRatio="xMidYMid meet" version="1.0"><defs><g/><clipPath id="ca6b1044ab"><path d="M 0 0 L 375 0 L 375 375 L 0 375 Z M 0 0 " clip-rule="nonzero"/></clipPath><clipPath id="4c1a905989"><path d="M 187.5 0 C 83.945312 0 0 83.945312 0 187.5 C 0 291.054688 83.945312 375 187.5 375 C 291.054688 375 375 291.054688 375 187.5 C 375 83.945312 291.054688 0 187.5 0 Z M 187.5 0 " clip-rule="nonzero"/></clipPath><clipPath id="123b070606"><path d="M 0 0 L 375 0 L 375 375 L 0 375 Z M 0 0 " clip-rule="nonzero"/></clipPath><clipPath id="5b2c3c8931"><path d="M 187.5 0 C 83.945312 0 0 83.945312 0 187.5 C 0 291.054688 83.945312 375 187.5 375 C 291.054688 375 375 291.054688 375 187.5 C 375 83.945312 291.054688 0 187.5 0 Z M 187.5 0 " clip-rule="nonzero"/></clipPath><clipPath id="f138a99c88"><rect x="0" width="375" y="0" height="375"/></clipPath><clipPath id="a667f36c79"><path d="M 0 0 L 374.4375 0 L 374.4375 374.4375 L 0 374.4375 Z M 0 0 " clip-rule="nonzero"/></clipPath><clipPath id="27e0a0b0d2"><path d="M 187.5 0 C 83.945312 0 0 83.945312 0 187.5 C 0 291.050781 83.945312 375 187.5 375 C 291.050781 375 375 291.050781 375 187.5 C 375 83.945312 291.050781 0 187.5 0 Z M 187.5 0 " clip-rule="nonzero"/></clipPath><clipPath id="ef2b51a0bd"><path d="M 54.476562 54.476562 L 320.523438 54.476562 L 320.523438 320.523438 L 54.476562 320.523438 Z M 54.476562 54.476562 " clip-rule="nonzero"/></clipPath><clipPath id="160b810e06"><path d="M 187.5 54.476562 C 114.03125 54.476562 54.476562 114.03125 54.476562 187.5 C 54.476562 260.96875 114.03125 320.523438 187.5 320.523438 C 260.96875 320.523438 320.523438 260.96875 320.523438 187.5 C 320.523438 114.03125 260.96875 54.476562 187.5 54.476562 Z M 187.5 54.476562 " clip-rule="nonzero"/></clipPath><clipPath id="5d930aa7fb"><path d="M 0.476562 0.476562 L 266.523438 0.476562 L 266.523438 266.523438 L 0.476562 266.523438 Z M 0.476562 0.476562 " clip-rule="nonzero"/></clipPath><clipPath id="a542a7121a"><path d="M 133.5 0.476562 C 60.03125 0.476562 0.476562 60.03125 0.476562 133.5 C 0.476562 206.96875 60.03125 266.523438 133.5 266.523438 C 206.96875 266.523438 266.523438 206.96875 266.523438 133.5 C 266.523438 60.03125 206.96875 0.476562 133.5 0.476562 Z M 133.5 0.476562 " clip-rule="nonzero"/></clipPath><clipPath id="b564c73f65"><rect x="0" width="267" y="0" height="267"/></clipPath><clipPath id="ee4ca16fd2"><path d="M 54.476562 54.476562 L 320.28125 54.476562 L 320.28125 320.28125 L 54.476562 320.28125 Z M 54.476562 54.476562 " clip-rule="nonzero"/></clipPath><clipPath id="78e476a26c"><path d="M 187.496094 54.476562 C 114.03125 54.476562 54.476562 114.03125 54.476562 187.496094 C 54.476562 260.960938 114.03125 320.515625 187.496094 320.515625 C 260.960938 320.515625 320.515625 260.960938 320.515625 187.496094 C 320.515625 114.03125 260.960938 54.476562 187.496094 54.476562 Z M 187.496094 54.476562 " clip-rule="nonzero"/></clipPath><clipPath id="7d390ad874"><path d="M 290 180 L 355 180 L 355 304 L 290 304 Z M 290 180 " clip-rule="nonzero"/></clipPath><clipPath id="02c8d031a1"><path d="M 295.820312 177.527344 L 355.859375 180.164062 L 350.335938 306.011719 L 290.296875 303.375 Z M 295.820312 177.527344 " clip-rule="nonzero"/></clipPath><clipPath id="c630064db0"><path d="M 295.820312 177.527344 L 355.859375 180.164062 L 350.335938 306.011719 L 290.296875 303.375 Z M 295.820312 177.527344 " clip-rule="nonzero"/></clipPath><clipPath id="d0aacb6b04"><path d="M 295.820312 177.527344 L 355.859375 180.164062 L 350.335938 306.011719 L 290.296875 303.375 Z M 295.820312 177.527344 " clip-rule="nonzero"/></clipPath><clipPath id="984d1af2f4"><path d="M 18 177 L 85 177 L 85 307 L 18 307 Z M 18 177 " clip-rule="nonzero"/></clipPath><clipPath id="ff4019e081"><path d="M 18.164062 180.332031 L 78.1875 177.40625 L 84.324219 303.226562 L 24.296875 306.152344 Z M 18.164062 180.332031 " clip-rule="nonzero"/></clipPath><clipPath id="14a5a7b4f1"><path d="M 1 3 L 66.480469 3 L 66.480469 127 L 1 127 Z M 1 3 " clip-rule="nonzero"/></clipPath><clipPath id="3130d536fd"><path d="M 0.164062 3.332031 L 60.1875 0.40625 L 66.324219 126.226562 L 6.296875 129.152344 Z M 0.164062 3.332031 " clip-rule="nonzero"/></clipPath><clipPath id="3324c6cd5b"><path d="M 60.402344 0.394531 L 0.378906 3.324219 L 6.515625 129.140625 L 66.539062 126.214844 Z M 60.402344 0.394531 " clip-rule="nonzero"/></clipPath><clipPath id="e58fa14e33"><path d="M 60.402344 0.394531 L 0.378906 3.324219 L 6.515625 129.140625 L 66.539062 126.214844 Z M 60.402344 0.394531 " clip-rule="nonzero"/></clipPath><clipPath id="85ebed3955"><rect x="0" width="67" y="0" height="130"/></clipPath><clipPath id="cb1797be35"><rect x="0" width="375" y="0" height="375"/></clipPath></defs><g transform="matrix(1, 0, 0, 1, 0, 0)"><g clip-path="url(#cb1797be35)"><g clip-path="url(#ca6b1044ab)"><g clip-path="url(#4c1a905989)"><g transform="matrix(1, 0, 0, 1, 0, 0)"><g clip-path="url(#f138a99c88)"><g clip-path="url(#123b070606)"><g clip-path="url(#5b2c3c8931)"><rect x="-136.5" width="648" fill="#fcfbf9" y="-136.499997" height="647.999984" fill-opacity="1"/></g></g></g></g></g></g><g clip-path="url(#a667f36c79)"><g clip-path="url(#27e0a0b0d2)"><path stroke-linecap="butt" transform="matrix(1.155676, 0, 0, 1.155676, 0.0000045, -0.000000000000042633)" fill="none" stroke-linejoin="miter" d="M 162.242693 0.00000000000003689 C 72.637404 0.00000000000003689 -0.00000389382 72.637408 -0.00000389382 162.242697 C -0.00000389382 251.844607 72.637404 324.485395 162.242693 324.485395 C 251.844603 324.485395 324.485391 251.844607 324.485391 162.242697 C 324.485391 72.637408 251.844603 0.00000000000003689 162.242693 0.00000000000003689 Z M 162.242693 0.00000000000003689 " stroke="#000000" stroke-width="1.297942" stroke-opacity="1" stroke-miterlimit="4"/></g></g><g clip-path="url(#ef2b51a0bd)"><g clip-path="url(#160b810e06)"><g transform="matrix(1, 0, 0, 1, 54, 54)"><g clip-path="url(#b564c73f65)"><g clip-path="url(#5d930aa7fb)"><g clip-path="url(#a542a7121a)"><path fill="#f8dae2" d="M 0.476562 0.476562 L 266.523438 0.476562 L 266.523438 266.523438 L 0.476562 266.523438 Z M 0.476562 0.476562 " fill-opacity="1" fill-rule="nonzero"/></g></g></g></g></g></g><g clip-path="url(#ee4ca16fd2)"><g clip-path="url(#78e476a26c)"><path stroke-linecap="butt" transform="matrix(1.155676, 0, 0, 1.155676, 54.474779, 54.474774)" fill="none" stroke-linejoin="miter" d="M 115.102588 0.00154756 C 51.533876 0.00154756 0.00154367 51.53388 0.00154367 115.102592 C 0.00154367 178.671303 51.533876 230.203636 115.102588 230.203636 C 178.671299 230.203636 230.203632 178.671303 230.203632 115.102592 C 230.203632 51.53388 178.671299 0.00154756 115.102588 0.00154756 Z M 115.102588 0.00154756 " stroke="#000000" stroke-width="1.297942" stroke-opacity="1" stroke-miterlimit="4"/></g></g><g clip-path="url(#7d390ad874)"><g clip-path="url(#02c8d031a1)"><g clip-path="url(#c630064db0)"><g clip-path="url(#d0aacb6b04)"><path fill="#000000" d="M 319.285156 278.6875 C 319.878906 278.539062 320.40625 278.222656 320.90625 277.902344 C 321.636719 277.417969 322.367188 276.9375 323.074219 276.40625 C 324.535156 275.34375 325.976562 274.207031 327.183594 272.816406 C 327.542969 272.417969 327.925781 272.042969 328.308594 271.644531 C 329.152344 270.773438 329.878906 269.804688 330.558594 268.78125 C 331.054688 268.042969 331.382812 267.25 331.59375 266.378906 C 331.773438 265.582031 331.90625 264.804688 331.96875 263.972656 C 332.097656 262.144531 332.394531 260.371094 332.933594 258.609375 C 333.363281 257.183594 333.695312 255.730469 334.027344 254.300781 C 334.175781 253.695312 334.152344 253.109375 333.835938 252.53125 C 333.746094 252.355469 333.683594 252.15625 333.667969 251.960938 C 333.648438 251.765625 333.660156 251.542969 333.714844 251.375 C 333.773438 251.183594 333.878906 251.015625 334.007812 250.851562 C 334.265625 250.519531 334.429688 250.160156 334.519531 249.769531 C 334.8125 248.660156 334.960938 247.515625 334.886719 246.363281 C 334.878906 246.019531 334.894531 245.675781 334.882812 245.359375 C 334.878906 244.355469 334.898438 243.328125 335.066406 242.332031 C 335.132812 241.871094 335.15625 241.382812 335.175781 240.917969 C 335.195312 239.964844 335.257812 239.039062 335.398438 238.089844 C 335.464844 237.699219 335.507812 237.285156 335.523438 236.871094 C 335.542969 235.917969 335.777344 235 336.035156 234.105469 C 336.179688 233.644531 336.320312 233.210938 336.488281 232.753906 C 336.515625 232.632812 336.570312 232.488281 336.578125 232.367188 C 336.609375 231.632812 336.691406 230.878906 336.476562 230.160156 C 336.375 229.761719 336.292969 229.367188 336.164062 228.996094 C 335.816406 228.027344 335.714844 227.019531 335.535156 226.03125 C 335.398438 225.265625 335.722656 224.570312 336.238281 223.984375 C 336.519531 223.675781 336.914062 223.570312 337.332031 223.542969 C 337.96875 223.472656 338.5625 223.839844 338.78125 224.386719 C 338.894531 224.636719 338.980469 224.886719 339.042969 225.15625 C 339.125 225.480469 339.183594 225.824219 339.265625 226.148438 C 339.308594 226.296875 339.425781 226.375 339.574219 226.332031 C 339.625 226.308594 339.699219 226.289062 339.75 226.242188 C 340.375 225.414062 340.683594 224.445312 340.992188 223.507812 C 341.21875 222.808594 341.351562 222.054688 341.601562 221.355469 C 341.933594 220.464844 342.191406 219.570312 342.332031 218.621094 C 342.402344 218.085938 342.550781 217.554688 342.667969 217.046875 C 342.9375 215.933594 343.15625 214.816406 343.304688 213.671875 C 343.488281 212.261719 343.792969 210.882812 344.242188 209.53125 C 344.46875 208.832031 344.695312 208.132812 344.851562 207.378906 C 344.945312 206.894531 344.964844 206.453125 344.789062 205.980469 C 344.59375 205.433594 344.714844 204.925781 344.980469 204.425781 C 345.007812 204.351562 345.035156 204.304688 345.085938 204.257812 C 345.503906 203.640625 345.707031 202.914062 345.882812 202.1875 C 345.972656 201.847656 346.011719 201.53125 346.097656 201.195312 C 346.308594 200.347656 346.5625 199.503906 346.941406 198.710938 C 347.425781 197.679688 347.839844 196.597656 348.371094 195.59375 C 348.796875 194.753906 349.15625 193.867188 349.339844 192.945312 C 349.691406 191.097656 350.164062 189.261719 350.246094 187.355469 C 350.265625 186.941406 350.304688 186.550781 350.347656 186.136719 C 350.484375 185.261719 350.5 184.382812 350.539062 183.503906 C 350.566406 182.820312 350.570312 182.15625 350.625 181.476562 C 350.664062 181.132812 350.777344 180.820312 350.886719 180.507812 C 350.917969 180.386719 351.042969 180.292969 351.144531 180.199219 C 351.246094 180.109375 351.394531 180.066406 351.515625 180.144531 C 351.632812 180.199219 351.726562 180.300781 351.796875 180.402344 C 351.863281 180.5 351.882812 180.648438 351.875 180.796875 C 351.886719 181.140625 351.871094 181.480469 351.882812 181.800781 C 351.828125 183.558594 351.535156 185.285156 351.527344 187.042969 C 351.523438 187.167969 351.515625 187.3125 351.488281 187.460938 C 351.277344 188.867188 351.070312 190.253906 350.839844 191.664062 C 350.597656 193.269531 350.113281 194.8125 349.34375 196.273438 C 348.648438 197.585938 348.101562 198.957031 347.574219 200.355469 C 347.382812 200.859375 347.238281 201.367188 347.09375 201.898438 C 347.0625 202.019531 347.082031 202.167969 347.101562 202.289062 C 347.144531 202.4375 347.285156 202.519531 347.410156 202.449219 C 347.535156 202.40625 347.660156 202.316406 347.714844 202.21875 C 347.953125 201.8125 348.164062 201.40625 348.402344 201 C 348.878906 200.191406 349.605469 199.734375 350.554688 199.773438 C 351.019531 199.796875 351.503906 199.816406 351.972656 199.738281 C 352.660156 199.648438 353.3125 199.796875 353.960938 200.023438 C 354.082031 200.078125 354.203125 200.132812 354.320312 200.210938 C 354.796875 200.5 354.9375 201.191406 354.625 201.640625 C 354.496094 201.808594 354.390625 201.972656 354.238281 202.089844 C 353.757812 202.484375 353.277344 202.832031 352.796875 203.226562 C 352.113281 203.78125 351.363281 204.214844 350.585938 204.644531 C 350.160156 204.871094 349.714844 205.023438 349.25 205.050781 C 348.980469 205.066406 348.710938 205.078125 348.441406 205.113281 C 348.171875 205.128906 347.902344 205.140625 347.632812 205.175781 C 347.042969 205.25 346.640625 205.574219 346.371094 206.074219 C 346.214844 206.363281 346.101562 206.699219 345.988281 207.011719 C 345.375 208.820312 345.046875 210.667969 344.722656 212.535156 C 344.421875 214.335938 344.050781 216.128906 343.632812 217.898438 C 343.128906 219.929688 342.671875 221.964844 342.097656 223.972656 C 341.75 225.203125 341.257812 226.382812 340.503906 227.449219 C 340.007812 228.160156 339.609375 228.953125 339.207031 229.742188 C 338.992188 230.171875 338.851562 230.605469 338.855469 231.097656 C 338.84375 231.292969 338.8125 231.511719 338.777344 231.703125 C 338.75 231.824219 338.671875 231.945312 338.617188 232.0625 C 338.539062 232.183594 338.4375 232.277344 338.335938 232.34375 C 337.828125 232.738281 337.539062 233.242188 337.34375 233.84375 C 337.140625 234.496094 336.96875 235.125 336.890625 235.804688 C 336.769531 236.878906 336.625 237.949219 336.429688 239.015625 C 336.242188 239.960938 336.203125 240.890625 336.183594 241.84375 C 336.179688 242.527344 336.175781 243.1875 336.167969 243.875 C 336.171875 244.949219 336.148438 246.027344 335.980469 247.09375 C 335.910156 247.558594 335.839844 248.042969 335.941406 248.511719 C 335.964844 248.5625 335.984375 248.636719 336.058594 248.664062 C 336.199219 248.742188 336.324219 248.726562 336.425781 248.582031 C 336.867188 247.992188 337.261719 247.347656 337.726562 246.78125 C 338.5 245.8125 339.507812 245.121094 340.738281 244.882812 C 340.9375 244.839844 341.132812 244.824219 341.328125 244.808594 C 341.523438 244.792969 341.742188 244.828125 341.9375 244.859375 C 342.421875 244.929688 342.792969 245.339844 342.796875 245.828125 C 342.800781 246.292969 342.753906 246.78125 342.734375 247.246094 C 342.703125 247.953125 342.410156 248.527344 341.921875 249.042969 C 341.613281 249.398438 341.257812 249.726562 340.859375 249.953125 C 340.15625 250.363281 339.433594 250.722656 338.664062 250.980469 C 338.09375 251.175781 337.5 251.347656 336.929688 251.542969 C 336.386719 251.714844 336.027344 252.089844 335.808594 252.640625 C 335.722656 252.90625 335.617188 253.148438 335.554688 253.414062 C 335.324219 254.261719 335.089844 255.105469 334.90625 255.953125 C 334.695312 256.875 334.433594 257.792969 334.175781 258.6875 C 333.917969 259.53125 333.710938 260.378906 333.503906 261.226562 C 333.414062 261.613281 333.320312 262.027344 333.304688 262.417969 C 333.28125 263.492188 333.0625 264.558594 332.945312 265.632812 C 332.746094 267.359375 332.09375 268.875 331.007812 270.21875 C 329.949219 271.542969 328.867188 272.816406 327.714844 274.0625 C 326.792969 275.050781 325.753906 275.910156 324.578125 276.59375 C 323.175781 277.390625 321.863281 278.359375 320.574219 279.328125 C 319.769531 279.929688 318.984375 280.582031 318.457031 281.464844 C 318.296875 281.75 317.972656 281.933594 317.625 282.015625 C 317.429688 282.054688 317.230469 282.121094 317.035156 282.136719 C 316.617188 282.191406 316.269531 282.371094 315.941406 282.601562 C 315.386719 282.992188 314.902344 283.4375 314.417969 283.929688 C 313.625 284.75 312.832031 285.597656 312.039062 286.417969 C 311.195312 287.285156 310.398438 288.207031 309.71875 289.203125 C 309.117188 290.082031 308.445312 290.933594 307.679688 291.707031 C 307.042969 292.316406 306.5 293.003906 305.980469 293.714844 C 305.644531 294.140625 305.332031 294.566406 304.949219 294.964844 C 304.027344 295.953125 303.058594 296.886719 302.113281 297.851562 C 301.253906 298.496094 300.394531 299.144531 299.539062 299.792969 C 299.488281 299.839844 299.4375 299.886719 299.386719 299.910156 C 298.90625 300.304688 298.378906 300.574219 297.832031 300.84375 C 296.136719 301.648438 294.417969 302.429688 292.566406 302.863281 C 292.246094 302.949219 291.921875 303.054688 291.601562 303.164062 C 291.402344 303.226562 291.207031 303.269531 291.011719 303.285156 C 290.886719 303.304688 290.742188 303.296875 290.621094 303.242188 C 290.476562 303.210938 290.410156 303.085938 290.367188 302.960938 C 290.324219 302.8125 290.351562 302.691406 290.453125 302.597656 C 290.65625 302.414062 290.882812 302.277344 291.152344 302.238281 C 292.015625 302.082031 292.855469 301.847656 293.675781 301.515625 C 294.667969 301.121094 295.664062 300.699219 296.636719 300.253906 C 297.855469 299.695312 299.011719 298.988281 300.027344 298.101562 C 300.382812 297.796875 300.761719 297.523438 301.140625 297.21875 C 301.570312 296.898438 301.953125 296.523438 302.3125 296.121094 C 302.824219 295.507812 303.386719 294.921875 304.023438 294.386719 C 304.429688 294.035156 304.789062 293.636719 305.101562 293.183594 C 305.335938 292.851562 305.59375 292.546875 305.828125 292.214844 C 306.324219 291.476562 306.863281 290.816406 307.476562 290.183594 C 308.042969 289.59375 308.554688 288.980469 308.976562 288.265625 C 309.425781 287.503906 309.992188 286.84375 310.605469 286.207031 C 311.628906 285.152344 312.652344 284.070312 313.699219 283.015625 C 313.980469 282.734375 314.285156 282.480469 314.613281 282.226562 C 314.867188 282.015625 315.167969 281.832031 315.421875 281.625 C 316.003906 281.160156 316.515625 280.621094 316.910156 280 C 317.015625 279.835938 317.074219 279.617188 317.03125 279.417969 C 316.949219 279.097656 316.863281 278.777344 316.78125 278.453125 C 316.570312 277.660156 316.335938 276.894531 316.152344 276.101562 C 316.089844 275.855469 316.054688 275.558594 316.066406 275.289062 C 316.097656 274.605469 316.269531 273.953125 316.613281 273.382812 C 316.796875 273.097656 317.003906 272.835938 317.28125 272.628906 C 317.660156 272.351562 318.082031 272.148438 318.554688 272.023438 C 318.628906 272 318.675781 272.003906 318.75 271.984375 C 319.414062 271.863281 320.320312 272.394531 320.535156 273.039062 C 320.597656 273.238281 320.589844 273.433594 320.605469 273.628906 C 320.601562 273.753906 320.570312 273.898438 320.539062 274.019531 C 320.125 275.152344 319.902344 276.363281 319.53125 277.523438 C 319.394531 277.882812 319.351562 278.296875 319.285156 278.6875 Z M 348.941406 203.71875 C 349.554688 203.621094 350.082031 203.351562 350.5625 202.980469 C 351.191406 202.496094 351.800781 201.984375 352.363281 201.421875 C 352.390625 201.371094 352.417969 201.300781 352.394531 201.226562 C 352.375 201.175781 352.304688 201.101562 352.28125 201.097656 C 351.890625 201.082031 351.476562 201.0625 351.085938 201.070312 C 350.667969 201.078125 350.316406 201.304688 350.058594 201.613281 C 349.929688 201.753906 349.800781 201.917969 349.695312 202.085938 C 349.382812 202.609375 349.113281 203.160156 348.941406 203.71875 Z M 337.824219 249.523438 C 337.894531 249.648438 338.039062 249.707031 338.1875 249.664062 C 338.996094 249.527344 339.695312 249.167969 340.351562 248.707031 C 340.832031 248.335938 341.171875 247.835938 341.414062 247.285156 C 341.441406 247.238281 341.445312 247.164062 341.449219 247.089844 C 341.507812 246.824219 341.300781 246.546875 341.058594 246.511719 C 340.71875 246.472656 340.398438 246.507812 340.097656 246.664062 C 339.925781 246.753906 339.75 246.867188 339.597656 246.984375 C 338.964844 247.496094 338.449219 248.085938 338.054688 248.777344 C 337.949219 248.941406 337.890625 249.136719 337.835938 249.304688 C 337.78125 249.402344 337.777344 249.472656 337.824219 249.523438 Z M 317.71875 277.101562 C 317.742188 277.148438 317.839844 277.179688 317.886719 277.179688 C 317.9375 277.183594 318.035156 277.136719 318.0625 277.089844 C 318.140625 276.972656 318.21875 276.878906 318.25 276.730469 C 318.488281 275.761719 318.699219 274.769531 318.914062 273.800781 C 318.945312 273.65625 318.902344 273.53125 318.785156 273.425781 C 318.691406 273.351562 318.546875 273.320312 318.421875 273.363281 C 318.296875 273.40625 318.171875 273.472656 318.070312 273.566406 C 317.535156 274.035156 317.289062 274.632812 317.28125 275.441406 C 317.328125 275.980469 317.375 276.570312 317.71875 277.101562 Z M 337.753906 225.589844 C 337.683594 225.464844 337.589844 225.386719 337.445312 225.355469 C 337.277344 225.324219 337.023438 225.484375 336.96875 225.65625 C 336.9375 225.777344 336.882812 225.917969 336.878906 226.042969 C 336.890625 226.921875 337.121094 227.765625 337.453125 228.5625 C 337.472656 228.613281 337.542969 228.664062 337.59375 228.667969 C 337.714844 228.695312 337.839844 228.652344 337.894531 228.507812 C 338.082031 228.078125 338.152344 227.613281 338.125 227.148438 C 338.148438 226.613281 337.976562 226.089844 337.753906 225.589844 Z M 337.753906 225.589844 " fill-opacity="1" fill-rule="nonzero"/></g></g></g></g><g clip-path="url(#984d1af2f4)"><g clip-path="url(#ff4019e081)"><g transform="matrix(1, 0, 0, 1, 18, 177)"><g clip-path="url(#85ebed3955)"><g clip-path="url(#14a5a7b4f1)"><g clip-path="url(#3130d536fd)"><g clip-path="url(#3324c6cd5b)"><g clip-path="url(#e58fa14e33)"><path fill="#000000" d="M 37.433594 101.667969 C 36.839844 101.523438 36.308594 101.207031 35.804688 100.890625 C 35.074219 100.410156 34.34375 99.933594 33.632812 99.40625 C 32.167969 98.351562 30.71875 97.222656 29.503906 95.835938 C 29.144531 95.4375 28.757812 95.066406 28.375 94.667969 C 27.523438 93.804688 26.792969 92.835938 26.109375 91.816406 C 25.609375 91.082031 25.277344 90.292969 25.066406 89.421875 C 24.878906 88.621094 24.742188 87.84375 24.679688 87.015625 C 24.539062 85.1875 24.234375 83.414062 23.683594 81.65625 C 23.25 80.234375 22.910156 78.78125 22.570312 77.355469 C 22.421875 76.75 22.441406 76.160156 22.753906 75.582031 C 22.84375 75.40625 22.90625 75.207031 22.921875 75.011719 C 22.9375 74.816406 22.925781 74.59375 22.867188 74.425781 C 22.808594 74.234375 22.703125 74.066406 22.574219 73.902344 C 22.3125 73.574219 22.148438 73.214844 22.058594 72.828125 C 21.757812 71.714844 21.605469 70.574219 21.671875 69.417969 C 21.679688 69.074219 21.664062 68.734375 21.671875 68.414062 C 21.671875 67.410156 21.644531 66.386719 21.476562 65.390625 C 21.402344 64.929688 21.378906 64.441406 21.359375 63.976562 C 21.335938 63.023438 21.265625 62.097656 21.121094 61.148438 C 21.054688 60.761719 21.007812 60.347656 20.988281 59.929688 C 20.96875 58.976562 20.726562 58.058594 20.464844 57.167969 C 20.320312 56.710938 20.175781 56.277344 20.007812 55.820312 C 19.976562 55.699219 19.921875 55.554688 19.914062 55.429688 C 19.878906 54.699219 19.792969 53.945312 20.003906 53.222656 C 20.105469 52.828125 20.183594 52.433594 20.3125 52.058594 C 20.65625 51.089844 20.753906 50.078125 20.925781 49.09375 C 21.058594 48.328125 20.730469 47.632812 20.214844 47.046875 C 19.929688 46.742188 19.535156 46.640625 19.117188 46.609375 C 18.480469 46.542969 17.886719 46.914062 17.671875 47.464844 C 17.5625 47.714844 17.476562 47.964844 17.414062 48.234375 C 17.332031 48.558594 17.277344 48.902344 17.195312 49.226562 C 17.152344 49.375 17.035156 49.453125 16.886719 49.410156 C 16.835938 49.390625 16.761719 49.367188 16.710938 49.324219 C 16.085938 48.496094 15.769531 47.53125 15.457031 46.59375 C 15.226562 45.894531 15.089844 45.144531 14.835938 44.445312 C 14.5 43.554688 14.238281 42.664062 14.09375 41.714844 C 14.019531 41.179688 13.871094 40.648438 13.75 40.140625 C 13.476562 39.03125 13.25 37.914062 13.097656 36.773438 C 12.90625 35.363281 12.59375 33.980469 12.136719 32.632812 C 11.90625 31.933594 11.679688 31.234375 11.519531 30.484375 C 11.421875 30 11.402344 29.5625 11.574219 29.085938 C 11.765625 28.539062 11.644531 28.03125 11.375 27.53125 C 11.347656 27.457031 11.320312 27.410156 11.269531 27.363281 C 10.847656 26.75 10.644531 26.023438 10.460938 25.300781 C 10.371094 24.960938 10.332031 24.644531 10.242188 24.304688 C 10.03125 23.460938 9.769531 22.617188 9.386719 21.828125 C 8.898438 20.796875 8.480469 19.71875 7.941406 18.714844 C 7.511719 17.878906 7.148438 16.992188 6.957031 16.070312 C 6.601562 14.230469 6.121094 12.390625 6.027344 10.488281 C 6.007812 10.074219 5.964844 9.683594 5.917969 9.269531 C 5.777344 8.394531 5.761719 7.515625 5.71875 6.636719 C 5.683594 5.953125 5.675781 5.292969 5.617188 4.609375 C 5.578125 4.269531 5.464844 3.957031 5.351562 3.644531 C 5.320312 3.523438 5.195312 3.429688 5.09375 3.339844 C 4.988281 3.246094 4.839844 3.203125 4.722656 3.28125 C 4.605469 3.335938 4.511719 3.441406 4.441406 3.542969 C 4.375 3.640625 4.359375 3.789062 4.363281 3.9375 C 4.355469 4.28125 4.375 4.621094 4.363281 4.941406 C 4.425781 6.699219 4.730469 8.421875 4.742188 10.183594 C 4.75 10.304688 4.753906 10.453125 4.789062 10.597656 C 5.003906 12.007812 5.214844 13.390625 5.457031 14.800781 C 5.707031 16.402344 6.195312 17.945312 6.972656 19.398438 C 7.671875 20.710938 8.226562 22.078125 8.761719 23.472656 C 8.957031 23.976562 9.101562 24.484375 9.25 25.015625 C 9.28125 25.136719 9.265625 25.285156 9.246094 25.40625 C 9.203125 25.554688 9.0625 25.636719 8.9375 25.570312 C 8.8125 25.527344 8.683594 25.433594 8.632812 25.339844 C 8.390625 24.933594 8.175781 24.53125 7.9375 24.125 C 7.457031 23.316406 6.726562 22.863281 5.777344 22.910156 C 5.316406 22.929688 4.828125 22.957031 4.359375 22.878906 C 3.671875 22.792969 3.019531 22.945312 2.371094 23.171875 C 2.253906 23.226562 2.132812 23.28125 2.015625 23.363281 C 1.542969 23.652344 1.402344 24.347656 1.71875 24.796875 C 1.847656 24.960938 1.953125 25.125 2.105469 25.242188 C 2.589844 25.632812 3.070312 25.976562 3.554688 26.371094 C 4.242188 26.925781 4.992188 27.351562 5.773438 27.78125 C 6.199219 28.003906 6.644531 28.152344 7.109375 28.179688 C 7.378906 28.191406 7.648438 28.203125 7.917969 28.238281 C 8.1875 28.25 8.457031 28.261719 8.726562 28.296875 C 9.316406 28.367188 9.722656 28.6875 9.992188 29.1875 C 10.152344 29.476562 10.265625 29.8125 10.378906 30.125 C 11.003906 31.929688 11.339844 33.773438 11.671875 35.640625 C 11.980469 37.4375 12.363281 39.230469 12.789062 40.996094 C 13.304688 43.027344 13.769531 45.058594 14.355469 47.0625 C 14.707031 48.292969 15.203125 49.46875 15.964844 50.535156 C 16.464844 51.242188 16.867188 52.03125 17.273438 52.820312 C 17.488281 53.25 17.632812 53.683594 17.632812 54.171875 C 17.640625 54.367188 17.675781 54.585938 17.710938 54.78125 C 17.742188 54.902344 17.820312 55.019531 17.875 55.140625 C 17.953125 55.257812 18.054688 55.351562 18.15625 55.417969 C 18.664062 55.8125 18.957031 56.308594 19.15625 56.914062 C 19.359375 57.5625 19.539062 58.191406 19.621094 58.871094 C 19.746094 59.941406 19.894531 61.011719 20.09375 62.078125 C 20.285156 63.023438 20.332031 63.953125 20.351562 64.90625 C 20.363281 65.589844 20.371094 66.25 20.378906 66.9375 C 20.382812 68.011719 20.410156 69.089844 20.585938 70.15625 C 20.65625 70.617188 20.730469 71.105469 20.628906 71.574219 C 20.609375 71.625 20.585938 71.699219 20.515625 71.726562 C 20.371094 71.808594 20.25 71.789062 20.144531 71.648438 C 19.699219 71.058594 19.304688 70.414062 18.835938 69.851562 C 18.054688 68.886719 17.046875 68.199219 15.8125 67.96875 C 15.617188 67.925781 15.421875 67.914062 15.222656 67.898438 C 15.027344 67.882812 14.808594 67.917969 14.617188 67.953125 C 14.132812 68.023438 13.761719 68.433594 13.761719 68.921875 C 13.757812 69.390625 13.808594 69.875 13.828125 70.339844 C 13.863281 71.046875 14.160156 71.621094 14.648438 72.136719 C 14.960938 72.488281 15.316406 72.8125 15.71875 73.039062 C 16.421875 73.445312 17.148438 73.800781 17.917969 74.054688 C 18.488281 74.25 19.082031 74.414062 19.652344 74.609375 C 20.199219 74.777344 20.558594 75.152344 20.78125 75.703125 C 20.867188 75.96875 20.976562 76.207031 21.039062 76.472656 C 21.277344 77.320312 21.511719 78.164062 21.699219 79.011719 C 21.917969 79.929688 22.179688 80.847656 22.445312 81.742188 C 22.703125 82.585938 22.917969 83.429688 23.128906 84.277344 C 23.222656 84.664062 23.316406 85.074219 23.332031 85.464844 C 23.363281 86.542969 23.585938 87.609375 23.710938 88.679688 C 23.917969 90.40625 24.574219 91.917969 25.667969 93.257812 C 26.734375 94.578125 27.820312 95.84375 28.980469 97.085938 C 29.90625 98.070312 30.949219 98.921875 32.128906 99.601562 C 33.535156 100.386719 34.851562 101.351562 36.144531 102.316406 C 36.957031 102.914062 37.742188 103.558594 38.273438 104.441406 C 38.433594 104.726562 38.761719 104.90625 39.109375 104.988281 C 39.304688 105.027344 39.503906 105.089844 39.699219 105.105469 C 40.117188 105.15625 40.46875 105.335938 40.796875 105.566406 C 41.351562 105.953125 41.835938 106.394531 42.324219 106.886719 C 43.121094 107.703125 43.921875 108.546875 44.71875 109.363281 C 45.566406 110.226562 46.367188 111.144531 47.050781 112.136719 C 47.65625 113.015625 48.332031 113.863281 49.101562 114.632812 C 49.742188 115.238281 50.289062 115.921875 50.808594 116.628906 C 51.148438 117.054688 51.460938 117.476562 51.847656 117.875 C 52.773438 118.859375 53.746094 119.789062 54.699219 120.746094 C 55.558594 121.390625 56.421875 122.035156 57.28125 122.675781 C 57.332031 122.722656 57.386719 122.769531 57.433594 122.792969 C 57.917969 123.183594 58.445312 123.453125 58.992188 123.71875 C 60.695312 124.515625 62.417969 125.289062 64.269531 125.714844 C 64.589844 125.796875 64.914062 125.902344 65.234375 126.007812 C 65.433594 126.074219 65.628906 126.113281 65.828125 126.128906 C 65.949219 126.144531 66.097656 126.136719 66.214844 126.082031 C 66.359375 126.050781 66.425781 125.925781 66.46875 125.800781 C 66.511719 125.652344 66.480469 125.53125 66.378906 125.4375 C 66.175781 125.253906 65.949219 125.117188 65.679688 125.082031 C 64.816406 124.929688 63.972656 124.699219 63.152344 124.371094 C 62.15625 123.980469 61.160156 123.566406 60.1875 123.121094 C 58.960938 122.570312 57.804688 121.867188 56.785156 120.988281 C 56.429688 120.6875 56.050781 120.410156 55.667969 120.113281 C 55.238281 119.789062 54.851562 119.417969 54.492188 119.019531 C 53.972656 118.410156 53.40625 117.824219 52.769531 117.292969 C 52.363281 116.945312 52.003906 116.546875 51.6875 116.097656 C 51.453125 115.765625 51.191406 115.460938 50.957031 115.128906 C 50.457031 114.394531 49.910156 113.734375 49.296875 113.105469 C 48.730469 112.519531 48.210938 111.910156 47.785156 111.195312 C 47.332031 110.433594 46.765625 109.777344 46.148438 109.148438 C 45.121094 108.097656 44.089844 107.019531 43.039062 105.96875 C 42.753906 105.691406 42.449219 105.4375 42.121094 105.183594 C 41.867188 104.976562 41.5625 104.792969 41.308594 104.585938 C 40.726562 104.125 40.210938 103.585938 39.816406 102.96875 C 39.710938 102.804688 39.648438 102.585938 39.6875 102.390625 C 39.769531 102.066406 39.851562 101.746094 39.933594 101.421875 C 40.140625 100.628906 40.371094 99.859375 40.550781 99.066406 C 40.613281 98.820312 40.648438 98.523438 40.636719 98.253906 C 40.601562 97.570312 40.421875 96.917969 40.078125 96.347656 C 39.894531 96.0625 39.683594 95.804688 39.40625 95.597656 C 39.027344 95.324219 38.601562 95.125 38.132812 95 C 38.058594 94.980469 38.007812 94.980469 37.933594 94.960938 C 37.269531 94.847656 36.367188 95.378906 36.15625 96.027344 C 36.09375 96.226562 36.101562 96.421875 36.085938 96.617188 C 36.09375 96.738281 36.125 96.882812 36.15625 97.003906 C 36.574219 98.136719 36.804688 99.347656 37.179688 100.503906 C 37.320312 100.863281 37.363281 101.277344 37.433594 101.667969 Z M 7.410156 26.84375 C 6.796875 26.75 6.269531 26.484375 5.789062 26.113281 C 5.152344 25.632812 4.542969 25.121094 3.980469 24.5625 C 3.953125 24.515625 3.925781 24.441406 3.945312 24.367188 C 3.96875 24.320312 4.035156 24.242188 4.0625 24.242188 C 4.449219 24.222656 4.863281 24.203125 5.253906 24.207031 C 5.671875 24.210938 6.023438 24.4375 6.28125 24.746094 C 6.410156 24.886719 6.542969 25.050781 6.648438 25.214844 C 6.964844 25.738281 7.238281 26.289062 7.410156 26.84375 Z M 18.75 72.597656 C 18.683594 72.722656 18.539062 72.777344 18.390625 72.734375 C 17.578125 72.605469 16.878906 72.246094 16.21875 71.789062 C 15.738281 71.421875 15.398438 70.925781 15.148438 70.375 C 15.125 70.324219 15.121094 70.253906 15.117188 70.179688 C 15.054688 69.914062 15.261719 69.632812 15.503906 69.597656 C 15.84375 69.554688 16.160156 69.589844 16.460938 69.746094 C 16.636719 69.835938 16.8125 69.949219 16.964844 70.0625 C 17.601562 70.570312 18.117188 71.160156 18.519531 71.847656 C 18.625 72.015625 18.683594 72.207031 18.738281 72.375 C 18.792969 72.472656 18.796875 72.546875 18.75 72.597656 Z M 38.988281 100.074219 C 38.96875 100.125 38.871094 100.152344 38.824219 100.15625 C 38.773438 100.15625 38.675781 100.113281 38.648438 100.066406 C 38.570312 99.945312 38.492188 99.851562 38.460938 99.707031 C 38.21875 98.742188 37.996094 97.746094 37.78125 96.777344 C 37.746094 96.632812 37.789062 96.507812 37.90625 96.40625 C 38 96.328125 38.148438 96.296875 38.269531 96.339844 C 38.394531 96.382812 38.519531 96.449219 38.621094 96.542969 C 39.15625 97.003906 39.40625 97.605469 39.421875 98.414062 C 39.375 98.953125 39.332031 99.542969 38.988281 100.074219 Z M 18.707031 48.660156 C 18.773438 48.535156 18.867188 48.457031 19.011719 48.425781 C 19.179688 48.394531 19.433594 48.554688 19.492188 48.722656 C 19.519531 48.84375 19.578125 48.988281 19.582031 49.109375 C 19.578125 49.988281 19.347656 50.832031 19.023438 51.632812 C 19 51.683594 18.929688 51.734375 18.878906 51.738281 C 18.761719 51.769531 18.636719 51.726562 18.578125 51.582031 C 18.386719 51.148438 18.316406 50.6875 18.34375 50.222656 C 18.316406 49.683594 18.488281 49.164062 18.707031 48.660156 Z M 18.707031 48.660156 " fill-opacity="1" fill-rule="nonzero"/></g></g></g></g></g></g></g></g><g fill="#000000" fill-opacity="1"><g transform="translate(111.837875, 332.713752)"><g><path d="M 6.5 -0.34375 C 6.1875 0.0703125 5.859375 0.425781 5.515625 0.71875 C 5.179688 1.007812 4.820312 1.21875 4.4375 1.34375 C 4.050781 1.476562 3.644531 1.523438 3.21875 1.484375 C 2.789062 1.453125 2.332031 1.316406 1.84375 1.078125 C 1.40625 0.878906 1.054688 0.628906 0.796875 0.328125 C 0.535156 0.0351562 0.382812 -0.226562 0.34375 -0.46875 L 1.96875 -1.5 C 2.039062 -1.34375 2.148438 -1.195312 2.296875 -1.0625 C 2.441406 -0.925781 2.601562 -0.8125 2.78125 -0.71875 C 3.175781 -0.53125 3.523438 -0.515625 3.828125 -0.671875 C 4.128906 -0.828125 4.410156 -1.078125 4.671875 -1.421875 L 10 -8.921875 L 11.9375 -8 Z M 6.5 -0.34375 "/></g></g></g><g fill="#000000" fill-opacity="1"><g transform="translate(128.313734, 339.921396)"><g><path d="M 7.9375 1.421875 C 7.4375 1.648438 6.863281 1.804688 6.21875 1.890625 C 5.570312 1.972656 4.898438 1.890625 4.203125 1.640625 C 3.671875 1.460938 3.226562 1.226562 2.875 0.9375 C 2.53125 0.644531 2.269531 0.316406 2.09375 -0.046875 C 1.914062 -0.421875 1.820312 -0.8125 1.8125 -1.21875 C 1.800781 -1.632812 1.867188 -2.050781 2.015625 -2.46875 C 2.222656 -3.09375 2.535156 -3.660156 2.953125 -4.171875 C 3.367188 -4.679688 3.851562 -5.09375 4.40625 -5.40625 C 4.957031 -5.726562 5.566406 -5.921875 6.234375 -5.984375 C 6.910156 -6.054688 7.609375 -5.96875 8.328125 -5.71875 C 9.171875 -5.425781 9.742188 -5.035156 10.046875 -4.546875 C 10.359375 -4.066406 10.398438 -3.519531 10.171875 -2.90625 C 9.859375 -2.019531 9.15625 -1.492188 8.0625 -1.328125 C 6.976562 -1.160156 5.601562 -1.320312 3.9375 -1.8125 C 3.800781 -1.332031 3.84375 -0.925781 4.0625 -0.59375 C 4.28125 -0.257812 4.632812 -0.0078125 5.125 0.15625 C 5.53125 0.300781 5.941406 0.347656 6.359375 0.296875 C 6.773438 0.242188 7.15625 0.164062 7.5 0.0625 Z M 7.59375 -4.140625 C 7.28125 -4.253906 6.972656 -4.304688 6.671875 -4.296875 C 6.367188 -4.285156 6.082031 -4.222656 5.8125 -4.109375 C 5.550781 -3.992188 5.300781 -3.84375 5.0625 -3.65625 C 4.832031 -3.46875 4.640625 -3.25 4.484375 -3 C 5.546875 -2.695312 6.390625 -2.566406 7.015625 -2.609375 C 7.640625 -2.648438 8.019531 -2.859375 8.15625 -3.234375 C 8.238281 -3.453125 8.222656 -3.640625 8.109375 -3.796875 C 7.992188 -3.953125 7.820312 -4.066406 7.59375 -4.140625 Z M 7.59375 -4.140625 "/></g></g></g><g fill="#000000" fill-opacity="1"><g transform="translate(147.043551, 345.771036)"><g><path d="M 13.875 -5.203125 C 13.625 -4.460938 13.304688 -3.738281 12.921875 -3.03125 C 12.546875 -2.320312 12.117188 -1.65625 11.640625 -1.03125 C 11.171875 -0.414062 10.664062 0.132812 10.125 0.625 C 9.59375 1.125 9.054688 1.539062 8.515625 1.875 L 7 1.546875 C 7.082031 0.835938 7.148438 0.171875 7.203125 -0.453125 C 7.265625 -1.078125 7.304688 -1.691406 7.328125 -2.296875 C 6.878906 -1.617188 6.367188 -1 5.796875 -0.4375 C 5.222656 0.125 4.644531 0.582031 4.0625 0.9375 L 2.53125 0.609375 C 2.59375 -0.078125 2.632812 -0.75 2.65625 -1.40625 C 2.6875 -2.0625 2.703125 -2.710938 2.703125 -3.359375 C 2.710938 -4.015625 2.707031 -4.6875 2.6875 -5.375 C 2.664062 -6.070312 2.644531 -6.804688 2.625 -7.578125 L 4.796875 -7.125 C 4.816406 -6.125 4.804688 -5.144531 4.765625 -4.1875 C 4.734375 -3.226562 4.671875 -2.359375 4.578125 -1.578125 C 5.128906 -2.109375 5.609375 -2.6875 6.015625 -3.3125 C 6.421875 -3.945312 6.773438 -4.597656 7.078125 -5.265625 C 7.054688 -5.492188 7.035156 -5.722656 7.015625 -5.953125 C 6.992188 -6.179688 6.976562 -6.414062 6.96875 -6.65625 L 9.125 -6.203125 C 9.144531 -5.710938 9.15625 -5.21875 9.15625 -4.71875 C 9.15625 -4.226562 9.140625 -3.742188 9.109375 -3.265625 C 9.078125 -2.785156 9.035156 -2.328125 8.984375 -1.890625 C 8.929688 -1.453125 8.882812 -1.050781 8.84375 -0.6875 C 9.59375 -1.394531 10.207031 -2.191406 10.6875 -3.078125 C 11.175781 -3.972656 11.53125 -4.832031 11.75 -5.65625 Z M 13.875 -5.203125 "/></g></g></g><g fill="#000000" fill-opacity="1"><g transform="translate(169.74054, 349.716438)"><g><path d="M 8.03125 -0.609375 C 7.601562 -0.253906 7.085938 0.0390625 6.484375 0.28125 C 5.890625 0.519531 5.222656 0.609375 4.484375 0.546875 C 3.921875 0.503906 3.429688 0.382812 3.015625 0.1875 C 2.609375 -0.0078125 2.269531 -0.265625 2 -0.578125 C 1.738281 -0.890625 1.550781 -1.242188 1.4375 -1.640625 C 1.332031 -2.035156 1.300781 -2.453125 1.34375 -2.890625 C 1.394531 -3.546875 1.554688 -4.175781 1.828125 -4.78125 C 2.097656 -5.382812 2.460938 -5.90625 2.921875 -6.34375 C 3.378906 -6.78125 3.921875 -7.117188 4.546875 -7.359375 C 5.179688 -7.597656 5.878906 -7.6875 6.640625 -7.625 C 7.523438 -7.550781 8.175781 -7.316406 8.59375 -6.921875 C 9.019531 -6.535156 9.203125 -6.007812 9.140625 -5.34375 C 9.054688 -4.40625 8.503906 -3.71875 7.484375 -3.28125 C 6.472656 -2.851562 5.097656 -2.671875 3.359375 -2.734375 C 3.347656 -2.242188 3.488281 -1.863281 3.78125 -1.59375 C 4.070312 -1.320312 4.476562 -1.164062 5 -1.125 C 5.4375 -1.082031 5.851562 -1.140625 6.25 -1.296875 C 6.644531 -1.453125 6.984375 -1.617188 7.265625 -1.796875 Z M 6.3125 -5.921875 C 5.988281 -5.941406 5.679688 -5.910156 5.390625 -5.828125 C 5.109375 -5.742188 4.847656 -5.609375 4.609375 -5.421875 C 4.378906 -5.242188 4.175781 -5.035156 4 -4.796875 C 3.820312 -4.566406 3.679688 -4.304688 3.578125 -4.015625 C 4.691406 -3.984375 5.546875 -4.066406 6.140625 -4.265625 C 6.742188 -4.460938 7.0625 -4.757812 7.09375 -5.15625 C 7.125 -5.382812 7.0625 -5.5625 6.90625 -5.6875 C 6.757812 -5.820312 6.5625 -5.898438 6.3125 -5.921875 Z M 6.3125 -5.921875 "/></g></g></g><g fill="#000000" fill-opacity="1"><g transform="translate(189.244834, 350.633377)"><g><path d="M 2.796875 -12.4375 L 4.8125 -12.484375 L 3.328125 -2.875 C 3.304688 -2.75 3.296875 -2.664062 3.296875 -2.625 C 3.242188 -2.070312 3.453125 -1.800781 3.921875 -1.8125 C 4.078125 -1.820312 4.238281 -1.851562 4.40625 -1.90625 C 4.582031 -1.96875 4.726562 -2.035156 4.84375 -2.109375 L 5.109375 -0.5 C 4.910156 -0.351562 4.632812 -0.21875 4.28125 -0.09375 C 3.925781 0.0195312 3.554688 0.0820312 3.171875 0.09375 C 2.617188 0.101562 2.175781 -0.015625 1.84375 -0.265625 C 1.519531 -0.523438 1.320312 -0.929688 1.25 -1.484375 C 1.207031 -1.859375 1.21875 -2.226562 1.28125 -2.59375 Z M 2.796875 -12.4375 "/></g></g></g><g fill="#000000" fill-opacity="1"><g transform="translate(205.404427, 349.716033)"><g><path d="M 1.609375 -12.640625 L 3.609375 -12.875 L 3.03125 -3.1875 C 3.019531 -3.0625 3.019531 -2.976562 3.03125 -2.9375 C 3.039062 -2.375 3.273438 -2.117188 3.734375 -2.171875 C 3.890625 -2.191406 4.050781 -2.238281 4.21875 -2.3125 C 4.382812 -2.394531 4.519531 -2.472656 4.625 -2.546875 L 5.046875 -0.984375 C 4.859375 -0.828125 4.59375 -0.671875 4.25 -0.515625 C 3.90625 -0.359375 3.546875 -0.253906 3.171875 -0.203125 C 2.617188 -0.140625 2.164062 -0.222656 1.8125 -0.453125 C 1.457031 -0.679688 1.21875 -1.0625 1.09375 -1.59375 C 1.019531 -1.957031 0.992188 -2.328125 1.015625 -2.703125 Z M 1.609375 -12.640625 "/></g></g></g><g fill="#000000" fill-opacity="1"><g transform="translate(221.452254, 347.284673)"><g><path d="M 7.484375 -3 C 7.179688 -2.53125 6.78125 -2.085938 6.28125 -1.671875 C 5.78125 -1.265625 5.171875 -0.984375 4.453125 -0.828125 C 3.898438 -0.691406 3.394531 -0.65625 2.9375 -0.71875 C 2.488281 -0.789062 2.085938 -0.9375 1.734375 -1.15625 C 1.390625 -1.375 1.101562 -1.65625 0.875 -2 C 0.65625 -2.34375 0.492188 -2.734375 0.390625 -3.171875 C 0.242188 -3.816406 0.207031 -4.460938 0.28125 -5.109375 C 0.363281 -5.765625 0.554688 -6.367188 0.859375 -6.921875 C 1.171875 -7.484375 1.59375 -7.972656 2.125 -8.390625 C 2.65625 -8.804688 3.289062 -9.101562 4.03125 -9.28125 C 4.90625 -9.476562 5.597656 -9.453125 6.109375 -9.203125 C 6.628906 -8.953125 6.957031 -8.5 7.09375 -7.84375 C 7.300781 -6.925781 6.984375 -6.109375 6.140625 -5.390625 C 5.304688 -4.679688 4.050781 -4.09375 2.375 -3.625 C 2.519531 -3.132812 2.769531 -2.804688 3.125 -2.640625 C 3.476562 -2.484375 3.910156 -2.460938 4.421875 -2.578125 C 4.847656 -2.671875 5.222656 -2.851562 5.546875 -3.125 C 5.878906 -3.394531 6.164062 -3.660156 6.40625 -3.921875 Z M 4.234375 -7.546875 C 3.910156 -7.472656 3.625 -7.347656 3.375 -7.171875 C 3.132812 -7.003906 2.929688 -6.800781 2.765625 -6.5625 C 2.597656 -6.320312 2.460938 -6.0625 2.359375 -5.78125 C 2.265625 -5.5 2.21875 -5.207031 2.21875 -4.90625 C 3.269531 -5.21875 4.050781 -5.554688 4.5625 -5.921875 C 5.070312 -6.296875 5.28125 -6.675781 5.1875 -7.0625 C 5.144531 -7.28125 5.035156 -7.425781 4.859375 -7.5 C 4.679688 -7.582031 4.472656 -7.597656 4.234375 -7.546875 Z M 4.234375 -7.546875 "/></g></g></g><g fill="#000000" fill-opacity="1"><g transform="translate(240.340718, 342.277134)"><g><path d="M -0.375 -8.296875 L 1.53125 -8.953125 L 1.796875 -7.265625 C 1.859375 -7.523438 1.9375 -7.789062 2.03125 -8.0625 C 2.132812 -8.332031 2.257812 -8.582031 2.40625 -8.8125 C 2.550781 -9.039062 2.722656 -9.25 2.921875 -9.4375 C 3.128906 -9.632812 3.367188 -9.78125 3.640625 -9.875 C 3.816406 -9.9375 3.976562 -9.96875 4.125 -9.96875 C 4.28125 -9.96875 4.414062 -9.953125 4.53125 -9.921875 L 4.171875 -7.875 C 3.972656 -7.925781 3.769531 -7.914062 3.5625 -7.84375 C 3.320312 -7.757812 3.125 -7.585938 2.96875 -7.328125 C 2.8125 -7.078125 2.679688 -6.78125 2.578125 -6.4375 C 2.472656 -6.101562 2.398438 -5.75 2.359375 -5.375 C 2.316406 -5.007812 2.289062 -4.660156 2.28125 -4.328125 L 2.828125 -0.984375 L 0.9375 -0.328125 Z M -0.375 -8.296875 "/></g></g></g><g fill="#000000" fill-opacity="1"><g transform="translate(256.540876, 336.069425)"><g><path d="M 4.21875 -10.78125 C 4.539062 -9.195312 4.773438 -7.671875 4.921875 -6.203125 C 5.066406 -4.742188 5.09375 -3.414062 5 -2.21875 C 4.90625 -1.019531 4.6875 -0.00390625 4.34375 0.828125 C 4 1.671875 3.507812 2.242188 2.875 2.546875 C 2.53125 2.703125 2.210938 2.789062 1.921875 2.8125 C 1.628906 2.832031 1.34375 2.796875 1.0625 2.703125 L 1.25 0.9375 C 1.382812 0.957031 1.519531 0.960938 1.65625 0.953125 C 1.789062 0.953125 1.9375 0.914062 2.09375 0.84375 C 2.445312 0.675781 2.6875 0.382812 2.8125 -0.03125 C 2.9375 -0.457031 3.015625 -0.910156 3.046875 -1.390625 C 2.722656 -1.847656 2.34375 -2.328125 1.90625 -2.828125 C 1.476562 -3.335938 1.015625 -3.863281 0.515625 -4.40625 C 0.015625 -4.945312 -0.503906 -5.476562 -1.046875 -6 C -1.597656 -6.53125 -2.144531 -7.035156 -2.6875 -7.515625 L -0.640625 -8.484375 C -0.359375 -8.234375 -0.046875 -7.9375 0.296875 -7.59375 C 0.640625 -7.257812 0.984375 -6.894531 1.328125 -6.5 C 1.679688 -6.113281 2.023438 -5.722656 2.359375 -5.328125 C 2.703125 -4.941406 3 -4.582031 3.25 -4.25 C 3.226562 -4.644531 3.191406 -5.078125 3.140625 -5.546875 C 3.085938 -6.015625 3.019531 -6.492188 2.9375 -6.984375 C 2.851562 -7.484375 2.753906 -7.972656 2.640625 -8.453125 C 2.523438 -8.941406 2.40625 -9.410156 2.28125 -9.859375 Z M 4.21875 -10.78125 "/></g></g></g><g fill="#000000" fill-opacity="1"><g transform="translate(38.366543, 149.129436)"><g><path d="M 0.859375 -2.625 L -18.046875 -8.828125 C -17.953125 -9.097656 -17.832031 -9.46875 -17.6875 -9.9375 C -17.550781 -10.40625 -17.394531 -10.898438 -17.21875 -11.421875 C -17.050781 -11.953125 -16.890625 -12.46875 -16.734375 -12.96875 C -16.578125 -13.476562 -16.445312 -13.894531 -16.34375 -14.21875 C -15.882812 -15.601562 -15.328125 -16.707031 -14.671875 -17.53125 C -14.023438 -18.363281 -13.328125 -18.96875 -12.578125 -19.34375 C -11.828125 -19.726562 -11.046875 -19.921875 -10.234375 -19.921875 C -9.421875 -19.929688 -8.628906 -19.8125 -7.859375 -19.5625 C -7.046875 -19.289062 -6.316406 -18.882812 -5.671875 -18.34375 C -5.035156 -17.8125 -4.53125 -17.15625 -4.15625 -16.375 C -3.78125 -15.601562 -3.566406 -14.734375 -3.515625 -13.765625 C -3.460938 -12.804688 -3.625 -11.757812 -4 -10.625 C -4.09375 -10.332031 -4.21875 -9.953125 -4.375 -9.484375 C -4.539062 -9.015625 -4.707031 -8.578125 -4.875 -8.171875 L 1.953125 -5.9375 Z M -13.125 -13.53125 C -13.238281 -13.1875 -13.359375 -12.816406 -13.484375 -12.421875 C -13.609375 -12.023438 -13.734375 -11.59375 -13.859375 -11.125 L -8.03125 -9.21875 C -7.882812 -9.601562 -7.726562 -9.988281 -7.5625 -10.375 C -7.40625 -10.769531 -7.265625 -11.15625 -7.140625 -11.53125 C -6.972656 -12.019531 -6.878906 -12.492188 -6.859375 -12.953125 C -6.835938 -13.421875 -6.898438 -13.851562 -7.046875 -14.25 C -7.191406 -14.65625 -7.425781 -15.007812 -7.75 -15.3125 C -8.082031 -15.625 -8.515625 -15.863281 -9.046875 -16.03125 C -10.035156 -16.351562 -10.867188 -16.296875 -11.546875 -15.859375 C -12.234375 -15.429688 -12.757812 -14.65625 -13.125 -13.53125 Z M -13.125 -13.53125 "/></g></g></g><g fill="#000000" fill-opacity="1"><g transform="translate(48.563809, 121.747195)"><g><path d="M -16.109375 -12.015625 L -10.546875 -22.109375 L -7.6875 -20.546875 L -11.5625 -13.5 L -7.21875 -11.109375 L -3.765625 -17.390625 L -0.90625 -15.8125 L -4.359375 -9.53125 L 0.15625 -7.046875 L 4.171875 -14.328125 L 7.03125 -12.75 L 1.328125 -2.421875 Z M -16.109375 -12.015625 "/></g></g></g><g fill="#000000" fill-opacity="1"><g transform="translate(62.849697, 97.55433)"><g><path d="M -6.734375 -7.4375 C -7.828125 -8.375 -8.6875 -9.441406 -9.3125 -10.640625 C -9.9375 -11.835938 -10.300781 -13.078125 -10.40625 -14.359375 C -10.507812 -15.648438 -10.347656 -16.953125 -9.921875 -18.265625 C -9.503906 -19.578125 -8.796875 -20.8125 -7.796875 -21.96875 C -6.835938 -23.09375 -5.753906 -23.976562 -4.546875 -24.625 C -3.347656 -25.269531 -2.109375 -25.648438 -0.828125 -25.765625 C 0.441406 -25.890625 1.726562 -25.742188 3.03125 -25.328125 C 4.332031 -24.910156 5.570312 -24.195312 6.75 -23.1875 C 7.882812 -22.21875 8.753906 -21.125 9.359375 -19.90625 C 9.972656 -18.695312 10.328125 -17.441406 10.421875 -16.140625 C 10.515625 -14.847656 10.335938 -13.550781 9.890625 -12.25 C 9.453125 -10.957031 8.753906 -9.75 7.796875 -8.625 C 6.828125 -7.5 5.75 -6.613281 4.5625 -5.96875 C 3.382812 -5.320312 2.148438 -4.941406 0.859375 -4.828125 C -0.429688 -4.710938 -1.722656 -4.863281 -3.015625 -5.28125 C -4.316406 -5.707031 -5.554688 -6.425781 -6.734375 -7.4375 Z M -4.328125 -10.25 C -3.566406 -9.601562 -2.75 -9.128906 -1.875 -8.828125 C -1 -8.535156 -0.132812 -8.410156 0.71875 -8.453125 C 1.582031 -8.503906 2.410156 -8.722656 3.203125 -9.109375 C 4.003906 -9.503906 4.707031 -10.050781 5.3125 -10.75 C 5.988281 -11.539062 6.457031 -12.367188 6.71875 -13.234375 C 6.988281 -14.097656 7.070312 -14.953125 6.96875 -15.796875 C 6.863281 -16.640625 6.585938 -17.453125 6.140625 -18.234375 C 5.691406 -19.015625 5.09375 -19.726562 4.34375 -20.375 C 3.570312 -21.039062 2.75 -21.523438 1.875 -21.828125 C 1 -22.140625 0.128906 -22.265625 -0.734375 -22.203125 C -1.597656 -22.140625 -2.425781 -21.910156 -3.21875 -21.515625 C -4.007812 -21.128906 -4.707031 -20.578125 -5.3125 -19.859375 C -5.925781 -19.140625 -6.367188 -18.359375 -6.640625 -17.515625 C -6.910156 -16.679688 -7.003906 -15.832031 -6.921875 -14.96875 C -6.847656 -14.113281 -6.585938 -13.28125 -6.140625 -12.46875 C -5.703125 -11.65625 -5.097656 -10.914062 -4.328125 -10.25 Z M -4.328125 -10.25 "/></g></g></g><g fill="#000000" fill-opacity="1"><g transform="translate(86.551031, 71.937523)"><g><path d="M 13.640625 -10.125 L -3.390625 -14.671875 L 4.84375 -3.59375 L 2.21875 -1.65625 L -9.65625 -17.640625 L -7.421875 -19.296875 L 9.640625 -14.703125 L 1.375 -25.828125 L 3.984375 -27.765625 L 15.859375 -11.78125 Z M 13.640625 -10.125 "/></g></g></g><g fill="#000000" fill-opacity="1"><g transform="translate(114.853687, 52.717913)"><g><path d="M 6.21875 -12 L 9.6875 -4.46875 L 6.515625 -3 L 3.046875 -10.53125 L -8.203125 -18.140625 L -4.578125 -19.8125 L 3.40625 -14.3125 L 4.359375 -23.921875 L 7.796875 -25.5 Z M 6.21875 -12 "/></g></g></g><g fill="#000000" fill-opacity="1"><g transform="translate(142.529084, 41.495512)"><g/></g></g><g fill="#000000" fill-opacity="1"><g transform="translate(159.935135, 36.923997)"><g><path d="M 14.34375 -10.125 L 5.296875 -9.140625 L 6.21875 -0.6875 L 2.75 -0.296875 L 0.578125 -20.078125 L 4.046875 -20.46875 L 4.9375 -12.390625 L 13.984375 -13.375 L 13.09375 -21.453125 L 16.546875 -21.828125 L 18.71875 -2.046875 L 15.265625 -1.671875 Z M 14.34375 -10.125 "/></g></g></g><g fill="#000000" fill-opacity="1"><g transform="translate(193.066886, 34.490115)"><g><path d="M 2.375 -9.75 C 2.53125 -11.175781 2.925781 -12.484375 3.5625 -13.671875 C 4.207031 -14.867188 5.035156 -15.875 6.046875 -16.6875 C 7.054688 -17.5 8.21875 -18.09375 9.53125 -18.46875 C 10.851562 -18.851562 12.273438 -18.960938 13.796875 -18.796875 C 15.265625 -18.628906 16.601562 -18.226562 17.8125 -17.59375 C 19.03125 -16.96875 20.046875 -16.160156 20.859375 -15.171875 C 21.679688 -14.179688 22.285156 -13.03125 22.671875 -11.71875 C 23.054688 -10.40625 23.160156 -8.976562 22.984375 -7.4375 C 22.828125 -6.03125 22.441406 -4.75 21.828125 -3.59375 C 21.210938 -2.445312 20.425781 -1.472656 19.46875 -0.671875 L 21.578125 2.421875 L 17.546875 1.96875 L 16.828125 0.9375 C 15.234375 1.601562 13.460938 1.828125 11.515625 1.609375 C 10.046875 1.441406 8.710938 1.046875 7.515625 0.421875 C 6.316406 -0.203125 5.304688 -1.007812 4.484375 -2 C 3.660156 -3 3.054688 -4.15625 2.671875 -5.46875 C 2.296875 -6.78125 2.195312 -8.207031 2.375 -9.75 Z M 6.0625 -9.328125 C 5.945312 -8.335938 6.007812 -7.398438 6.25 -6.515625 C 6.5 -5.628906 6.882812 -4.835938 7.40625 -4.140625 C 7.9375 -3.453125 8.582031 -2.890625 9.34375 -2.453125 C 10.113281 -2.015625 10.957031 -1.742188 11.875 -1.640625 C 12.9375 -1.523438 13.953125 -1.625 14.921875 -1.9375 L 13.484375 -4.078125 L 15.96875 -5.84375 L 17.484375 -3.59375 C 17.984375 -4.132812 18.390625 -4.765625 18.703125 -5.484375 C 19.015625 -6.210938 19.21875 -7 19.3125 -7.84375 C 19.425781 -8.851562 19.359375 -9.804688 19.109375 -10.703125 C 18.867188 -11.609375 18.484375 -12.398438 17.953125 -13.078125 C 17.421875 -13.765625 16.769531 -14.320312 16 -14.75 C 15.226562 -15.175781 14.375 -15.441406 13.4375 -15.546875 C 12.5 -15.648438 11.609375 -15.578125 10.765625 -15.328125 C 9.921875 -15.085938 9.164062 -14.691406 8.5 -14.140625 C 7.832031 -13.585938 7.285156 -12.898438 6.859375 -12.078125 C 6.441406 -11.253906 6.175781 -10.335938 6.0625 -9.328125 Z M 6.0625 -9.328125 "/></g></g></g><g fill="#000000" fill-opacity="1"><g transform="translate(227.756795, 40.159803)"><g/></g></g><g fill="#000000" fill-opacity="1"><g transform="translate(244.939514, 45.629417)"><g><path d="M 11.046875 -16.796875 L 14.1875 -15.296875 L 10.140625 -6.765625 L 21.296875 -11.9375 L 25.09375 -10.125 L 13.703125 -5.265625 L 17 8.078125 L 13 6.171875 L 10.046875 -6.578125 L 5.640625 2.6875 L 2.5 1.1875 Z M 11.046875 -16.796875 "/></g></g></g><g fill="#000000" fill-opacity="1"><g transform="translate(272.277619, 60.015168)"><g><path d="M 14.03125 -14.390625 L 23.3125 -7.5625 L 21.375 -4.921875 L 14.90625 -9.6875 L 11.96875 -5.703125 L 17.75 -1.4375 L 15.8125 1.1875 L 10.03125 -3.078125 L 6.96875 1.078125 L 13.65625 6.015625 L 11.71875 8.640625 L 2.21875 1.640625 Z M 14.03125 -14.390625 "/></g></g></g><g fill="#000000" fill-opacity="1"><g transform="translate(294.371561, 77.384205)"><g><path d="M 11.375 12.625 L 14.28125 -4.75 L 4.03125 4.484375 L 1.84375 2.046875 L 16.625 -11.28125 L 18.5 -9.203125 L 15.546875 8.1875 L 25.828125 -1.078125 L 28.015625 1.359375 L 13.234375 14.6875 Z M 11.375 12.625 "/></g></g></g><g fill="#000000" fill-opacity="1"><g transform="translate(316.173435, 103.749499)"><g><path d="M 12.53125 5.0625 L 5.359375 9.234375 L 3.609375 6.203125 L 10.78125 2.03125 L 17.296875 -9.875 L 19.296875 -6.4375 L 14.578125 2.03125 L 24.234375 2.078125 L 26.140625 5.34375 Z M 12.53125 5.0625 "/></g></g></g><g fill="#000000" fill-opacity="1"><g transform="translate(330.146053, 129.882894)"><g><path d="M 21.6875 1.765625 L 22.671875 4.6875 L 6.4375 19.046875 L 5.25 15.515625 L 9.40625 11.921875 L 6.6875 3.859375 L 1.1875 3.515625 L 0.0625 0.1875 Z M 10.203125 4.09375 L 12.078125 9.609375 L 17.84375 4.578125 Z M 10.203125 4.09375 "/></g></g></g><path fill="#82001a" d="M 136.488281 156.886719 C 130.546875 158.164062 125.710938 157.785156 122.023438 155.742188 C 115.703125 152.234375 113.039062 143.84375 114.105469 130.800781 C 115.148438 117.992188 119.578125 109.707031 127.269531 106.175781 C 135.277344 102.503906 146.523438 103.953125 160.703125 110.496094 C 171.207031 115.339844 179.496094 121.335938 179.578125 121.398438 L 179.867188 121.605469 L 179.761719 121.949219 C 177.066406 130.652344 181.769531 132.824219 181.972656 132.914062 L 184.957031 134.21875 L 181.722656 133.867188 C 180.027344 133.679688 177.300781 134.792969 173.835938 137.085938 C 171.164062 138.851562 169 140.703125 168.976562 140.722656 L 168.949219 140.742188 C 168.871094 140.800781 160.96875 146.652344 151.328125 151.402344 C 145.804688 154.121094 140.851562 155.949219 136.496094 156.890625 Z M 131.699219 105.761719 C 130.300781 106.0625 128.960938 106.496094 127.683594 107.082031 C 120.347656 110.449219 116.109375 118.457031 115.097656 130.878906 C 114.066406 143.496094 116.558594 151.570312 122.503906 154.867188 C 136.992188 162.902344 167.546875 140.53125 168.335938 139.949219 C 168.804688 139.550781 175.601562 133.796875 180.292969 132.949219 C 178.808594 131.597656 176.804688 128.457031 178.703125 122 C 175.667969 119.863281 149.488281 101.933594 131.699219 105.761719 Z M 131.699219 105.761719 " fill-opacity="1" fill-rule="nonzero"/><path fill="#82001a" d="M 248.046875 140.613281 C 242.789062 141.742188 235.988281 141.585938 227.695312 140.125 C 217.109375 138.257812 207.886719 134.847656 207.796875 134.8125 L 207.761719 134.800781 C 207.660156 134.753906 197.488281 130.179688 193.605469 131.78125 L 190.496094 133.066406 L 193.101562 130.933594 C 193.101562 130.933594 194.132812 130.054688 194.535156 128.277344 C 195.074219 125.894531 194.25 122.957031 192.15625 119.789062 L 191.960938 119.492188 L 192.179688 119.210938 C 192.246094 119.128906 198.527344 111.058594 207.257812 103.46875 C 219.042969 93.226562 229.4375 88.6875 238.152344 89.980469 C 246.523438 91.21875 253.089844 97.9375 257.671875 109.945312 C 262.34375 122.171875 262.128906 130.976562 257.039062 136.105469 C 254.871094 138.289062 251.863281 139.792969 248.046875 140.617188 Z M 208.160156 133.886719 C 209.082031 134.226562 244.671875 147.164062 256.335938 135.402344 C 261.125 130.574219 261.261719 122.128906 256.746094 110.300781 C 252.300781 98.652344 245.996094 92.152344 238.007812 90.964844 C 227.535156 89.414062 215.867188 97.316406 207.925781 104.214844 C 200.175781 110.949219 194.367188 118.074219 193.191406 119.546875 C 196.820312 125.21875 195.773438 128.796875 194.726562 130.507812 C 199.457031 130 207.601562 133.632812 208.160156 133.882812 Z M 208.160156 133.886719 " fill-opacity="1" fill-rule="nonzero"/><path fill="#82001a" d="M 239.730469 128.042969 C 236.199219 128.804688 231.863281 128.996094 226.757812 128.609375 C 219.039062 128.03125 212.3125 126.28125 212.246094 126.265625 L 212.207031 126.257812 C 212.125 126.226562 203.753906 123.402344 195.378906 126.472656 L 195.039062 125.535156 C 203.632812 122.382812 211.945312 125.113281 212.519531 125.304688 C 213.320312 125.511719 239.050781 132.015625 247.457031 123.101562 C 250.4375 119.941406 250.902344 115.125 248.835938 108.78125 C 247.898438 105.898438 246.144531 104.09375 243.46875 103.261719 C 229.285156 98.824219 195.460938 124.339844 195.125 124.597656 L 194.523438 123.804688 C 194.609375 123.738281 203.214844 117.21875 213.5 111.347656 C 227.394531 103.414062 237.578125 100.375 243.769531 102.308594 C 246.726562 103.238281 248.753906 105.308594 249.785156 108.476562 C 251.976562 115.191406 251.4375 120.34375 248.1875 123.789062 C 246.261719 125.828125 243.4375 127.25 239.734375 128.046875 Z M 239.730469 128.042969 " fill-opacity="1" fill-rule="nonzero"/><path fill="#82001a" d="M 140.71875 143.140625 C 134.871094 144.398438 130.253906 144.0625 126.929688 142.128906 C 122.835938 139.75 120.855469 134.964844 121.042969 127.902344 C 121.132812 124.574219 122.484375 122.011719 125.058594 120.28125 C 130.445312 116.664062 141.074219 116.6875 156.648438 120.351562 C 168.179688 123.0625 178.285156 126.863281 178.382812 126.902344 L 178.03125 127.835938 C 177.632812 127.683594 137.953125 112.828125 125.613281 121.113281 C 123.289062 122.671875 122.121094 124.90625 122.039062 127.933594 C 121.859375 134.601562 123.671875 139.085938 127.425781 141.269531 C 138.023438 147.429688 160.847656 133.878906 161.554688 133.457031 C 162.046875 133.105469 169.242188 128.132812 178.378906 128.707031 L 178.3125 129.699219 C 169.414062 129.136719 162.1875 134.222656 162.117188 134.277344 L 162.082031 134.296875 C 162.023438 134.332031 156.070312 137.917969 148.835938 140.667969 C 145.910156 141.78125 143.199219 142.601562 140.714844 143.140625 Z M 140.71875 143.140625 " fill-opacity="1" fill-rule="nonzero"/><path fill="#82001a" d="M 192.441406 119.996094 C 184.683594 117.816406 179.664062 122.128906 179.613281 122.171875 L 178.953125 121.425781 C 179.175781 121.230469 184.4375 116.707031 192.710938 119.035156 Z M 192.441406 119.996094 " fill-opacity="1" fill-rule="nonzero"/><path fill="#82001a" d="M 188.476562 133.921875 C 184.722656 134.730469 181.804688 133.898438 181.632812 133.84375 L 181.914062 132.886719 C 181.96875 132.902344 187.632812 134.511719 193.144531 130.902344 L 193.6875 131.734375 C 191.894531 132.90625 190.105469 133.570312 188.472656 133.921875 Z M 188.476562 133.921875 " fill-opacity="1" fill-rule="nonzero"/><path fill="#82001a" d="M 257.089844 199.34375 L 256.5 199.015625 C 256.453125 198.992188 251.707031 196.382812 248.820312 197.003906 C 245.933594 197.625 242.109375 200.027344 242.070312 200.050781 L 241.628906 200.335938 L 241.367188 199.878906 C 241.007812 199.242188 232.566406 184.246094 232.261719 177.765625 C 232.148438 175.308594 229.378906 172.410156 224.25 169.382812 C 220.292969 167.046875 216.328125 165.472656 216.289062 165.457031 C 216.164062 165.402344 205.25 160.488281 201.519531 148.210938 C 197.917969 136.355469 192.140625 132.394531 192.085938 132.351562 L 192.636719 131.523438 C 192.699219 131.566406 194.210938 132.578125 196.183594 135.117188 C 197.984375 137.441406 200.535156 141.542969 202.476562 147.921875 C 206.070312 159.75 216.570312 164.492188 216.675781 164.539062 C 217.324219 164.792969 232.945312 171.035156 233.253906 177.71875 C 233.519531 183.351562 240.550781 196.34375 241.984375 198.933594 C 243.09375 198.261719 246.050781 196.582031 248.609375 196.03125 C 251.199219 195.472656 254.839844 197.070312 256.324219 197.804688 C 256.390625 196.449219 256.246094 193.085938 253.96875 188 C 252.75 185.269531 251.667969 183.960938 250.621094 182.691406 C 248.984375 180.714844 247.445312 178.851562 245.703125 172.273438 C 244.183594 166.554688 237.746094 163.144531 230.292969 159.191406 C 224.328125 156.03125 217.574219 152.449219 212.726562 147.09375 C 204.136719 137.59375 202.261719 136.359375 198.152344 133.664062 C 197.1875 133.03125 196.089844 132.3125 194.761719 131.386719 L 195.328125 130.570312 C 196.648438 131.484375 197.738281 132.199219 198.699219 132.832031 C 202.878906 135.578125 204.789062 136.828125 213.46875 146.425781 C 218.195312 151.65625 224.871094 155.191406 230.761719 158.316406 C 238.421875 162.371094 245.039062 165.878906 246.667969 172.019531 C 248.359375 178.386719 249.832031 180.171875 251.394531 182.0625 C 252.484375 183.378906 253.609375 184.746094 254.882812 187.597656 C 258.046875 194.664062 257.269531 198.527344 257.238281 198.691406 L 257.097656 199.347656 Z M 257.089844 199.34375 " fill-opacity="1" fill-rule="nonzero"/><path fill="#82001a" d="M 133.40625 201.15625 L 132.96875 200.859375 C 132.933594 200.835938 129.253906 198.371094 126.289062 197.667969 C 123.414062 196.984375 118.609375 199.488281 118.5625 199.511719 L 117.96875 199.824219 L 117.84375 199.164062 C 117.8125 199 117.121094 195.117188 120.441406 188.121094 C 121.777344 185.300781 122.933594 183.960938 124.054688 182.664062 C 125.652344 180.808594 127.167969 179.058594 128.996094 172.730469 C 130.761719 166.625 137.453125 163.269531 145.199219 159.378906 C 151.15625 156.386719 157.90625 153 162.75 147.878906 C 171.496094 138.621094 173.101562 137.632812 176.976562 135.234375 C 177.964844 134.625 179.085938 133.929688 180.515625 132.984375 L 181.066406 133.8125 C 179.621094 134.769531 178.496094 135.46875 177.5 136.082031 C 173.703125 138.429688 172.128906 139.398438 163.476562 148.558594 C 158.511719 153.808594 151.679688 157.242188 145.648438 160.265625 C 138.109375 164.054688 131.597656 167.320312 129.953125 173.003906 C 128.0625 179.539062 126.480469 181.375 124.808594 183.3125 C 123.730469 184.558594 122.621094 185.84375 121.339844 188.546875 C 118.953125 193.582031 118.734375 196.941406 118.769531 198.296875 C 120.265625 197.59375 123.941406 196.078125 126.519531 196.691406 C 129.066406 197.300781 131.984375 199.042969 133.082031 199.738281 C 134.570312 197.179688 141.886719 184.347656 142.273438 178.71875 C 142.730469 172.050781 158.488281 166.148438 159.160156 165.902344 C 159.25 165.867188 169.847656 161.355469 173.703125 149.609375 C 177.691406 137.457031 184.003906 133.457031 184.269531 133.296875 L 184.792969 134.144531 C 184.730469 134.183594 178.511719 138.144531 174.648438 149.917969 C 170.644531 162.109375 159.632812 166.78125 159.523438 166.828125 C 159.464844 166.851562 155.453125 168.34375 151.449219 170.589844 C 146.265625 173.503906 143.4375 176.339844 143.265625 178.789062 C 142.820312 185.261719 134.046875 200.070312 133.675781 200.695312 L 133.40625 201.148438 Z M 133.40625 201.15625 " fill-opacity="1" fill-rule="nonzero"/><path fill="#82001a" d="M 156.054688 216.28125 L 155.417969 215.515625 C 175.5 198.859375 183.953125 134.3125 184.035156 133.660156 L 185.023438 133.789062 C 185.003906 133.949219 182.886719 150.328125 178.289062 168.570312 C 172.109375 193.121094 164.625 209.175781 156.054688 216.28125 Z M 156.054688 216.28125 " fill-opacity="1" fill-rule="nonzero"/><path fill="#82001a" d="M 164 220.898438 L 163.113281 220.445312 C 183.851562 179.796875 187.746094 133.910156 187.78125 133.453125 L 188.773438 133.53125 C 188.738281 133.992188 184.828125 180.074219 164 220.898438 Z M 164 220.898438 " fill-opacity="1" fill-rule="nonzero"/><path fill="#82001a" d="M 247.507812 243.03125 C 247.507812 243.03125 245.882812 238.625 239.46875 232.917969 C 233.054688 227.214844 225.699219 230.058594 225.699219 230.058594 C 217.746094 234.148438 210.484375 231.972656 210.484375 231.972656 C 210.484375 231.972656 205.519531 231.003906 199.910156 234.246094 C 194.296875 237.492188 191.382812 244.230469 191.320312 253.417969 C 191.261719 262.601562 197.136719 272.546875 197.136719 272.546875 C 197.136719 272.546875 202.671875 282.757812 211.878906 284.507812 C 221.089844 286.261719 233.925781 281.933594 236.777344 280.980469 C 239.632812 280.027344 248.425781 275.128906 250.289062 263.832031 C 252.203125 252.207031 247.511719 243.03125 247.511719 243.03125 Z M 219.054688 276.292969 C 219.054688 276.292969 217.457031 278.335938 211.699219 276.855469 C 205.949219 275.375 203.253906 267.832031 203.253906 267.832031 C 203.253906 267.832031 202.679688 266.675781 204.203125 265.929688 C 205.429688 265.324219 207.683594 267.898438 207.683594 267.898438 C 207.683594 267.898438 210.332031 272.617188 214.242188 273.171875 C 220.898438 274.117188 219.054688 276.292969 219.054688 276.292969 Z M 214.738281 240.707031 C 207.535156 242.605469 205.941406 237.707031 209.257812 237.332031 C 209.257812 237.332031 213.871094 236.675781 215.449219 237.695312 C 215.449219 237.695312 218.917969 239.601562 214.738281 240.707031 Z M 223.152344 238.757812 C 219 239.992188 218.699219 237 220.660156 236.578125 C 222.621094 236.15625 224.992188 234.652344 227.515625 233.398438 C 231.128906 231.609375 231.617188 233.882812 231.617188 233.882812 C 232.429688 236.082031 227.304688 237.527344 223.152344 238.757812 Z M 245.21875 256.089844 C 241.164062 259.339844 239.769531 252.851562 239.789062 251.363281 C 239.789062 251.363281 239.746094 249.597656 239.648438 249.136719 C 239.507812 248.484375 238.765625 246.609375 241.5 246.699219 C 243.195312 246.757812 244.308594 247.113281 245.726562 250.546875 C 247.144531 253.976562 245.21875 256.085938 245.21875 256.085938 Z M 245.21875 256.089844 " fill-opacity="1" fill-rule="nonzero"/><path fill="#82001a" d="M 173.160156 222.679688 C 173.160156 222.679688 168.820312 219.878906 165.898438 220.503906 C 162.3125 221.277344 159.902344 219.410156 159.902344 219.410156 C 159.902344 219.410156 155.203125 216.449219 152.878906 212.09375 C 150.605469 207.828125 141.765625 204.636719 136.339844 207.839844 C 136.339844 207.839844 129.222656 211.070312 123.941406 219.679688 C 118.65625 228.285156 120.777344 239.71875 120.777344 239.71875 C 120.777344 239.71875 122.878906 254.214844 130.582031 260.027344 C 138.285156 265.84375 146.847656 267.738281 157.582031 267.128906 C 168.320312 266.519531 178.839844 250.667969 180.195312 241.203125 C 181.46875 232.355469 180.117188 226.617188 173.152344 222.675781 Z M 131.851562 230.886719 C 131.851562 230.886719 129.820312 234.378906 132.566406 240.421875 C 135.285156 246.410156 130.757812 245.046875 130.757812 245.046875 C 124.699219 240.574219 127.796875 229.71875 127.796875 229.71875 C 127.796875 229.71875 128.421875 227.882812 129.003906 227.417969 C 129.738281 226.832031 131.53125 226.535156 132.136719 227.765625 C 132.738281 228.992188 131.851562 230.882812 131.851562 230.882812 Z M 150.269531 225.222656 C 147.117188 223.183594 143.097656 215.558594 143.097656 215.558594 C 142.285156 213.355469 143.90625 213.007812 144.554688 212.863281 C 145.203125 212.722656 146.25 212.839844 147.117188 213.855469 C 147.667969 214.492188 150.636719 219.03125 152.03125 220.769531 C 153.425781 222.503906 155.648438 223.382812 155.648438 223.382812 C 155.648438 223.382812 157.226562 224.402344 160.683594 224.679688 C 164.140625 224.957031 166.136719 227.921875 162.820312 228.296875 C 159.5 228.671875 153.425781 227.261719 150.269531 225.222656 Z M 169.488281 243.507812 C 167.378906 246.339844 166.082031 245.058594 165.988281 244.601562 C 165.847656 243.949219 166.285156 242.835938 166.285156 242.835938 C 166.285156 242.835938 166.722656 241.726562 166.375 240.101562 C 166.027344 238.476562 166.511719 236.328125 166.511719 236.328125 C 166.511719 236.328125 167.136719 234.164062 168.96875 234.789062 C 170.375 235.265625 170.6875 236.453125 170.6875 236.453125 C 170.6875 236.453125 171.59375 240.675781 169.488281 243.507812 Z M 169.488281 243.507812 " fill-opacity="1" fill-rule="nonzero"/><path fill="#82001a" d="M 222.113281 231.582031 L 221.121094 231.652344 C 218.742188 199.433594 210.859375 174.160156 204.664062 158.628906 C 197.953125 141.800781 191.722656 132.472656 191.660156 132.378906 L 192.488281 131.820312 C 192.550781 131.914062 198.828125 141.308594 205.578125 158.226562 C 211.804688 173.824219 219.722656 199.214844 222.113281 231.578125 Z M 222.113281 231.582031 " fill-opacity="1" fill-rule="nonzero"/><path fill="#82001a" d="M 217.402344 232.578125 L 216.410156 232.660156 C 213.738281 200.316406 206.117188 175.152344 200.199219 159.734375 C 193.78125 143.027344 187.921875 133.855469 187.859375 133.761719 L 188.699219 133.21875 C 188.757812 133.3125 194.660156 142.546875 201.113281 159.335938 C 207.066406 174.820312 214.71875 200.09375 217.402344 232.574219 Z M 217.402344 232.578125 " fill-opacity="1" fill-rule="nonzero"/></g></g></svg>