<svg xmlns="http://www.w3.org/2000/svg" xmlns:xlink="http://www.w3.org/1999/xlink" width="500" zoomAndPan="magnify" viewBox="0 0 375 374.999991" height="500" preserveAspectRatio="xMidYMid meet" version="1.0"><defs><g/><clipPath id="792dbeadcd"><path d="M 0 0 L 375 0 L 375 375 L 0 375 Z M 0 0 " clip-rule="nonzero"/></clipPath><clipPath id="822d3b6bf3"><path d="M 187.5 0 C 83.945312 0 0 83.945312 0 187.5 C 0 291.054688 83.945312 375 187.5 375 C 291.054688 375 375 291.054688 375 187.5 C 375 83.945312 291.054688 0 187.5 0 Z M 187.5 0 " clip-rule="nonzero"/></clipPath><clipPath id="0ce8010e74"><path d="M 0 0 L 375 0 L 375 375 L 0 375 Z M 0 0 " clip-rule="nonzero"/></clipPath><clipPath id="02c494ddd8"><path d="M 187.5 0 C 83.945312 0 0 83.945312 0 187.5 C 0 291.054688 83.945312 375 187.5 375 C 291.054688 375 375 291.054688 375 187.5 C 375 83.945312 291.054688 0 187.5 0 Z M 187.5 0 " clip-rule="nonzero"/></clipPath><clipPath id="422a325821"><rect x="0" width="375" y="0" height="375"/></clipPath><clipPath id="231c27c442"><path d="M 0 0 L 374.4375 0 L 374.4375 374.4375 L 0 374.4375 Z M 0 0 " clip-rule="nonzero"/></clipPath><clipPath id="63c08baf35"><path d="M 187.5 0 C 83.945312 0 0 83.945312 0 187.5 C 0 291.050781 83.945312 375 187.5 375 C 291.050781 375 375 291.050781 375 187.5 C 375 83.945312 291.050781 0 187.5 0 Z M 187.5 0 " clip-rule="nonzero"/></clipPath><clipPath id="fca35a01b8"><path d="M 54.476562 54.476562 L 320.523438 54.476562 L 320.523438 320.523438 L 54.476562 320.523438 Z M 54.476562 54.476562 " clip-rule="nonzero"/></clipPath><clipPath id="0aa852b224"><path d="M 187.5 54.476562 C 114.03125 54.476562 54.476562 114.03125 54.476562 187.5 C 54.476562 260.96875 114.03125 320.523438 187.5 320.523438 C 260.96875 320.523438 320.523438 260.96875 320.523438 187.5 C 320.523438 114.03125 260.96875 54.476562 187.5 54.476562 Z M 187.5 54.476562 " clip-rule="nonzero"/></clipPath><clipPath id="27abda7593"><path d="M 0.476562 0.476562 L 266.523438 0.476562 L 266.523438 266.523438 L 0.476562 266.523438 Z M 0.476562 0.476562 " clip-rule="nonzero"/></clipPath><clipPath id="2b28937b4d"><path d="M 133.5 0.476562 C 60.03125 0.476562 0.476562 60.03125 0.476562 133.5 C 0.476562 206.96875 60.03125 266.523438 133.5 266.523438 C 206.96875 266.523438 266.523438 206.96875 266.523438 133.5 C 266.523438 60.03125 206.96875 0.476562 133.5 0.476562 Z M 133.5 0.476562 " clip-rule="nonzero"/></clipPath><clipPath id="ca4850141e"><rect x="0" width="267" y="0" height="267"/></clipPath><clipPath id="de66833a2d"><path d="M 54.476562 54.476562 L 320.28125 54.476562 L 320.28125 320.28125 L 54.476562 320.28125 Z M 54.476562 54.476562 " clip-rule="nonzero"/></clipPath><clipPath id="e98db3b8c8"><path d="M 187.496094 54.476562 C 114.03125 54.476562 54.476562 114.03125 54.476562 187.496094 C 54.476562 260.960938 114.03125 320.515625 187.496094 320.515625 C 260.960938 320.515625 320.515625 260.960938 320.515625 187.496094 C 320.515625 114.03125 260.960938 54.476562 187.496094 54.476562 Z M 187.496094 54.476562 " clip-rule="nonzero"/></clipPath><clipPath id="5c3d03e29f"><path d="M 290 180 L 356 180 L 356 304 L 290 304 Z M 290 180 " clip-rule="nonzero"/></clipPath><clipPath id="ca98414814"><path d="M 295.820312 177.527344 L 355.859375 180.164062 L 350.335938 306.011719 L 290.296875 303.375 Z M 295.820312 177.527344 " clip-rule="nonzero"/></clipPath><clipPath id="f354d98bec"><path d="M 295.820312 177.527344 L 355.859375 180.164062 L 350.335938 306.011719 L 290.296875 303.375 Z M 295.820312 177.527344 " clip-rule="nonzero"/></clipPath><clipPath id="d5eecc3ceb"><path d="M 18 177 L 85 177 L 85 307 L 18 307 Z M 18 177 " clip-rule="nonzero"/></clipPath><clipPath id="ca1f4d7570"><path d="M 18.164062 180.332031 L 78.1875 177.40625 L 84.324219 303.226562 L 24.296875 306.152344 Z M 18.164062 180.332031 " clip-rule="nonzero"/></clipPath><clipPath id="ecc112cadd"><path d="M 1 3 L 66.480469 3 L 66.480469 127 L 1 127 Z M 1 3 " clip-rule="nonzero"/></clipPath><clipPath id="81ca713649"><path d="M 0.164062 3.332031 L 60.1875 0.40625 L 66.324219 126.226562 L 6.296875 129.152344 Z M 0.164062 3.332031 " clip-rule="nonzero"/></clipPath><clipPath id="d4ad9c7586"><path d="M 60.402344 0.394531 L 0.378906 3.324219 L 6.515625 129.140625 L 66.539062 126.214844 Z M 60.402344 0.394531 " clip-rule="nonzero"/></clipPath><clipPath id="b2a1427ee0"><rect x="0" width="67" y="0" height="130"/></clipPath><clipPath id="8e1fcebc1b"><rect x="0" width="375" y="0" height="375"/></clipPath></defs><g transform="matrix(1, 0, 0, 1, 0, 0)"><g clip-path="url(#8e1fcebc1b)"><g clip-path="url(#792dbeadcd)"><g clip-path="url(#822d3b6bf3)"><g transform="matrix(1, 0, 0, 1, 0, 0)"><g clip-path="url(#422a325821)"><g clip-path="url(#0ce8010e74)"><g clip-path="url(#02c494ddd8)"><rect x="-136.5" width="648" fill="#4d0025" y="-136.499997" height="647.999984" fill-opacity="1"/></g></g></g></g></g></g><g clip-path="url(#231c27c442)"><g clip-path="url(#63c08baf35)"><path stroke-linecap="butt" transform="matrix(1.155676, 0, 0, 1.155676, 0.0000045, 0)" fill="none" stroke-linejoin="miter" d="M 162.242693 0 C 72.637404 0 -0.00000389382 72.637408 -0.00000389382 162.242697 C -0.00000389382 251.844607 72.637404 324.485395 162.242693 324.485395 C 251.844603 324.485395 324.485391 251.844607 324.485391 162.242697 C 324.485391 72.637408 251.844603 0 162.242693 0 Z M 162.242693 0 " stroke="#fcfbf9" stroke-width="1.297942" stroke-opacity="1" stroke-miterlimit="4"/></g></g><g clip-path="url(#fca35a01b8)"><g clip-path="url(#0aa852b224)"><g transform="matrix(1, 0, 0, 1, 54, 54)"><g clip-path="url(#ca4850141e)"><g clip-path="url(#27abda7593)"><g clip-path="url(#2b28937b4d)"><path fill="#920b4c" d="M 0.476562 0.476562 L 266.523438 0.476562 L 266.523438 266.523438 L 0.476562 266.523438 Z M 0.476562 0.476562 " fill-opacity="1" fill-rule="nonzero"/></g></g></g></g></g></g><g clip-path="url(#de66833a2d)"><g clip-path="url(#e98db3b8c8)"><path stroke-linecap="butt" transform="matrix(1.155676, 0, 0, 1.155676, 54.474779, 54.474774)" fill="none" stroke-linejoin="miter" d="M 115.102588 0.00154756 C 51.533876 0.00154756 0.00154367 51.53388 0.00154367 115.102592 C 0.00154367 178.671303 51.533876 230.203636 115.102588 230.203636 C 178.671299 230.203636 230.203632 178.671303 230.203632 115.102592 C 230.203632 51.53388 178.671299 0.00154756 115.102588 0.00154756 Z M 115.102588 0.00154756 " stroke="#fcfbf9" stroke-width="1.297942" stroke-opacity="1" stroke-miterlimit="4"/></g></g><g clip-path="url(#5c3d03e29f)"><g clip-path="url(#ca98414814)"><g clip-path="url(#f354d98bec)"><path fill="#fcfbf9" d="M 319.378906 278.820312 C 319.976562 278.675781 320.503906 278.355469 321.007812 278.035156 C 321.738281 277.550781 322.472656 277.070312 323.179688 276.535156 C 324.648438 275.472656 326.09375 274.335938 327.308594 272.945312 C 327.667969 272.542969 328.050781 272.167969 328.4375 271.769531 C 329.285156 270.898438 330.011719 269.925781 330.695312 268.902344 C 331.191406 268.164062 331.519531 267.371094 331.730469 266.5 C 331.914062 265.699219 332.046875 264.917969 332.105469 264.089844 C 332.234375 262.257812 332.535156 260.480469 333.078125 258.71875 C 333.507812 257.289062 333.839844 255.835938 334.171875 254.40625 C 334.320312 253.796875 334.296875 253.210938 333.980469 252.632812 C 333.890625 252.457031 333.824219 252.257812 333.808594 252.0625 C 333.792969 251.863281 333.804688 251.644531 333.859375 251.476562 C 333.917969 251.28125 334.023438 251.113281 334.152344 250.949219 C 334.414062 250.617188 334.574219 250.257812 334.664062 249.867188 C 334.960938 248.753906 335.109375 247.609375 335.035156 246.453125 C 335.027344 246.113281 335.042969 245.769531 335.03125 245.449219 C 335.027344 244.445312 335.046875 243.417969 335.214844 242.421875 C 335.28125 241.957031 335.304688 241.46875 335.324219 241.003906 C 335.339844 240.050781 335.40625 239.121094 335.546875 238.171875 C 335.613281 237.78125 335.65625 237.367188 335.671875 236.953125 C 335.691406 235.996094 335.925781 235.078125 336.1875 234.183594 C 336.328125 233.722656 336.472656 233.289062 336.636719 232.828125 C 336.667969 232.707031 336.722656 232.5625 336.730469 232.441406 C 336.761719 231.707031 336.84375 230.953125 336.628906 230.230469 C 336.523438 229.835938 336.445312 229.441406 336.3125 229.066406 C 335.964844 228.09375 335.863281 227.085938 335.683594 226.097656 C 335.546875 225.332031 335.871094 224.636719 336.386719 224.046875 C 336.671875 223.742188 337.066406 223.636719 337.484375 223.605469 C 338.125 223.535156 338.722656 223.90625 338.941406 224.453125 C 339.054688 224.703125 339.140625 224.953125 339.203125 225.222656 C 339.285156 225.546875 339.34375 225.890625 339.429688 226.214844 C 339.46875 226.363281 339.589844 226.441406 339.738281 226.398438 C 339.789062 226.378906 339.863281 226.355469 339.914062 226.308594 C 340.539062 225.480469 340.851562 224.511719 341.160156 223.570312 C 341.386719 222.871094 341.519531 222.117188 341.769531 221.417969 C 342.101562 220.523438 342.363281 219.628906 342.503906 218.679688 C 342.574219 218.144531 342.722656 217.613281 342.839844 217.101562 C 343.109375 215.988281 343.332031 214.871094 343.480469 213.726562 C 343.664062 212.3125 343.96875 210.929688 344.421875 209.578125 C 344.648438 208.875 344.875 208.175781 345.03125 207.421875 C 345.125 206.9375 345.144531 206.496094 344.96875 206.023438 C 344.773438 205.476562 344.894531 204.96875 345.160156 204.464844 C 345.1875 204.390625 345.214844 204.34375 345.265625 204.296875 C 345.683594 203.679688 345.886719 202.953125 346.066406 202.226562 C 346.15625 201.886719 346.195312 201.570312 346.28125 201.230469 C 346.492188 200.382812 346.75 199.535156 347.125 198.742188 C 347.613281 197.710938 348.027344 196.628906 348.5625 195.621094 C 348.992188 194.78125 349.347656 193.890625 349.535156 192.96875 C 349.886719 191.121094 350.359375 189.28125 350.441406 187.375 C 350.460938 186.957031 350.503906 186.566406 350.546875 186.152344 C 350.683594 185.277344 350.695312 184.394531 350.734375 183.515625 C 350.765625 182.832031 350.769531 182.167969 350.824219 181.484375 C 350.863281 181.144531 350.976562 180.832031 351.085938 180.515625 C 351.117188 180.394531 351.242188 180.304688 351.34375 180.210938 C 351.449219 180.117188 351.597656 180.074219 351.714844 180.152344 C 351.835938 180.207031 351.929688 180.308594 352 180.410156 C 352.066406 180.511719 352.085938 180.660156 352.078125 180.804688 C 352.089844 181.148438 352.074219 181.492188 352.082031 181.8125 C 352.03125 183.574219 351.734375 185.300781 351.730469 187.0625 C 351.726562 187.183594 351.71875 187.332031 351.6875 187.476562 C 351.480469 188.890625 351.269531 190.277344 351.039062 191.6875 C 350.796875 193.292969 350.3125 194.839844 349.535156 196.300781 C 348.84375 197.617188 348.292969 198.992188 347.765625 200.390625 C 347.570312 200.894531 347.425781 201.402344 347.28125 201.933594 C 347.25 202.058594 347.269531 202.203125 347.289062 202.328125 C 347.332031 202.476562 347.472656 202.554688 347.597656 202.488281 C 347.722656 202.445312 347.851562 202.351562 347.902344 202.257812 C 348.140625 201.851562 348.355469 201.445312 348.59375 201.039062 C 349.070312 200.226562 349.800781 199.765625 350.753906 199.808594 C 351.21875 199.828125 351.707031 199.851562 352.175781 199.773438 C 352.867188 199.683594 353.523438 199.832031 354.175781 200.058594 C 354.292969 200.113281 354.414062 200.167969 354.535156 200.246094 C 355.011719 200.535156 355.152344 201.226562 354.835938 201.679688 C 354.707031 201.84375 354.601562 202.011719 354.449219 202.128906 C 353.96875 202.523438 353.488281 202.871094 353.003906 203.265625 C 352.316406 203.824219 351.5625 204.253906 350.785156 204.6875 C 350.359375 204.914062 349.910156 205.066406 349.445312 205.09375 C 349.175781 205.105469 348.90625 205.117188 348.632812 205.15625 C 348.363281 205.167969 348.09375 205.179688 347.824219 205.21875 C 347.230469 205.289062 346.824219 205.613281 346.558594 206.117188 C 346.398438 206.40625 346.285156 206.742188 346.171875 207.054688 C 345.554688 208.867188 345.230469 210.714844 344.902344 212.585938 C 344.601562 214.386719 344.230469 216.183594 343.808594 217.953125 C 343.304688 219.988281 342.847656 222.027344 342.269531 224.035156 C 341.917969 225.269531 341.425781 226.449219 340.667969 227.519531 C 340.171875 228.230469 339.769531 229.023438 339.367188 229.8125 C 339.152344 230.246094 339.011719 230.679688 339.015625 231.167969 C 339.007812 231.367188 338.972656 231.585938 338.9375 231.777344 C 338.910156 231.898438 338.832031 232.019531 338.777344 232.140625 C 338.699219 232.257812 338.59375 232.351562 338.496094 232.421875 C 337.988281 232.816406 337.695312 233.316406 337.496094 233.921875 C 337.296875 234.574219 337.121094 235.203125 337.042969 235.886719 C 336.921875 236.957031 336.777344 238.03125 336.582031 239.097656 C 336.394531 240.046875 336.355469 240.976562 336.335938 241.929688 C 336.332031 242.617188 336.328125 243.277344 336.320312 243.964844 C 336.324219 245.042969 336.300781 246.117188 336.132812 247.1875 C 336.0625 247.652344 335.992188 248.136719 336.09375 248.609375 C 336.117188 248.660156 336.136719 248.734375 336.207031 248.761719 C 336.351562 248.839844 336.476562 248.820312 336.578125 248.679688 C 337.023438 248.085938 337.417969 247.441406 337.882812 246.875 C 338.660156 245.902344 339.671875 245.214844 340.90625 244.972656 C 341.105469 244.933594 341.300781 244.917969 341.5 244.902344 C 341.695312 244.886719 341.914062 244.917969 342.109375 244.953125 C 342.597656 245.023438 342.96875 245.429688 342.972656 245.921875 C 342.976562 246.386719 342.929688 246.875 342.910156 247.339844 C 342.878906 248.050781 342.585938 248.625 342.097656 249.140625 C 341.789062 249.496094 341.429688 249.824219 341.027344 250.050781 C 340.324219 250.460938 339.597656 250.820312 338.828125 251.082031 C 338.253906 251.277344 337.660156 251.445312 337.085938 251.640625 C 336.539062 251.8125 336.179688 252.191406 335.960938 252.742188 C 335.875 253.007812 335.765625 253.25 335.707031 253.515625 C 335.472656 254.363281 335.238281 255.210938 335.054688 256.058594 C 334.84375 256.980469 334.582031 257.902344 334.324219 258.796875 C 334.066406 259.644531 333.855469 260.492188 333.648438 261.339844 C 333.558594 261.726562 333.464844 262.140625 333.449219 262.53125 C 333.425781 263.609375 333.207031 264.675781 333.085938 265.75 C 332.886719 267.480469 332.234375 268.996094 331.144531 270.34375 C 330.082031 271.667969 328.996094 272.945312 327.839844 274.191406 C 326.914062 275.179688 325.871094 276.042969 324.691406 276.726562 C 323.285156 277.519531 321.96875 278.492188 320.675781 279.464844 C 319.863281 280.066406 319.078125 280.71875 318.546875 281.601562 C 318.386719 281.886719 318.0625 282.070312 317.714844 282.152344 C 317.515625 282.191406 317.320312 282.257812 317.121094 282.273438 C 316.703125 282.328125 316.351562 282.507812 316.023438 282.738281 C 315.46875 283.132812 314.980469 283.574219 314.496094 284.070312 C 313.699219 284.890625 312.902344 285.738281 312.105469 286.5625 C 311.261719 287.429688 310.460938 288.351562 309.78125 289.351562 C 309.175781 290.230469 308.503906 291.082031 307.734375 291.855469 C 307.09375 292.464844 306.550781 293.152344 306.027344 293.863281 C 305.691406 294.292969 305.378906 294.71875 304.992188 295.117188 C 304.070312 296.105469 303.097656 297.042969 302.148438 298.007812 C 301.285156 298.65625 300.425781 299.304688 299.5625 299.953125 C 299.511719 300 299.460938 300.042969 299.410156 300.066406 C 298.929688 300.460938 298.402344 300.734375 297.851562 301.003906 C 296.148438 301.8125 294.425781 302.59375 292.566406 303.027344 C 292.246094 303.109375 291.921875 303.21875 291.597656 303.324219 C 291.398438 303.390625 291.203125 303.429688 291.007812 303.445312 C 290.882812 303.464844 290.734375 303.460938 290.617188 303.40625 C 290.46875 303.375 290.402344 303.25 290.359375 303.125 C 290.316406 302.976562 290.347656 302.855469 290.449219 302.761719 C 290.652344 302.574219 290.878906 302.4375 291.148438 302.398438 C 292.015625 302.242188 292.859375 302.007812 293.679688 301.679688 C 294.679688 301.28125 295.675781 300.859375 296.652344 300.410156 C 297.875 299.851562 299.035156 299.144531 300.054688 298.257812 C 300.410156 297.953125 300.789062 297.675781 301.171875 297.375 C 301.601562 297.050781 301.984375 296.675781 302.347656 296.277344 C 302.863281 295.660156 303.429688 295.074219 304.0625 294.539062 C 304.472656 294.1875 304.832031 293.789062 305.144531 293.335938 C 305.378906 293.003906 305.640625 292.695312 305.875 292.363281 C 306.371094 291.625 306.914062 290.964844 307.53125 290.328125 C 308.097656 289.742188 308.613281 289.128906 309.035156 288.410156 C 309.488281 287.648438 310.054688 286.984375 310.671875 286.351562 C 311.699219 285.292969 312.726562 284.210938 313.777344 283.15625 C 314.058594 282.875 314.363281 282.617188 314.691406 282.363281 C 314.945312 282.152344 315.25 281.96875 315.503906 281.761719 C 316.085938 281.296875 316.601562 280.753906 316.996094 280.136719 C 317.101562 279.96875 317.160156 279.75 317.117188 279.554688 C 317.035156 279.230469 316.949219 278.910156 316.867188 278.585938 C 316.65625 277.792969 316.421875 277.023438 316.234375 276.230469 C 316.171875 275.984375 316.136719 275.6875 316.148438 275.417969 C 316.179688 274.734375 316.355469 274.082031 316.699219 273.507812 C 316.882812 273.222656 317.089844 272.960938 317.367188 272.753906 C 317.746094 272.476562 318.171875 272.273438 318.644531 272.148438 C 318.71875 272.125 318.769531 272.128906 318.84375 272.105469 C 319.507812 271.988281 320.417969 272.519531 320.632812 273.164062 C 320.699219 273.363281 320.691406 273.558594 320.707031 273.757812 C 320.699219 273.878906 320.667969 274.023438 320.640625 274.144531 C 320.222656 275.277344 319.996094 276.496094 319.628906 277.652344 C 319.488281 278.015625 319.445312 278.429688 319.378906 278.820312 Z M 349.136719 203.757812 C 349.753906 203.660156 350.277344 203.390625 350.761719 203.019531 C 351.394531 202.53125 352.003906 202.019531 352.570312 201.457031 C 352.59375 201.410156 352.625 201.335938 352.601562 201.261719 C 352.578125 201.210938 352.507812 201.136719 352.484375 201.136719 C 352.09375 201.117188 351.679688 201.097656 351.285156 201.105469 C 350.867188 201.113281 350.515625 201.34375 350.257812 201.648438 C 350.128906 201.789062 350 201.957031 349.894531 202.125 C 349.578125 202.648438 349.308594 203.199219 349.136719 203.757812 Z M 337.984375 249.621094 C 338.050781 249.746094 338.195312 249.804688 338.34375 249.761719 C 339.160156 249.625 339.863281 249.265625 340.519531 248.804688 C 341 248.433594 341.339844 247.933594 341.585938 247.378906 C 341.613281 247.332031 341.617188 247.257812 341.621094 247.183594 C 341.679688 246.917969 341.472656 246.640625 341.226562 246.605469 C 340.886719 246.566406 340.566406 246.601562 340.265625 246.757812 C 340.089844 246.847656 339.914062 246.964844 339.761719 247.078125 C 339.125 247.589844 338.609375 248.179688 338.214844 248.871094 C 338.109375 249.039062 338.050781 249.234375 337.992188 249.402344 C 337.941406 249.5 337.9375 249.570312 337.984375 249.621094 Z M 317.808594 277.230469 C 317.832031 277.28125 317.929688 277.308594 317.976562 277.3125 C 318.027344 277.3125 318.125 277.269531 318.152344 277.222656 C 318.230469 277.101562 318.308594 277.007812 318.339844 276.863281 C 318.578125 275.894531 318.792969 274.898438 319.007812 273.925781 C 319.039062 273.78125 318.996094 273.65625 318.875 273.554688 C 318.78125 273.476562 318.636719 273.445312 318.511719 273.488281 C 318.386719 273.53125 318.261719 273.601562 318.160156 273.695312 C 317.625 274.160156 317.378906 274.761719 317.367188 275.570312 C 317.417969 276.113281 317.464844 276.703125 317.808594 277.230469 Z M 337.910156 225.65625 C 337.839844 225.53125 337.746094 225.453125 337.601562 225.421875 C 337.429688 225.390625 337.179688 225.550781 337.121094 225.722656 C 337.09375 225.84375 337.035156 225.988281 337.03125 226.109375 C 337.042969 226.992188 337.273438 227.835938 337.605469 228.632812 C 337.628906 228.683594 337.699219 228.734375 337.75 228.738281 C 337.871094 228.765625 337.996094 228.722656 338.050781 228.578125 C 338.242188 228.148438 338.308594 227.683594 338.28125 227.21875 C 338.304688 226.679688 338.132812 226.15625 337.910156 225.65625 Z M 337.910156 225.65625 " fill-opacity="1" fill-rule="nonzero"/></g></g></g><g clip-path="url(#d5eecc3ceb)"><g clip-path="url(#ca1f4d7570)"><g transform="matrix(1, 0, 0, 1, 18, 177)"><g clip-path="url(#b2a1427ee0)"><g clip-path="url(#ecc112cadd)"><g clip-path="url(#81ca713649)"><g clip-path="url(#d4ad9c7586)"><path fill="#fcfbf9" d="M 37.335938 101.800781 C 36.742188 101.65625 36.210938 101.339844 35.707031 101.023438 C 34.972656 100.542969 34.238281 100.066406 33.527344 99.535156 C 32.054688 98.480469 30.601562 97.351562 29.382812 95.964844 C 29.019531 95.566406 28.632812 95.191406 28.246094 94.792969 C 27.394531 93.929688 26.664062 92.960938 25.976562 91.9375 C 25.472656 91.203125 25.140625 90.410156 24.925781 89.539062 C 24.742188 88.742188 24.605469 87.960938 24.539062 87.132812 C 24.402344 85.300781 24.09375 83.527344 23.542969 81.765625 C 23.105469 80.339844 22.765625 78.886719 22.425781 77.457031 C 22.273438 76.851562 22.296875 76.261719 22.609375 75.683594 C 22.699219 75.507812 22.761719 75.308594 22.777344 75.113281 C 22.792969 74.914062 22.78125 74.695312 22.726562 74.527344 C 22.667969 74.332031 22.558594 74.167969 22.429688 74.003906 C 22.167969 73.671875 22.003906 73.3125 21.910156 72.925781 C 21.613281 71.8125 21.457031 70.667969 21.523438 69.511719 C 21.53125 69.167969 21.515625 68.828125 21.523438 68.507812 C 21.523438 67.503906 21.5 66.476562 21.328125 65.480469 C 21.257812 65.015625 21.234375 64.527344 21.210938 64.0625 C 21.1875 63.109375 21.117188 62.179688 20.972656 61.230469 C 20.90625 60.84375 20.859375 60.429688 20.839844 60.011719 C 20.820312 59.058594 20.578125 58.140625 20.3125 57.246094 C 20.167969 56.785156 20.023438 56.351562 19.855469 55.894531 C 19.824219 55.773438 19.769531 55.628906 19.761719 55.507812 C 19.726562 54.773438 19.640625 54.019531 19.851562 53.296875 C 19.953125 52.902344 20.035156 52.503906 20.164062 52.128906 C 20.507812 51.15625 20.605469 50.148438 20.777344 49.160156 C 20.910156 48.394531 20.582031 47.699219 20.066406 47.113281 C 19.78125 46.808594 19.382812 46.703125 18.964844 46.675781 C 18.324219 46.609375 17.730469 46.980469 17.511719 47.53125 C 17.402344 47.78125 17.316406 48.03125 17.253906 48.300781 C 17.171875 48.625 17.117188 48.972656 17.035156 49.292969 C 16.992188 49.441406 16.875 49.523438 16.726562 49.480469 C 16.675781 49.457031 16.601562 49.4375 16.550781 49.390625 C 15.921875 48.5625 15.605469 47.597656 15.289062 46.660156 C 15.058594 45.957031 14.921875 45.207031 14.667969 44.507812 C 14.332031 43.617188 14.066406 42.722656 13.921875 41.773438 C 13.847656 41.238281 13.699219 40.707031 13.578125 40.199219 C 13.300781 39.085938 13.074219 37.96875 12.921875 36.824219 C 12.730469 35.414062 12.417969 34.03125 11.960938 32.679688 C 11.730469 31.980469 11.5 31.28125 11.339844 30.53125 C 11.242188 30.042969 11.222656 29.605469 11.394531 29.128906 C 11.589844 28.582031 11.464844 28.074219 11.195312 27.570312 C 11.167969 27.5 11.140625 27.453125 11.089844 27.40625 C 10.667969 26.789062 10.460938 26.0625 10.277344 25.335938 C 10.1875 25 10.148438 24.683594 10.058594 24.34375 C 9.84375 23.496094 9.582031 22.652344 9.203125 21.859375 C 8.710938 20.832031 8.289062 19.75 7.75 18.746094 C 7.320312 17.910156 6.957031 17.019531 6.765625 16.097656 C 6.40625 14.253906 5.921875 12.414062 5.832031 10.507812 C 5.808594 10.089844 5.765625 9.703125 5.722656 9.289062 C 5.582031 8.410156 5.5625 7.53125 5.519531 6.648438 C 5.484375 5.964844 5.476562 5.304688 5.421875 4.621094 C 5.378906 4.28125 5.265625 3.96875 5.152344 3.652344 C 5.121094 3.53125 4.996094 3.441406 4.894531 3.347656 C 4.789062 3.253906 4.640625 3.214844 4.523438 3.292969 C 4.402344 3.347656 4.308594 3.449219 4.242188 3.550781 C 4.171875 3.652344 4.15625 3.800781 4.164062 3.949219 C 4.15625 4.289062 4.171875 4.632812 4.164062 4.953125 C 4.222656 6.714844 4.527344 8.4375 4.542969 10.203125 C 4.546875 10.324219 4.554688 10.472656 4.585938 10.617188 C 4.800781 12.027344 5.015625 13.414062 5.257812 14.824219 C 5.507812 16.429688 6 17.972656 6.78125 19.429688 C 7.480469 20.742188 8.039062 22.113281 8.570312 23.507812 C 8.769531 24.015625 8.914062 24.519531 9.0625 25.054688 C 9.09375 25.175781 9.078125 25.320312 9.058594 25.445312 C 9.015625 25.59375 8.875 25.675781 8.746094 25.609375 C 8.625 25.566406 8.496094 25.472656 8.441406 25.378906 C 8.203125 24.972656 7.984375 24.566406 7.746094 24.160156 C 7.265625 23.351562 6.53125 22.898438 5.578125 22.945312 C 5.113281 22.96875 4.625 22.992188 4.15625 22.914062 C 3.464844 22.828125 2.8125 22.980469 2.160156 23.207031 C 2.042969 23.265625 1.921875 23.320312 1.800781 23.398438 C 1.328125 23.691406 1.1875 24.382812 1.503906 24.832031 C 1.636719 25 1.742188 25.164062 1.894531 25.28125 C 2.378906 25.671875 2.863281 26.015625 3.347656 26.410156 C 4.035156 26.964844 4.792969 27.394531 5.570312 27.820312 C 6 28.046875 6.449219 28.195312 6.914062 28.222656 C 7.183594 28.234375 7.453125 28.242188 7.726562 28.28125 C 7.996094 28.292969 8.265625 28.300781 8.539062 28.339844 C 9.128906 28.40625 9.539062 28.730469 9.808594 29.230469 C 9.96875 29.519531 10.082031 29.855469 10.195312 30.167969 C 10.824219 31.976562 11.15625 33.824219 11.496094 35.691406 C 11.800781 37.492188 12.183594 39.285156 12.613281 41.054688 C 13.128906 43.085938 13.597656 45.125 14.183594 47.128906 C 14.539062 48.363281 15.035156 49.539062 15.800781 50.601562 C 16.300781 51.3125 16.707031 52.101562 17.113281 52.890625 C 17.328125 53.324219 17.472656 53.757812 17.472656 54.246094 C 17.480469 54.441406 17.515625 54.660156 17.550781 54.855469 C 17.582031 54.976562 17.660156 55.09375 17.714844 55.214844 C 17.792969 55.332031 17.898438 55.425781 18 55.496094 C 18.507812 55.886719 18.800781 56.386719 19.003906 56.992188 C 19.207031 57.640625 19.382812 58.269531 19.464844 58.953125 C 19.589844 60.023438 19.742188 61.097656 19.941406 62.164062 C 20.132812 63.109375 20.179688 64.039062 20.203125 64.996094 C 20.210938 65.679688 20.21875 66.339844 20.226562 67.027344 C 20.230469 68.105469 20.257812 69.183594 20.433594 70.253906 C 20.503906 70.714844 20.578125 71.199219 20.476562 71.671875 C 20.457031 71.722656 20.433594 71.796875 20.363281 71.824219 C 20.21875 71.90625 20.097656 71.886719 19.992188 71.742188 C 19.546875 71.152344 19.148438 70.511719 18.679688 69.945312 C 17.894531 68.980469 16.882812 68.292969 15.644531 68.058594 C 15.449219 68.019531 15.25 68.003906 15.054688 67.992188 C 14.859375 67.976562 14.640625 68.011719 14.445312 68.042969 C 13.957031 68.117188 13.585938 68.527344 13.585938 69.019531 C 13.582031 69.484375 13.632812 69.972656 13.652344 70.4375 C 13.6875 71.144531 13.988281 71.71875 14.476562 72.234375 C 14.789062 72.585938 15.148438 72.910156 15.550781 73.136719 C 16.257812 73.542969 16.984375 73.898438 17.757812 74.15625 C 18.328125 74.347656 18.925781 74.515625 19.5 74.707031 C 20.046875 74.878906 20.40625 75.253906 20.628906 75.804688 C 20.71875 76.070312 20.828125 76.308594 20.890625 76.578125 C 21.125 77.421875 21.363281 78.269531 21.550781 79.117188 C 21.769531 80.039062 22.035156 80.957031 22.296875 81.851562 C 22.558594 82.695312 22.773438 83.542969 22.984375 84.390625 C 23.078125 84.777344 23.171875 85.191406 23.191406 85.582031 C 23.21875 86.65625 23.441406 87.726562 23.566406 88.796875 C 23.773438 90.527344 24.4375 92.039062 25.53125 93.382812 C 26.601562 94.703125 27.691406 95.972656 28.855469 97.214844 C 29.785156 98.199219 30.832031 99.054688 32.015625 99.730469 C 33.425781 100.519531 34.75 101.484375 36.046875 102.453125 C 36.859375 103.050781 37.652344 103.695312 38.183594 104.578125 C 38.34375 104.863281 38.671875 105.042969 39.019531 105.125 C 39.21875 105.164062 39.417969 105.226562 39.613281 105.242188 C 40.03125 105.296875 40.382812 105.476562 40.714844 105.703125 C 41.273438 106.09375 41.757812 106.535156 42.25 107.027344 C 43.046875 107.84375 43.847656 108.6875 44.648438 109.507812 C 45.5 110.371094 46.304688 111.289062 46.988281 112.285156 C 47.597656 113.160156 48.273438 114.011719 49.046875 114.78125 C 49.691406 115.386719 50.238281 116.070312 50.761719 116.78125 C 51.101562 117.207031 51.417969 117.632812 51.804688 118.027344 C 52.734375 119.011719 53.710938 119.945312 54.664062 120.902344 C 55.527344 121.546875 56.394531 122.191406 57.257812 122.835938 C 57.308594 122.882812 57.359375 122.929688 57.410156 122.949219 C 57.894531 123.34375 58.421875 123.613281 58.976562 123.878906 C 60.679688 124.679688 62.410156 125.453125 64.269531 125.875 C 64.589844 125.957031 64.914062 126.066406 65.238281 126.171875 C 65.4375 126.234375 65.636719 126.273438 65.832031 126.289062 C 65.957031 126.308594 66.101562 126.300781 66.222656 126.246094 C 66.367188 126.214844 66.433594 126.089844 66.476562 125.964844 C 66.519531 125.816406 66.488281 125.695312 66.386719 125.601562 C 66.179688 125.414062 65.953125 125.277344 65.683594 125.242188 C 64.816406 125.089844 63.972656 124.859375 63.148438 124.535156 C 62.148438 124.140625 61.148438 123.722656 60.171875 123.28125 C 58.945312 122.730469 57.78125 122.027344 56.757812 121.144531 C 56.402344 120.84375 56.019531 120.566406 55.636719 120.269531 C 55.207031 119.945312 54.820312 119.574219 54.457031 119.171875 C 53.9375 118.5625 53.371094 117.976562 52.730469 117.445312 C 52.320312 117.097656 51.960938 116.699219 51.644531 116.246094 C 51.40625 115.917969 51.144531 115.609375 50.910156 115.277344 C 50.410156 114.542969 49.863281 113.882812 49.242188 113.253906 C 48.675781 112.667969 48.15625 112.054688 47.726562 111.339844 C 47.273438 110.578125 46.703125 109.921875 46.082031 109.289062 C 45.050781 108.238281 44.019531 107.160156 42.964844 106.109375 C 42.679688 105.828125 42.375 105.574219 42.042969 105.320312 C 41.789062 105.113281 41.484375 104.929688 41.230469 104.722656 C 40.644531 104.261719 40.128906 103.722656 39.730469 103.105469 C 39.625 102.9375 39.5625 102.722656 39.601562 102.523438 C 39.683594 102.199219 39.765625 101.878906 39.851562 101.554688 C 40.054688 100.761719 40.289062 99.988281 40.46875 99.195312 C 40.53125 98.949219 40.566406 98.652344 40.554688 98.382812 C 40.519531 97.699219 40.339844 97.046875 39.992188 96.476562 C 39.808594 96.191406 39.601562 95.929688 39.320312 95.722656 C 38.9375 95.449219 38.511719 95.25 38.042969 95.125 C 37.964844 95.105469 37.917969 95.105469 37.84375 95.085938 C 37.175781 94.972656 36.269531 95.503906 36.058594 96.152344 C 35.992188 96.351562 36.003906 96.546875 35.988281 96.746094 C 35.996094 96.867188 36.027344 97.011719 36.054688 97.132812 C 36.480469 98.265625 36.710938 99.476562 37.085938 100.636719 C 37.226562 100.996094 37.269531 101.410156 37.335938 101.800781 Z M 7.21875 26.882812 C 6.601562 26.789062 6.070312 26.523438 5.589844 26.152344 C 4.953125 25.671875 4.339844 25.160156 3.773438 24.601562 C 3.746094 24.554688 3.71875 24.480469 3.738281 24.40625 C 3.761719 24.355469 3.832031 24.277344 3.855469 24.277344 C 4.246094 24.257812 4.660156 24.238281 5.054688 24.242188 C 5.472656 24.25 5.824219 24.476562 6.085938 24.78125 C 6.214844 24.921875 6.34375 25.085938 6.453125 25.253906 C 6.769531 25.777344 7.042969 26.328125 7.21875 26.882812 Z M 18.59375 72.695312 C 18.523438 72.820312 18.378906 72.875 18.230469 72.835938 C 17.417969 72.703125 16.710938 72.34375 16.054688 71.886719 C 15.570312 71.519531 15.226562 71.019531 14.980469 70.46875 C 14.953125 70.421875 14.949219 70.347656 14.945312 70.273438 C 14.882812 70.007812 15.089844 69.726562 15.332031 69.691406 C 15.675781 69.652344 15.996094 69.683594 16.296875 69.839844 C 16.472656 69.929688 16.648438 70.042969 16.800781 70.160156 C 17.441406 70.667969 17.957031 71.253906 18.359375 71.945312 C 18.464844 72.113281 18.523438 72.304688 18.582031 72.472656 C 18.636719 72.570312 18.636719 72.644531 18.59375 72.695312 Z M 38.902344 100.203125 C 38.878906 100.253906 38.78125 100.285156 38.734375 100.285156 C 38.683594 100.289062 38.585938 100.246094 38.558594 100.195312 C 38.480469 100.078125 38.402344 99.984375 38.371094 99.839844 C 38.125 98.871094 37.90625 97.875 37.6875 96.90625 C 37.65625 96.761719 37.699219 96.636719 37.816406 96.53125 C 37.910156 96.453125 38.054688 96.421875 38.179688 96.464844 C 38.304688 96.507812 38.429688 96.578125 38.535156 96.667969 C 39.070312 97.132812 39.320312 97.734375 39.335938 98.542969 C 39.289062 99.082031 39.242188 99.671875 38.902344 100.203125 Z M 18.550781 48.730469 C 18.617188 48.601562 18.710938 48.527344 18.859375 48.492188 C 19.027344 48.460938 19.28125 48.621094 19.335938 48.789062 C 19.367188 48.910156 19.425781 49.054688 19.429688 49.175781 C 19.425781 50.058594 19.195312 50.902344 18.867188 51.703125 C 18.84375 51.753906 18.773438 51.804688 18.726562 51.808594 C 18.605469 51.839844 18.480469 51.796875 18.421875 51.652344 C 18.230469 51.21875 18.160156 50.757812 18.1875 50.292969 C 18.160156 49.753906 18.328125 49.230469 18.550781 48.730469 Z M 18.550781 48.730469 " fill-opacity="1" fill-rule="nonzero"/></g></g></g></g></g></g></g><g fill="#fcfbf9" fill-opacity="1"><g transform="translate(38.366543, 149.129436)"><g><path d="M 0.859375 -2.625 L -18.046875 -8.828125 C -17.953125 -9.097656 -17.832031 -9.46875 -17.6875 -9.9375 C -17.550781 -10.40625 -17.394531 -10.898438 -17.21875 -11.421875 C -17.050781 -11.953125 -16.890625 -12.46875 -16.734375 -12.96875 C -16.578125 -13.476562 -16.445312 -13.894531 -16.34375 -14.21875 C -15.882812 -15.601562 -15.328125 -16.707031 -14.671875 -17.53125 C -14.023438 -18.363281 -13.328125 -18.96875 -12.578125 -19.34375 C -11.828125 -19.726562 -11.046875 -19.921875 -10.234375 -19.921875 C -9.421875 -19.929688 -8.628906 -19.8125 -7.859375 -19.5625 C -7.046875 -19.289062 -6.316406 -18.882812 -5.671875 -18.34375 C -5.035156 -17.8125 -4.53125 -17.15625 -4.15625 -16.375 C -3.78125 -15.601562 -3.566406 -14.734375 -3.515625 -13.765625 C -3.460938 -12.804688 -3.625 -11.757812 -4 -10.625 C -4.09375 -10.332031 -4.21875 -9.953125 -4.375 -9.484375 C -4.539062 -9.015625 -4.707031 -8.578125 -4.875 -8.171875 L 1.953125 -5.9375 Z M -13.125 -13.53125 C -13.238281 -13.1875 -13.359375 -12.816406 -13.484375 -12.421875 C -13.609375 -12.023438 -13.734375 -11.59375 -13.859375 -11.125 L -8.03125 -9.21875 C -7.882812 -9.601562 -7.726562 -9.988281 -7.5625 -10.375 C -7.40625 -10.769531 -7.265625 -11.15625 -7.140625 -11.53125 C -6.972656 -12.019531 -6.878906 -12.492188 -6.859375 -12.953125 C -6.835938 -13.421875 -6.898438 -13.851562 -7.046875 -14.25 C -7.191406 -14.65625 -7.425781 -15.007812 -7.75 -15.3125 C -8.082031 -15.625 -8.515625 -15.863281 -9.046875 -16.03125 C -10.035156 -16.351562 -10.867188 -16.296875 -11.546875 -15.859375 C -12.234375 -15.429688 -12.757812 -14.65625 -13.125 -13.53125 Z M -13.125 -13.53125 "/></g></g></g><g fill="#fcfbf9" fill-opacity="1"><g transform="translate(48.563809, 121.747195)"><g><path d="M -16.109375 -12.015625 L -10.546875 -22.109375 L -7.6875 -20.546875 L -11.5625 -13.5 L -7.21875 -11.109375 L -3.765625 -17.390625 L -0.90625 -15.8125 L -4.359375 -9.53125 L 0.15625 -7.046875 L 4.171875 -14.328125 L 7.03125 -12.75 L 1.328125 -2.421875 Z M -16.109375 -12.015625 "/></g></g></g><g fill="#fcfbf9" fill-opacity="1"><g transform="translate(62.849697, 97.55433)"><g><path d="M -6.734375 -7.4375 C -7.828125 -8.375 -8.6875 -9.441406 -9.3125 -10.640625 C -9.9375 -11.835938 -10.300781 -13.078125 -10.40625 -14.359375 C -10.507812 -15.648438 -10.347656 -16.953125 -9.921875 -18.265625 C -9.503906 -19.578125 -8.796875 -20.8125 -7.796875 -21.96875 C -6.835938 -23.09375 -5.753906 -23.976562 -4.546875 -24.625 C -3.347656 -25.269531 -2.109375 -25.648438 -0.828125 -25.765625 C 0.441406 -25.890625 1.726562 -25.742188 3.03125 -25.328125 C 4.332031 -24.910156 5.570312 -24.195312 6.75 -23.1875 C 7.882812 -22.21875 8.753906 -21.125 9.359375 -19.90625 C 9.972656 -18.695312 10.328125 -17.441406 10.421875 -16.140625 C 10.515625 -14.847656 10.335938 -13.550781 9.890625 -12.25 C 9.453125 -10.957031 8.753906 -9.75 7.796875 -8.625 C 6.828125 -7.5 5.75 -6.613281 4.5625 -5.96875 C 3.382812 -5.320312 2.148438 -4.941406 0.859375 -4.828125 C -0.429688 -4.710938 -1.722656 -4.863281 -3.015625 -5.28125 C -4.316406 -5.707031 -5.554688 -6.425781 -6.734375 -7.4375 Z M -4.328125 -10.25 C -3.566406 -9.601562 -2.75 -9.128906 -1.875 -8.828125 C -1 -8.535156 -0.132812 -8.410156 0.71875 -8.453125 C 1.582031 -8.503906 2.410156 -8.722656 3.203125 -9.109375 C 4.003906 -9.503906 4.707031 -10.050781 5.3125 -10.75 C 5.988281 -11.539062 6.457031 -12.367188 6.71875 -13.234375 C 6.988281 -14.097656 7.070312 -14.953125 6.96875 -15.796875 C 6.863281 -16.640625 6.585938 -17.453125 6.140625 -18.234375 C 5.691406 -19.015625 5.09375 -19.726562 4.34375 -20.375 C 3.570312 -21.039062 2.75 -21.523438 1.875 -21.828125 C 1 -22.140625 0.128906 -22.265625 -0.734375 -22.203125 C -1.597656 -22.140625 -2.425781 -21.910156 -3.21875 -21.515625 C -4.007812 -21.128906 -4.707031 -20.578125 -5.3125 -19.859375 C -5.925781 -19.140625 -6.367188 -18.359375 -6.640625 -17.515625 C -6.910156 -16.679688 -7.003906 -15.832031 -6.921875 -14.96875 C -6.847656 -14.113281 -6.585938 -13.28125 -6.140625 -12.46875 C -5.703125 -11.65625 -5.097656 -10.914062 -4.328125 -10.25 Z M -4.328125 -10.25 "/></g></g></g><g fill="#fcfbf9" fill-opacity="1"><g transform="translate(86.551031, 71.937523)"><g><path d="M 13.640625 -10.125 L -3.390625 -14.671875 L 4.84375 -3.59375 L 2.21875 -1.65625 L -9.65625 -17.640625 L -7.421875 -19.296875 L 9.640625 -14.703125 L 1.375 -25.828125 L 3.984375 -27.765625 L 15.859375 -11.78125 Z M 13.640625 -10.125 "/></g></g></g><g fill="#fcfbf9" fill-opacity="1"><g transform="translate(114.853687, 52.717913)"><g><path d="M 6.21875 -12 L 9.6875 -4.46875 L 6.515625 -3 L 3.046875 -10.53125 L -8.203125 -18.140625 L -4.578125 -19.8125 L 3.40625 -14.3125 L 4.359375 -23.921875 L 7.796875 -25.5 Z M 6.21875 -12 "/></g></g></g><g fill="#fcfbf9" fill-opacity="1"><g transform="translate(142.529084, 41.495512)"><g/></g></g><g fill="#fcfbf9" fill-opacity="1"><g transform="translate(159.935135, 36.923997)"><g><path d="M 14.34375 -10.125 L 5.296875 -9.140625 L 6.21875 -0.6875 L 2.75 -0.296875 L 0.578125 -20.078125 L 4.046875 -20.46875 L 4.9375 -12.390625 L 13.984375 -13.375 L 13.09375 -21.453125 L 16.546875 -21.828125 L 18.71875 -2.046875 L 15.265625 -1.671875 Z M 14.34375 -10.125 "/></g></g></g><g fill="#fcfbf9" fill-opacity="1"><g transform="translate(193.066886, 34.490115)"><g><path d="M 2.375 -9.75 C 2.53125 -11.175781 2.925781 -12.484375 3.5625 -13.671875 C 4.207031 -14.867188 5.035156 -15.875 6.046875 -16.6875 C 7.054688 -17.5 8.21875 -18.09375 9.53125 -18.46875 C 10.851562 -18.851562 12.273438 -18.960938 13.796875 -18.796875 C 15.265625 -18.628906 16.601562 -18.226562 17.8125 -17.59375 C 19.03125 -16.96875 20.046875 -16.160156 20.859375 -15.171875 C 21.679688 -14.179688 22.285156 -13.03125 22.671875 -11.71875 C 23.054688 -10.40625 23.160156 -8.976562 22.984375 -7.4375 C 22.828125 -6.03125 22.441406 -4.75 21.828125 -3.59375 C 21.210938 -2.445312 20.425781 -1.472656 19.46875 -0.671875 L 21.578125 2.421875 L 17.546875 1.96875 L 16.828125 0.9375 C 15.234375 1.601562 13.460938 1.828125 11.515625 1.609375 C 10.046875 1.441406 8.710938 1.046875 7.515625 0.421875 C 6.316406 -0.203125 5.304688 -1.007812 4.484375 -2 C 3.660156 -3 3.054688 -4.15625 2.671875 -5.46875 C 2.296875 -6.78125 2.195312 -8.207031 2.375 -9.75 Z M 6.0625 -9.328125 C 5.945312 -8.335938 6.007812 -7.398438 6.25 -6.515625 C 6.5 -5.628906 6.882812 -4.835938 7.40625 -4.140625 C 7.9375 -3.453125 8.582031 -2.890625 9.34375 -2.453125 C 10.113281 -2.015625 10.957031 -1.742188 11.875 -1.640625 C 12.9375 -1.523438 13.953125 -1.625 14.921875 -1.9375 L 13.484375 -4.078125 L 15.96875 -5.84375 L 17.484375 -3.59375 C 17.984375 -4.132812 18.390625 -4.765625 18.703125 -5.484375 C 19.015625 -6.210938 19.21875 -7 19.3125 -7.84375 C 19.425781 -8.851562 19.359375 -9.804688 19.109375 -10.703125 C 18.867188 -11.609375 18.484375 -12.398438 17.953125 -13.078125 C 17.421875 -13.765625 16.769531 -14.320312 16 -14.75 C 15.226562 -15.175781 14.375 -15.441406 13.4375 -15.546875 C 12.5 -15.648438 11.609375 -15.578125 10.765625 -15.328125 C 9.921875 -15.085938 9.164062 -14.691406 8.5 -14.140625 C 7.832031 -13.585938 7.285156 -12.898438 6.859375 -12.078125 C 6.441406 -11.253906 6.175781 -10.335938 6.0625 -9.328125 Z M 6.0625 -9.328125 "/></g></g></g><g fill="#fcfbf9" fill-opacity="1"><g transform="translate(227.756795, 40.159803)"><g/></g></g><g fill="#fcfbf9" fill-opacity="1"><g transform="translate(244.939514, 45.629417)"><g><path d="M 11.046875 -16.796875 L 14.1875 -15.296875 L 10.140625 -6.765625 L 21.296875 -11.9375 L 25.09375 -10.125 L 13.703125 -5.265625 L 17 8.078125 L 13 6.171875 L 10.046875 -6.578125 L 5.640625 2.6875 L 2.5 1.1875 Z M 11.046875 -16.796875 "/></g></g></g><g fill="#fcfbf9" fill-opacity="1"><g transform="translate(272.277619, 60.015168)"><g><path d="M 14.03125 -14.390625 L 23.3125 -7.5625 L 21.375 -4.921875 L 14.90625 -9.6875 L 11.96875 -5.703125 L 17.75 -1.4375 L 15.8125 1.1875 L 10.03125 -3.078125 L 6.96875 1.078125 L 13.65625 6.015625 L 11.71875 8.640625 L 2.21875 1.640625 Z M 14.03125 -14.390625 "/></g></g></g><g fill="#fcfbf9" fill-opacity="1"><g transform="translate(294.371561, 77.384205)"><g><path d="M 11.375 12.625 L 14.28125 -4.75 L 4.03125 4.484375 L 1.84375 2.046875 L 16.625 -11.28125 L 18.5 -9.203125 L 15.546875 8.1875 L 25.828125 -1.078125 L 28.015625 1.359375 L 13.234375 14.6875 Z M 11.375 12.625 "/></g></g></g><g fill="#fcfbf9" fill-opacity="1"><g transform="translate(316.173435, 103.749499)"><g><path d="M 12.53125 5.0625 L 5.359375 9.234375 L 3.609375 6.203125 L 10.78125 2.03125 L 17.296875 -9.875 L 19.296875 -6.4375 L 14.578125 2.03125 L 24.234375 2.078125 L 26.140625 5.34375 Z M 12.53125 5.0625 "/></g></g></g><g fill="#fcfbf9" fill-opacity="1"><g transform="translate(330.146053, 129.882894)"><g><path d="M 21.6875 1.765625 L 22.671875 4.6875 L 6.4375 19.046875 L 5.25 15.515625 L 9.40625 11.921875 L 6.6875 3.859375 L 1.1875 3.515625 L 0.0625 0.1875 Z M 10.203125 4.09375 L 12.078125 9.609375 L 17.84375 4.578125 Z M 10.203125 4.09375 "/></g></g></g><g fill="#fcfbf9" fill-opacity="1"><g transform="translate(112.766893, 333.185959)"><g><path d="M 2.59375 1.875 C 2.34375 2.238281 2.066406 2.554688 1.765625 2.828125 C 1.460938 3.097656 1.132812 3.300781 0.78125 3.4375 C 0.425781 3.582031 0.0546875 3.648438 -0.328125 3.640625 C -0.722656 3.628906 -1.144531 3.519531 -1.59375 3.3125 C -1.96875 3.125 -2.28125 2.910156 -2.53125 2.671875 C -2.789062 2.441406 -2.972656 2.210938 -3.078125 1.984375 L -1.640625 0.890625 C -1.566406 1.015625 -1.46875 1.132812 -1.34375 1.25 C -1.226562 1.363281 -1.085938 1.457031 -0.921875 1.53125 C -0.554688 1.707031 -0.226562 1.726562 0.0625 1.59375 C 0.363281 1.457031 0.628906 1.207031 0.859375 0.84375 L 5.796875 -6.0625 L 7.625 -5.1875 Z M 7.375 -8.65625 C 7.53125 -8.976562 7.753906 -9.179688 8.046875 -9.265625 C 8.347656 -9.359375 8.644531 -9.335938 8.9375 -9.203125 C 9.226562 -9.066406 9.4375 -8.851562 9.5625 -8.5625 C 9.695312 -8.269531 9.6875 -7.960938 9.53125 -7.640625 C 9.351562 -7.265625 9.109375 -7.03125 8.796875 -6.9375 C 8.484375 -6.851562 8.179688 -6.878906 7.890625 -7.015625 C 7.597656 -7.148438 7.394531 -7.363281 7.28125 -7.65625 C 7.164062 -7.945312 7.195312 -8.28125 7.375 -8.65625 Z M 7.375 -8.65625 "/></g></g></g><g fill="#fcfbf9" fill-opacity="1"><g transform="translate(127.122683, 339.487934)"><g><path d="M 7.9375 1.484375 C 7.425781 1.703125 6.847656 1.847656 6.203125 1.921875 C 5.554688 2.003906 4.882812 1.921875 4.1875 1.671875 C 3.664062 1.484375 3.226562 1.242188 2.875 0.953125 C 2.519531 0.660156 2.253906 0.328125 2.078125 -0.046875 C 1.898438 -0.421875 1.8125 -0.8125 1.8125 -1.21875 C 1.8125 -1.625 1.882812 -2.039062 2.03125 -2.46875 C 2.25 -3.082031 2.566406 -3.644531 2.984375 -4.15625 C 3.410156 -4.664062 3.898438 -5.070312 4.453125 -5.375 C 5.003906 -5.6875 5.613281 -5.875 6.28125 -5.9375 C 6.957031 -6.007812 7.65625 -5.921875 8.375 -5.671875 C 9.21875 -5.367188 9.789062 -4.972656 10.09375 -4.484375 C 10.394531 -4.003906 10.425781 -3.453125 10.1875 -2.828125 C 9.875 -1.941406 9.171875 -1.421875 8.078125 -1.265625 C 6.992188 -1.117188 5.617188 -1.289062 3.953125 -1.78125 C 3.804688 -1.300781 3.835938 -0.890625 4.046875 -0.546875 C 4.265625 -0.210938 4.617188 0.0351562 5.109375 0.203125 C 5.523438 0.347656 5.941406 0.394531 6.359375 0.34375 C 6.773438 0.300781 7.15625 0.226562 7.5 0.125 Z M 7.625 -4.109375 C 7.3125 -4.210938 7.003906 -4.257812 6.703125 -4.25 C 6.410156 -4.238281 6.125 -4.175781 5.84375 -4.0625 C 5.570312 -3.945312 5.320312 -3.796875 5.09375 -3.609375 C 4.863281 -3.429688 4.664062 -3.21875 4.5 -2.96875 C 5.5625 -2.65625 6.40625 -2.515625 7.03125 -2.546875 C 7.65625 -2.585938 8.035156 -2.796875 8.171875 -3.171875 C 8.253906 -3.390625 8.238281 -3.578125 8.125 -3.734375 C 8.019531 -3.898438 7.851562 -4.023438 7.625 -4.109375 Z M 7.625 -4.109375 "/></g></g></g><g fill="#fcfbf9" fill-opacity="1"><g transform="translate(145.812272, 345.466253)"><g><path d="M 13.90625 -5.109375 C 13.65625 -4.367188 13.335938 -3.644531 12.953125 -2.9375 C 12.566406 -2.226562 12.132812 -1.566406 11.65625 -0.953125 C 11.175781 -0.347656 10.664062 0.195312 10.125 0.6875 C 9.582031 1.1875 9.039062 1.601562 8.5 1.9375 L 7 1.609375 C 7.082031 0.890625 7.148438 0.21875 7.203125 -0.40625 C 7.265625 -1.03125 7.3125 -1.644531 7.34375 -2.25 C 6.894531 -1.570312 6.378906 -0.953125 5.796875 -0.390625 C 5.222656 0.160156 4.644531 0.613281 4.0625 0.96875 L 2.53125 0.625 C 2.582031 -0.0625 2.625 -0.734375 2.65625 -1.390625 C 2.695312 -2.046875 2.71875 -2.695312 2.71875 -3.34375 C 2.726562 -4 2.726562 -4.671875 2.71875 -5.359375 C 2.707031 -6.054688 2.691406 -6.785156 2.671875 -7.546875 L 4.828125 -7.078125 C 4.847656 -6.085938 4.835938 -5.113281 4.796875 -4.15625 C 4.765625 -3.195312 4.695312 -2.320312 4.59375 -1.53125 C 5.15625 -2.070312 5.640625 -2.65625 6.046875 -3.28125 C 6.453125 -3.914062 6.804688 -4.5625 7.109375 -5.21875 C 7.097656 -5.445312 7.082031 -5.675781 7.0625 -5.90625 C 7.039062 -6.132812 7.019531 -6.367188 7 -6.609375 L 9.15625 -6.140625 C 9.1875 -5.640625 9.195312 -5.144531 9.1875 -4.65625 C 9.1875 -4.164062 9.164062 -3.679688 9.125 -3.203125 C 9.09375 -2.734375 9.050781 -2.273438 9 -1.828125 C 8.945312 -1.390625 8.898438 -0.984375 8.859375 -0.609375 C 9.597656 -1.316406 10.210938 -2.113281 10.703125 -3 C 11.203125 -3.882812 11.5625 -4.742188 11.78125 -5.578125 Z M 13.90625 -5.109375 "/></g></g></g><g fill="#fcfbf9" fill-opacity="1"><g transform="translate(168.481766, 349.568627)"><g><path d="M 8.046875 -0.546875 C 7.617188 -0.191406 7.101562 0.0976562 6.5 0.328125 C 5.894531 0.566406 5.222656 0.648438 4.484375 0.578125 C 3.921875 0.535156 3.429688 0.410156 3.015625 0.203125 C 2.609375 0.00390625 2.273438 -0.25 2.015625 -0.5625 C 1.753906 -0.875 1.566406 -1.226562 1.453125 -1.625 C 1.347656 -2.019531 1.316406 -2.441406 1.359375 -2.890625 C 1.410156 -3.546875 1.578125 -4.171875 1.859375 -4.765625 C 2.140625 -5.367188 2.507812 -5.890625 2.96875 -6.328125 C 3.425781 -6.765625 3.972656 -7.097656 4.609375 -7.328125 C 5.242188 -7.566406 5.941406 -7.648438 6.703125 -7.578125 C 7.585938 -7.503906 8.238281 -7.265625 8.65625 -6.859375 C 9.070312 -6.460938 9.242188 -5.929688 9.171875 -5.265625 C 9.085938 -4.335938 8.535156 -3.660156 7.515625 -3.234375 C 6.503906 -2.816406 5.125 -2.640625 3.375 -2.703125 C 3.363281 -2.203125 3.503906 -1.816406 3.796875 -1.546875 C 4.085938 -1.285156 4.492188 -1.128906 5.015625 -1.078125 C 5.453125 -1.046875 5.863281 -1.101562 6.25 -1.25 C 6.644531 -1.394531 6.988281 -1.5625 7.28125 -1.75 Z M 6.359375 -5.859375 C 6.035156 -5.890625 5.726562 -5.863281 5.4375 -5.78125 C 5.144531 -5.695312 4.878906 -5.566406 4.640625 -5.390625 C 4.410156 -5.210938 4.207031 -5.003906 4.03125 -4.765625 C 3.851562 -4.535156 3.710938 -4.28125 3.609375 -4 C 4.722656 -3.957031 5.578125 -4.035156 6.171875 -4.234375 C 6.765625 -4.429688 7.078125 -4.726562 7.109375 -5.125 C 7.140625 -5.332031 7.082031 -5.5 6.9375 -5.625 C 6.789062 -5.757812 6.597656 -5.835938 6.359375 -5.859375 Z M 6.359375 -5.859375 "/></g></g></g><g fill="#fcfbf9" fill-opacity="1"><g transform="translate(187.97852, 350.619093)"><g><path d="M 2.875 -12.40625 L 4.890625 -12.453125 L 3.34375 -2.859375 C 3.320312 -2.734375 3.3125 -2.648438 3.3125 -2.609375 C 3.257812 -2.054688 3.46875 -1.78125 3.9375 -1.78125 C 4.09375 -1.789062 4.253906 -1.820312 4.421875 -1.875 C 4.597656 -1.9375 4.742188 -2 4.859375 -2.0625 L 5.125 -0.46875 C 4.914062 -0.320312 4.632812 -0.1875 4.28125 -0.0625 C 3.925781 0.0507812 3.554688 0.109375 3.171875 0.109375 C 2.617188 0.117188 2.175781 -0.00390625 1.84375 -0.265625 C 1.519531 -0.523438 1.320312 -0.925781 1.25 -1.46875 C 1.21875 -1.84375 1.234375 -2.210938 1.296875 -2.578125 Z M 2.875 -12.40625 "/></g></g></g><g fill="#fcfbf9" fill-opacity="1"><g transform="translate(204.144692, 349.813393)"><g><path d="M 1.6875 -12.625 L 3.6875 -12.859375 L 3.0625 -3.15625 C 3.050781 -3.03125 3.050781 -2.945312 3.0625 -2.90625 C 3.0625 -2.351562 3.289062 -2.101562 3.75 -2.15625 C 3.90625 -2.164062 4.0625 -2.207031 4.21875 -2.28125 C 4.382812 -2.363281 4.523438 -2.441406 4.640625 -2.515625 L 5.046875 -0.953125 C 4.859375 -0.796875 4.59375 -0.640625 4.25 -0.484375 C 3.90625 -0.328125 3.546875 -0.226562 3.171875 -0.1875 C 2.617188 -0.125 2.164062 -0.207031 1.8125 -0.4375 C 1.457031 -0.664062 1.222656 -1.046875 1.109375 -1.578125 C 1.023438 -1.953125 1.003906 -2.328125 1.046875 -2.703125 Z M 1.6875 -12.625 "/></g></g></g><g fill="#fcfbf9" fill-opacity="1"><g transform="translate(220.209503, 347.492322)"><g><path d="M 7.515625 -2.9375 C 7.210938 -2.476562 6.804688 -2.046875 6.296875 -1.640625 C 5.785156 -1.234375 5.171875 -0.953125 4.453125 -0.796875 C 3.898438 -0.671875 3.394531 -0.640625 2.9375 -0.703125 C 2.488281 -0.773438 2.09375 -0.921875 1.75 -1.140625 C 1.40625 -1.359375 1.117188 -1.640625 0.890625 -1.984375 C 0.671875 -2.328125 0.507812 -2.71875 0.40625 -3.15625 C 0.269531 -3.800781 0.242188 -4.445312 0.328125 -5.09375 C 0.410156 -5.75 0.601562 -6.359375 0.90625 -6.921875 C 1.21875 -7.484375 1.640625 -7.96875 2.171875 -8.375 C 2.710938 -8.789062 3.351562 -9.082031 4.09375 -9.25 C 4.96875 -9.445312 5.660156 -9.414062 6.171875 -9.15625 C 6.691406 -8.894531 7.019531 -8.441406 7.15625 -7.796875 C 7.351562 -6.878906 7.03125 -6.066406 6.1875 -5.359375 C 5.34375 -4.648438 4.078125 -4.0625 2.390625 -3.59375 C 2.535156 -3.125 2.785156 -2.800781 3.140625 -2.625 C 3.503906 -2.457031 3.941406 -2.429688 4.453125 -2.546875 C 4.878906 -2.640625 5.253906 -2.816406 5.578125 -3.078125 C 5.910156 -3.347656 6.191406 -3.613281 6.421875 -3.875 Z M 4.28125 -7.515625 C 3.96875 -7.441406 3.6875 -7.320312 3.4375 -7.15625 C 3.1875 -6.988281 2.972656 -6.785156 2.796875 -6.546875 C 2.628906 -6.304688 2.492188 -6.046875 2.390625 -5.765625 C 2.296875 -5.492188 2.242188 -5.203125 2.234375 -4.890625 C 3.304688 -5.191406 4.097656 -5.523438 4.609375 -5.890625 C 5.117188 -6.253906 5.332031 -6.628906 5.25 -7.015625 C 5.207031 -7.242188 5.097656 -7.394531 4.921875 -7.46875 C 4.742188 -7.550781 4.53125 -7.566406 4.28125 -7.515625 Z M 4.28125 -7.515625 "/></g></g></g><g fill="#fcfbf9" fill-opacity="1"><g transform="translate(239.131804, 342.615015)"><g><path d="M -0.328125 -8.296875 L 1.578125 -8.9375 L 1.84375 -7.25 C 1.90625 -7.507812 1.988281 -7.773438 2.09375 -8.046875 C 2.195312 -8.316406 2.320312 -8.566406 2.46875 -8.796875 C 2.613281 -9.035156 2.789062 -9.25 3 -9.4375 C 3.207031 -9.625 3.445312 -9.765625 3.71875 -9.859375 C 3.894531 -9.910156 4.054688 -9.9375 4.203125 -9.9375 C 4.359375 -9.9375 4.492188 -9.921875 4.609375 -9.890625 L 4.234375 -7.84375 C 4.035156 -7.894531 3.832031 -7.882812 3.625 -7.8125 C 3.382812 -7.726562 3.179688 -7.5625 3.015625 -7.3125 C 2.847656 -7.0625 2.710938 -6.765625 2.609375 -6.421875 C 2.515625 -6.085938 2.441406 -5.734375 2.390625 -5.359375 C 2.347656 -4.984375 2.320312 -4.640625 2.3125 -4.328125 L 2.84375 -0.96875 L 0.953125 -0.328125 Z M -0.328125 -8.296875 "/></g></g></g><g fill="#fcfbf9" fill-opacity="1"><g transform="translate(255.373859, 336.520869)"><g><path d="M 4.28125 -10.75 C 4.59375 -9.164062 4.816406 -7.640625 4.953125 -6.171875 C 5.085938 -4.703125 5.101562 -3.367188 5 -2.171875 C 4.90625 -0.984375 4.6875 0.0234375 4.34375 0.859375 C 4 1.703125 3.503906 2.269531 2.859375 2.5625 C 2.515625 2.71875 2.191406 2.804688 1.890625 2.828125 C 1.597656 2.847656 1.316406 2.8125 1.046875 2.71875 L 1.234375 0.953125 C 1.367188 0.960938 1.503906 0.96875 1.640625 0.96875 C 1.785156 0.96875 1.9375 0.929688 2.09375 0.859375 C 2.445312 0.691406 2.6875 0.398438 2.8125 -0.015625 C 2.9375 -0.441406 3.015625 -0.894531 3.046875 -1.375 C 2.734375 -1.820312 2.359375 -2.300781 1.921875 -2.8125 C 1.492188 -3.332031 1.03125 -3.859375 0.53125 -4.390625 C 0.03125 -4.929688 -0.484375 -5.46875 -1.015625 -6 C -1.554688 -6.53125 -2.097656 -7.046875 -2.640625 -7.546875 L -0.578125 -8.5 C -0.296875 -8.25 0.015625 -7.945312 0.359375 -7.59375 C 0.703125 -7.25 1.046875 -6.882812 1.390625 -6.5 C 1.734375 -6.113281 2.070312 -5.722656 2.40625 -5.328125 C 2.738281 -4.941406 3.03125 -4.570312 3.28125 -4.21875 C 3.257812 -4.613281 3.222656 -5.046875 3.171875 -5.515625 C 3.128906 -5.984375 3.066406 -6.46875 2.984375 -6.96875 C 2.898438 -7.46875 2.800781 -7.957031 2.6875 -8.4375 C 2.582031 -8.925781 2.46875 -9.398438 2.34375 -9.859375 Z M 4.28125 -10.75 "/></g></g></g><path fill="#f8dae2" d="M 136.488281 156.886719 C 130.546875 158.164062 125.710938 157.785156 122.023438 155.742188 C 115.703125 152.234375 113.039062 143.84375 114.105469 130.800781 C 115.148438 117.992188 119.578125 109.707031 127.269531 106.175781 C 135.277344 102.503906 146.523438 103.953125 160.703125 110.496094 C 171.207031 115.339844 179.496094 121.335938 179.578125 121.398438 L 179.867188 121.605469 L 179.761719 121.949219 C 177.066406 130.652344 181.769531 132.824219 181.972656 132.914062 L 184.957031 134.21875 L 181.722656 133.867188 C 180.027344 133.679688 177.300781 134.792969 173.835938 137.085938 C 171.164062 138.851562 169 140.703125 168.976562 140.722656 L 168.949219 140.742188 C 168.871094 140.800781 160.96875 146.652344 151.328125 151.402344 C 145.804688 154.121094 140.851562 155.949219 136.496094 156.890625 Z M 131.699219 105.761719 C 130.300781 106.0625 128.960938 106.496094 127.683594 107.082031 C 120.347656 110.449219 116.109375 118.457031 115.097656 130.878906 C 114.066406 143.496094 116.558594 151.570312 122.503906 154.867188 C 136.992188 162.902344 167.546875 140.53125 168.335938 139.949219 C 168.804688 139.550781 175.601562 133.796875 180.292969 132.949219 C 178.808594 131.597656 176.804688 128.457031 178.703125 122 C 175.667969 119.863281 149.488281 101.933594 131.699219 105.761719 Z M 131.699219 105.761719 " fill-opacity="1" fill-rule="nonzero"/><path fill="#f8dae2" d="M 248.046875 140.613281 C 242.789062 141.742188 235.988281 141.585938 227.695312 140.125 C 217.109375 138.257812 207.886719 134.847656 207.796875 134.8125 L 207.761719 134.800781 C 207.660156 134.753906 197.488281 130.179688 193.605469 131.78125 L 190.496094 133.066406 L 193.101562 130.933594 C 193.101562 130.933594 194.132812 130.054688 194.535156 128.277344 C 195.074219 125.894531 194.25 122.957031 192.15625 119.789062 L 191.960938 119.492188 L 192.179688 119.210938 C 192.246094 119.128906 198.527344 111.058594 207.257812 103.46875 C 219.042969 93.226562 229.4375 88.6875 238.152344 89.980469 C 246.523438 91.21875 253.089844 97.9375 257.671875 109.945312 C 262.34375 122.171875 262.128906 130.976562 257.039062 136.105469 C 254.871094 138.289062 251.863281 139.792969 248.046875 140.617188 Z M 208.160156 133.886719 C 209.082031 134.226562 244.671875 147.164062 256.335938 135.402344 C 261.125 130.574219 261.261719 122.128906 256.746094 110.300781 C 252.300781 98.652344 245.996094 92.152344 238.007812 90.964844 C 227.535156 89.414062 215.867188 97.316406 207.925781 104.214844 C 200.175781 110.949219 194.367188 118.074219 193.191406 119.546875 C 196.820312 125.21875 195.773438 128.796875 194.726562 130.507812 C 199.457031 130 207.601562 133.632812 208.160156 133.882812 Z M 208.160156 133.886719 " fill-opacity="1" fill-rule="nonzero"/><path fill="#f8dae2" d="M 239.730469 128.042969 C 236.199219 128.804688 231.863281 128.996094 226.757812 128.609375 C 219.039062 128.03125 212.3125 126.28125 212.246094 126.265625 L 212.207031 126.257812 C 212.125 126.226562 203.753906 123.402344 195.378906 126.472656 L 195.039062 125.535156 C 203.632812 122.382812 211.945312 125.113281 212.519531 125.304688 C 213.320312 125.511719 239.050781 132.015625 247.457031 123.101562 C 250.4375 119.941406 250.902344 115.125 248.835938 108.78125 C 247.898438 105.898438 246.144531 104.09375 243.46875 103.261719 C 229.285156 98.824219 195.460938 124.339844 195.125 124.597656 L 194.523438 123.804688 C 194.609375 123.738281 203.214844 117.21875 213.5 111.347656 C 227.394531 103.414062 237.578125 100.375 243.769531 102.308594 C 246.726562 103.238281 248.753906 105.308594 249.785156 108.476562 C 251.976562 115.191406 251.4375 120.34375 248.1875 123.789062 C 246.261719 125.828125 243.4375 127.25 239.734375 128.046875 Z M 239.730469 128.042969 " fill-opacity="1" fill-rule="nonzero"/><path fill="#f8dae2" d="M 140.71875 143.140625 C 134.871094 144.398438 130.253906 144.0625 126.929688 142.128906 C 122.835938 139.75 120.855469 134.964844 121.042969 127.902344 C 121.132812 124.574219 122.484375 122.011719 125.058594 120.28125 C 130.445312 116.664062 141.074219 116.6875 156.648438 120.351562 C 168.179688 123.0625 178.285156 126.863281 178.382812 126.902344 L 178.03125 127.835938 C 177.632812 127.683594 137.953125 112.828125 125.613281 121.113281 C 123.289062 122.671875 122.121094 124.90625 122.039062 127.933594 C 121.859375 134.601562 123.671875 139.085938 127.425781 141.269531 C 138.023438 147.429688 160.847656 133.878906 161.554688 133.457031 C 162.046875 133.105469 169.242188 128.132812 178.378906 128.707031 L 178.3125 129.699219 C 169.414062 129.136719 162.1875 134.222656 162.117188 134.277344 L 162.082031 134.296875 C 162.023438 134.332031 156.070312 137.917969 148.835938 140.667969 C 145.910156 141.78125 143.199219 142.601562 140.714844 143.140625 Z M 140.71875 143.140625 " fill-opacity="1" fill-rule="nonzero"/><path fill="#f8dae2" d="M 192.441406 119.996094 C 184.683594 117.816406 179.664062 122.128906 179.613281 122.171875 L 178.953125 121.425781 C 179.175781 121.230469 184.4375 116.707031 192.710938 119.035156 Z M 192.441406 119.996094 " fill-opacity="1" fill-rule="nonzero"/><path fill="#f8dae2" d="M 188.476562 133.921875 C 184.722656 134.730469 181.804688 133.898438 181.632812 133.84375 L 181.914062 132.886719 C 181.96875 132.902344 187.632812 134.511719 193.144531 130.902344 L 193.6875 131.734375 C 191.894531 132.90625 190.105469 133.570312 188.472656 133.921875 Z M 188.476562 133.921875 " fill-opacity="1" fill-rule="nonzero"/><path fill="#f8dae2" d="M 257.089844 199.34375 L 256.5 199.015625 C 256.453125 198.992188 251.707031 196.382812 248.820312 197.003906 C 245.933594 197.625 242.109375 200.027344 242.070312 200.050781 L 241.628906 200.335938 L 241.367188 199.878906 C 241.007812 199.242188 232.566406 184.246094 232.261719 177.765625 C 232.148438 175.308594 229.378906 172.410156 224.25 169.382812 C 220.292969 167.046875 216.328125 165.472656 216.289062 165.457031 C 216.164062 165.402344 205.25 160.488281 201.519531 148.210938 C 197.917969 136.355469 192.140625 132.394531 192.085938 132.351562 L 192.636719 131.523438 C 192.699219 131.566406 194.210938 132.578125 196.183594 135.117188 C 197.984375 137.441406 200.535156 141.542969 202.476562 147.921875 C 206.070312 159.75 216.570312 164.492188 216.675781 164.539062 C 217.324219 164.792969 232.945312 171.035156 233.253906 177.71875 C 233.519531 183.351562 240.550781 196.34375 241.984375 198.933594 C 243.09375 198.261719 246.050781 196.582031 248.609375 196.03125 C 251.199219 195.472656 254.839844 197.070312 256.324219 197.804688 C 256.390625 196.449219 256.246094 193.085938 253.96875 188 C 252.75 185.269531 251.667969 183.960938 250.621094 182.691406 C 248.984375 180.714844 247.445312 178.851562 245.703125 172.273438 C 244.183594 166.554688 237.746094 163.144531 230.292969 159.191406 C 224.328125 156.03125 217.574219 152.449219 212.726562 147.09375 C 204.136719 137.59375 202.261719 136.359375 198.152344 133.664062 C 197.1875 133.03125 196.089844 132.3125 194.761719 131.386719 L 195.328125 130.570312 C 196.648438 131.484375 197.738281 132.199219 198.699219 132.832031 C 202.878906 135.578125 204.789062 136.828125 213.46875 146.425781 C 218.195312 151.65625 224.871094 155.191406 230.761719 158.316406 C 238.421875 162.371094 245.039062 165.878906 246.667969 172.019531 C 248.359375 178.386719 249.832031 180.171875 251.394531 182.0625 C 252.484375 183.378906 253.609375 184.746094 254.882812 187.597656 C 258.046875 194.664062 257.269531 198.527344 257.238281 198.691406 L 257.097656 199.347656 Z M 257.089844 199.34375 " fill-opacity="1" fill-rule="nonzero"/><path fill="#f8dae2" d="M 133.40625 201.15625 L 132.96875 200.859375 C 132.933594 200.835938 129.253906 198.371094 126.289062 197.667969 C 123.414062 196.984375 118.609375 199.488281 118.5625 199.511719 L 117.96875 199.824219 L 117.84375 199.164062 C 117.8125 199 117.121094 195.117188 120.441406 188.121094 C 121.777344 185.300781 122.933594 183.960938 124.054688 182.664062 C 125.652344 180.808594 127.167969 179.058594 128.996094 172.730469 C 130.761719 166.625 137.453125 163.269531 145.199219 159.378906 C 151.15625 156.386719 157.90625 153 162.75 147.878906 C 171.496094 138.621094 173.101562 137.632812 176.976562 135.234375 C 177.964844 134.625 179.085938 133.929688 180.515625 132.984375 L 181.066406 133.8125 C 179.621094 134.769531 178.496094 135.46875 177.5 136.082031 C 173.703125 138.429688 172.128906 139.398438 163.476562 148.558594 C 158.511719 153.808594 151.679688 157.242188 145.648438 160.265625 C 138.109375 164.054688 131.597656 167.320312 129.953125 173.003906 C 128.0625 179.539062 126.480469 181.375 124.808594 183.3125 C 123.730469 184.558594 122.621094 185.84375 121.339844 188.546875 C 118.953125 193.582031 118.734375 196.941406 118.769531 198.296875 C 120.265625 197.59375 123.941406 196.078125 126.519531 196.691406 C 129.066406 197.300781 131.984375 199.042969 133.082031 199.738281 C 134.570312 197.179688 141.886719 184.347656 142.273438 178.71875 C 142.730469 172.050781 158.488281 166.148438 159.160156 165.902344 C 159.25 165.867188 169.847656 161.355469 173.703125 149.609375 C 177.691406 137.457031 184.003906 133.457031 184.269531 133.296875 L 184.792969 134.144531 C 184.730469 134.183594 178.511719 138.144531 174.648438 149.917969 C 170.644531 162.109375 159.632812 166.78125 159.523438 166.828125 C 159.464844 166.851562 155.453125 168.34375 151.449219 170.589844 C 146.265625 173.503906 143.4375 176.339844 143.265625 178.789062 C 142.820312 185.261719 134.046875 200.070312 133.675781 200.695312 L 133.40625 201.148438 Z M 133.40625 201.15625 " fill-opacity="1" fill-rule="nonzero"/><path fill="#f8dae2" d="M 156.054688 216.28125 L 155.417969 215.515625 C 175.5 198.859375 183.953125 134.3125 184.035156 133.660156 L 185.023438 133.789062 C 185.003906 133.949219 182.886719 150.328125 178.289062 168.570312 C 172.109375 193.121094 164.625 209.175781 156.054688 216.28125 Z M 156.054688 216.28125 " fill-opacity="1" fill-rule="nonzero"/><path fill="#f8dae2" d="M 164 220.898438 L 163.113281 220.445312 C 183.851562 179.796875 187.746094 133.910156 187.78125 133.453125 L 188.773438 133.53125 C 188.738281 133.992188 184.828125 180.074219 164 220.898438 Z M 164 220.898438 " fill-opacity="1" fill-rule="nonzero"/><path fill="#f8dae2" d="M 247.507812 243.03125 C 247.507812 243.03125 245.882812 238.625 239.46875 232.917969 C 233.054688 227.214844 225.699219 230.058594 225.699219 230.058594 C 217.746094 234.148438 210.484375 231.972656 210.484375 231.972656 C 210.484375 231.972656 205.519531 231.003906 199.910156 234.246094 C 194.296875 237.492188 191.382812 244.230469 191.320312 253.417969 C 191.261719 262.601562 197.136719 272.546875 197.136719 272.546875 C 197.136719 272.546875 202.671875 282.757812 211.878906 284.507812 C 221.089844 286.261719 233.925781 281.933594 236.777344 280.980469 C 239.632812 280.027344 248.425781 275.128906 250.289062 263.832031 C 252.203125 252.207031 247.511719 243.03125 247.511719 243.03125 Z M 219.054688 276.292969 C 219.054688 276.292969 217.457031 278.335938 211.699219 276.855469 C 205.949219 275.375 203.253906 267.832031 203.253906 267.832031 C 203.253906 267.832031 202.679688 266.675781 204.203125 265.929688 C 205.429688 265.324219 207.683594 267.898438 207.683594 267.898438 C 207.683594 267.898438 210.332031 272.617188 214.242188 273.171875 C 220.898438 274.117188 219.054688 276.292969 219.054688 276.292969 Z M 214.738281 240.707031 C 207.535156 242.605469 205.941406 237.707031 209.257812 237.332031 C 209.257812 237.332031 213.871094 236.675781 215.449219 237.695312 C 215.449219 237.695312 218.917969 239.601562 214.738281 240.707031 Z M 223.152344 238.757812 C 219 239.992188 218.699219 237 220.660156 236.578125 C 222.621094 236.15625 224.992188 234.652344 227.515625 233.398438 C 231.128906 231.609375 231.617188 233.882812 231.617188 233.882812 C 232.429688 236.082031 227.304688 237.527344 223.152344 238.757812 Z M 245.21875 256.089844 C 241.164062 259.339844 239.769531 252.851562 239.789062 251.363281 C 239.789062 251.363281 239.746094 249.597656 239.648438 249.136719 C 239.507812 248.484375 238.765625 246.609375 241.5 246.699219 C 243.195312 246.757812 244.308594 247.113281 245.726562 250.546875 C 247.144531 253.976562 245.21875 256.085938 245.21875 256.085938 Z M 245.21875 256.089844 " fill-opacity="1" fill-rule="nonzero"/><path fill="#f8dae2" d="M 173.160156 222.679688 C 173.160156 222.679688 168.820312 219.878906 165.898438 220.503906 C 162.3125 221.277344 159.902344 219.410156 159.902344 219.410156 C 159.902344 219.410156 155.203125 216.449219 152.878906 212.09375 C 150.605469 207.828125 141.765625 204.636719 136.339844 207.839844 C 136.339844 207.839844 129.222656 211.070312 123.941406 219.679688 C 118.65625 228.285156 120.777344 239.71875 120.777344 239.71875 C 120.777344 239.71875 122.878906 254.214844 130.582031 260.027344 C 138.285156 265.84375 146.847656 267.738281 157.582031 267.128906 C 168.320312 266.519531 178.839844 250.667969 180.195312 241.203125 C 181.46875 232.355469 180.117188 226.617188 173.152344 222.675781 Z M 131.851562 230.886719 C 131.851562 230.886719 129.820312 234.378906 132.566406 240.421875 C 135.285156 246.410156 130.757812 245.046875 130.757812 245.046875 C 124.699219 240.574219 127.796875 229.71875 127.796875 229.71875 C 127.796875 229.71875 128.421875 227.882812 129.003906 227.417969 C 129.738281 226.832031 131.53125 226.535156 132.136719 227.765625 C 132.738281 228.992188 131.851562 230.882812 131.851562 230.882812 Z M 150.269531 225.222656 C 147.117188 223.183594 143.097656 215.558594 143.097656 215.558594 C 142.285156 213.355469 143.90625 213.007812 144.554688 212.863281 C 145.203125 212.722656 146.25 212.839844 147.117188 213.855469 C 147.667969 214.492188 150.636719 219.03125 152.03125 220.769531 C 153.425781 222.503906 155.648438 223.382812 155.648438 223.382812 C 155.648438 223.382812 157.226562 224.402344 160.683594 224.679688 C 164.140625 224.957031 166.136719 227.921875 162.820312 228.296875 C 159.5 228.671875 153.425781 227.261719 150.269531 225.222656 Z M 169.488281 243.507812 C 167.378906 246.339844 166.082031 245.058594 165.988281 244.601562 C 165.847656 243.949219 166.285156 242.835938 166.285156 242.835938 C 166.285156 242.835938 166.722656 241.726562 166.375 240.101562 C 166.027344 238.476562 166.511719 236.328125 166.511719 236.328125 C 166.511719 236.328125 167.136719 234.164062 168.96875 234.789062 C 170.375 235.265625 170.6875 236.453125 170.6875 236.453125 C 170.6875 236.453125 171.59375 240.675781 169.488281 243.507812 Z M 169.488281 243.507812 " fill-opacity="1" fill-rule="nonzero"/><path fill="#f8dae2" d="M 222.113281 231.582031 L 221.121094 231.652344 C 218.742188 199.433594 210.859375 174.160156 204.664062 158.628906 C 197.953125 141.800781 191.722656 132.472656 191.660156 132.378906 L 192.488281 131.820312 C 192.550781 131.914062 198.828125 141.308594 205.578125 158.226562 C 211.804688 173.824219 219.722656 199.214844 222.113281 231.578125 Z M 222.113281 231.582031 " fill-opacity="1" fill-rule="nonzero"/><path fill="#f8dae2" d="M 217.402344 232.578125 L 216.410156 232.660156 C 213.738281 200.316406 206.117188 175.152344 200.199219 159.734375 C 193.78125 143.027344 187.921875 133.855469 187.859375 133.761719 L 188.699219 133.21875 C 188.757812 133.3125 194.660156 142.546875 201.113281 159.335938 C 207.066406 174.820312 214.71875 200.09375 217.402344 232.574219 Z M 217.402344 232.578125 " fill-opacity="1" fill-rule="nonzero"/></g></g></svg>