<svg xmlns="http://www.w3.org/2000/svg" xmlns:xlink="http://www.w3.org/1999/xlink" width="500" zoomAndPan="magnify" viewBox="0 0 375 374.999991" height="500" preserveAspectRatio="xMidYMid meet" version="1.0"><defs><clipPath id="6910f87fda"><path d="M 0 0 L 375 0 L 375 375 L 0 375 Z M 0 0 " clip-rule="nonzero"/></clipPath><clipPath id="41770d486e"><path d="M 187.5 0 C 83.945312 0 0 83.945312 0 187.5 C 0 291.054688 83.945312 375 187.5 375 C 291.054688 375 375 291.054688 375 187.5 C 375 83.945312 291.054688 0 187.5 0 Z M 187.5 0 " clip-rule="nonzero"/></clipPath><clipPath id="732b343454"><path d="M 0 0 L 375 0 L 375 375 L 0 375 Z M 0 0 " clip-rule="nonzero"/></clipPath><clipPath id="156615fbd8"><path d="M 187.5 0 C 83.945312 0 0 83.945312 0 187.5 C 0 291.054688 83.945312 375 187.5 375 C 291.054688 375 375 291.054688 375 187.5 C 375 83.945312 291.054688 0 187.5 0 Z M 187.5 0 " clip-rule="nonzero"/></clipPath><clipPath id="ff6764cd8a"><rect x="0" width="375" y="0" height="375"/></clipPath><clipPath id="808082f5b8"><path d="M 0 0 L 374.65625 0 L 374.65625 374.65625 L 0 374.65625 Z M 0 0 " clip-rule="nonzero"/></clipPath><clipPath id="8631154759"><path d="M 187.492188 0 C 83.945312 0 0 83.945312 0 187.492188 C 0 291.042969 83.945312 374.984375 187.492188 374.984375 C 291.042969 374.984375 374.984375 291.042969 374.984375 187.492188 C 374.984375 83.945312 291.042969 0 187.492188 0 Z M 187.492188 0 " clip-rule="nonzero"/></clipPath><clipPath id="c05c620757"><rect x="0" width="375" y="0" height="375"/></clipPath></defs><g transform="matrix(1, 0, 0, 1, 0, 0)"><g clip-path="url(#c05c620757)"><g clip-path="url(#6910f87fda)"><g clip-path="url(#41770d486e)"><g transform="matrix(1, 0, 0, 1, 0, 0)"><g clip-path="url(#ff6764cd8a)"><g clip-path="url(#732b343454)"><g clip-path="url(#156615fbd8)"><rect x="-136.5" width="648" fill="#f8dae2" y="-136.499997" height="647.999984" fill-opacity="1"/></g></g></g></g></g></g><g clip-path="url(#808082f5b8)"><g clip-path="url(#8631154759)"><path stroke-linecap="butt" transform="matrix(1.628934, 0, 0, 1.628934, 0.0000045, 0.000000000000046297)" fill="none" stroke-linejoin="miter" d="M 115.101182 -0.000000000000028422 C 51.533904 -0.000000000000028422 -0.00000276254 51.533907 -0.00000276254 115.101185 C -0.00000276254 178.67086 51.533904 230.202369 115.101182 230.202369 C 178.670858 230.202369 230.202366 178.67086 230.202366 115.101185 C 230.202366 51.533907 178.670858 -0.000000000000028422 115.101182 -0.000000000000028422 Z M 115.101182 -0.000000000000028422 " stroke="#000000" stroke-width="0.920848" stroke-opacity="1" stroke-miterlimit="4"/></g></g><path fill="#82001a" d="M 115.601562 144.351562 C 107.226562 146.152344 100.40625 145.613281 95.210938 142.734375 C 86.300781 137.792969 82.546875 125.964844 84.046875 107.578125 C 85.523438 89.527344 91.765625 77.847656 102.605469 72.871094 C 113.890625 67.695312 129.746094 69.742188 149.730469 78.960938 C 164.535156 85.792969 176.21875 94.238281 176.335938 94.328125 L 176.742188 94.625 L 176.59375 95.105469 C 172.792969 107.375 179.425781 110.433594 179.710938 110.5625 L 183.914062 112.398438 L 179.359375 111.902344 C 176.96875 111.640625 173.125 113.210938 168.238281 116.441406 C 164.476562 118.929688 161.421875 121.535156 161.390625 121.566406 L 161.351562 121.59375 C 161.242188 121.675781 150.105469 129.925781 136.511719 136.617188 C 128.730469 140.453125 121.75 143.03125 115.609375 144.355469 Z M 108.851562 72.289062 C 106.878906 72.714844 104.988281 73.320312 103.1875 74.148438 C 92.847656 78.898438 86.875 90.179688 85.449219 107.691406 C 83.996094 125.476562 87.507812 136.855469 95.890625 141.503906 C 116.304688 152.828125 159.378906 121.296875 160.488281 120.480469 C 161.148438 119.914062 170.726562 111.804688 177.34375 110.613281 C 175.25 108.707031 172.425781 104.28125 175.101562 95.175781 C 170.820312 92.167969 133.925781 66.894531 108.851562 72.289062 Z M 108.851562 72.289062 " fill-opacity="1" fill-rule="nonzero"/><path fill="#82001a" d="M 272.839844 121.414062 C 265.429688 123.007812 255.84375 122.78125 244.15625 120.722656 C 229.234375 118.09375 216.238281 113.285156 216.105469 113.238281 L 216.058594 113.21875 C 215.914062 113.152344 201.578125 106.707031 196.105469 108.964844 L 191.71875 110.777344 L 195.394531 107.769531 C 195.394531 107.769531 196.851562 106.53125 197.417969 104.027344 C 198.175781 100.667969 197.015625 96.527344 194.066406 92.0625 L 193.789062 91.640625 L 194.097656 91.242188 C 194.1875 91.132812 203.042969 79.753906 215.347656 69.058594 C 231.960938 54.621094 246.609375 48.222656 258.890625 50.046875 C 270.691406 51.792969 279.949219 61.261719 286.410156 78.183594 C 292.992188 95.417969 292.691406 107.828125 285.515625 115.058594 C 282.460938 118.140625 278.222656 120.257812 272.839844 121.417969 Z M 216.621094 111.933594 C 217.917969 112.410156 268.085938 130.644531 284.523438 114.066406 C 291.273438 107.261719 291.46875 95.359375 285.105469 78.6875 C 278.835938 62.269531 269.953125 53.105469 258.691406 51.433594 C 243.929688 49.25 227.484375 60.382812 216.289062 70.109375 C 205.363281 79.601562 197.179688 89.644531 195.519531 91.722656 C 200.636719 99.714844 199.164062 104.757812 197.683594 107.167969 C 204.355469 106.457031 215.832031 111.570312 216.621094 111.925781 Z M 216.621094 111.933594 " fill-opacity="1" fill-rule="nonzero"/><path fill="#82001a" d="M 261.121094 103.695312 C 256.140625 104.765625 250.03125 105.039062 242.832031 104.496094 C 231.957031 103.679688 222.472656 101.214844 222.378906 101.191406 L 222.328125 101.175781 C 222.210938 101.132812 210.410156 97.15625 198.605469 101.480469 L 198.125 100.160156 C 210.238281 95.71875 221.957031 99.566406 222.761719 99.835938 C 223.894531 100.128906 260.160156 109.296875 272.011719 96.730469 C 276.210938 92.273438 276.867188 85.488281 273.953125 76.546875 C 272.628906 72.484375 270.160156 69.9375 266.390625 68.761719 C 246.394531 62.507812 198.722656 98.476562 198.246094 98.839844 L 197.398438 97.722656 C 197.519531 97.628906 209.652344 88.441406 224.148438 80.164062 C 243.730469 68.984375 258.085938 64.695312 266.8125 67.425781 C 270.980469 68.730469 273.835938 71.652344 275.292969 76.117188 C 278.378906 85.582031 277.621094 92.839844 273.035156 97.699219 C 270.328125 100.574219 266.34375 102.574219 261.125 103.699219 Z M 261.121094 103.695312 " fill-opacity="1" fill-rule="nonzero"/><path fill="#82001a" d="M 121.5625 124.972656 C 113.320312 126.746094 106.808594 126.273438 102.125 123.550781 C 96.351562 120.195312 93.5625 113.449219 93.832031 103.496094 C 93.957031 98.808594 95.863281 95.195312 99.488281 92.753906 C 107.082031 87.660156 122.0625 87.691406 144.015625 92.855469 C 160.265625 96.671875 174.511719 102.03125 174.652344 102.089844 L 174.15625 103.402344 C 173.59375 103.1875 117.664062 82.246094 100.269531 93.925781 C 96.996094 96.125 95.347656 99.269531 95.230469 103.539062 C 94.976562 112.9375 97.53125 119.261719 102.828125 122.335938 C 117.761719 131.019531 149.933594 111.921875 150.929688 111.324219 C 151.621094 110.832031 161.765625 103.820312 174.640625 104.628906 L 174.550781 106.03125 C 162.007812 105.238281 151.824219 112.40625 151.71875 112.480469 L 151.671875 112.507812 C 151.589844 112.558594 143.203125 117.613281 133.003906 121.488281 C 128.878906 123.058594 125.058594 124.214844 121.554688 124.972656 Z M 121.5625 124.972656 " fill-opacity="1" fill-rule="nonzero"/><path fill="#82001a" d="M 194.464844 92.351562 C 183.53125 89.277344 176.453125 95.359375 176.382812 95.417969 L 175.457031 94.367188 C 175.765625 94.09375 183.183594 87.71875 194.84375 91 Z M 194.464844 92.351562 " fill-opacity="1" fill-rule="nonzero"/><path fill="#82001a" d="M 188.875 111.984375 C 183.585938 113.121094 179.472656 111.945312 179.226562 111.871094 L 179.625 110.523438 C 179.707031 110.546875 187.6875 112.8125 195.457031 107.722656 L 196.222656 108.898438 C 193.695312 110.550781 191.171875 111.488281 188.871094 111.980469 Z M 188.875 111.984375 " fill-opacity="1" fill-rule="nonzero"/><path fill="#82001a" d="M 285.585938 204.191406 L 284.757812 203.734375 C 284.691406 203.695312 278 200.023438 273.929688 200.898438 C 269.863281 201.773438 264.472656 205.15625 264.414062 205.1875 L 263.792969 205.589844 L 263.429688 204.945312 C 262.921875 204.050781 251.019531 182.914062 250.59375 173.777344 C 250.429688 170.316406 246.527344 166.230469 239.300781 161.964844 C 233.722656 158.671875 228.136719 156.449219 228.078125 156.429688 C 227.902344 156.351562 212.519531 149.429688 207.261719 132.121094 C 202.183594 115.410156 194.042969 109.824219 193.960938 109.769531 L 194.738281 108.601562 C 194.828125 108.660156 196.957031 110.089844 199.738281 113.667969 C 202.277344 116.941406 205.875 122.722656 208.609375 131.710938 C 213.675781 148.386719 228.472656 155.070312 228.621094 155.132812 C 229.535156 155.496094 251.554688 164.292969 251.992188 173.710938 C 252.363281 181.65625 262.277344 199.964844 264.292969 203.617188 C 265.863281 202.671875 270.027344 200.300781 273.636719 199.523438 C 277.28125 198.738281 282.417969 200.992188 284.507812 202.023438 C 284.601562 200.113281 284.398438 195.375 281.191406 188.203125 C 279.46875 184.355469 277.945312 182.511719 276.46875 180.722656 C 274.164062 177.9375 271.992188 175.308594 269.535156 166.035156 C 267.398438 157.976562 258.320312 153.167969 247.816406 147.597656 C 239.410156 143.148438 229.890625 138.097656 223.058594 130.546875 C 210.949219 117.15625 208.304688 115.417969 202.515625 111.617188 C 201.152344 110.726562 199.609375 109.714844 197.734375 108.40625 L 198.535156 107.257812 C 200.394531 108.546875 201.929688 109.554688 203.285156 110.445312 C 209.179688 114.316406 211.871094 116.078125 224.101562 129.605469 C 230.765625 136.976562 240.175781 141.964844 248.476562 146.363281 C 259.277344 152.082031 268.601562 157.023438 270.898438 165.679688 C 273.28125 174.652344 275.359375 177.171875 277.558594 179.835938 C 279.09375 181.691406 280.679688 183.617188 282.476562 187.636719 C 286.933594 197.597656 285.84375 203.046875 285.796875 203.273438 L 285.601562 204.203125 Z M 285.585938 204.191406 " fill-opacity="1" fill-rule="nonzero"/><path fill="#82001a" d="M 111.257812 206.746094 L 110.636719 206.332031 C 110.585938 206.296875 105.402344 202.824219 101.222656 201.832031 C 97.171875 200.867188 90.398438 204.398438 90.332031 204.429688 L 89.496094 204.871094 L 89.316406 203.9375 C 89.277344 203.710938 88.300781 198.238281 92.976562 188.375 C 94.863281 184.398438 96.492188 182.511719 98.070312 180.6875 C 100.328125 178.070312 102.460938 175.601562 105.039062 166.679688 C 107.527344 158.078125 116.957031 153.347656 127.878906 147.867188 C 136.273438 143.648438 145.789062 138.875 152.613281 131.652344 C 164.941406 118.605469 167.203125 117.210938 172.664062 113.832031 C 174.0625 112.972656 175.636719 111.992188 177.65625 110.660156 L 178.433594 111.828125 C 176.394531 113.175781 174.808594 114.160156 173.40625 115.027344 C 168.050781 118.335938 165.835938 119.703125 153.640625 132.609375 C 146.640625 140.011719 137.007812 144.851562 128.507812 149.113281 C 117.882812 154.449219 108.707031 159.058594 106.386719 167.070312 C 103.726562 176.28125 101.492188 178.863281 99.132812 181.597656 C 97.617188 183.355469 96.054688 185.164062 94.246094 188.976562 C 90.882812 196.070312 90.574219 200.808594 90.625 202.71875 C 92.734375 201.730469 97.917969 199.589844 101.546875 200.457031 C 105.136719 201.3125 109.25 203.769531 110.796875 204.75 C 112.894531 201.144531 123.207031 183.058594 123.753906 175.125 C 124.398438 165.722656 146.609375 157.40625 147.554688 157.058594 C 147.679688 157.007812 162.621094 150.648438 168.054688 134.089844 C 173.675781 116.964844 182.574219 111.328125 182.949219 111.097656 L 183.683594 112.292969 C 183.59375 112.347656 174.832031 117.933594 169.386719 134.527344 C 163.746094 151.710938 148.21875 158.296875 148.066406 158.363281 C 147.984375 158.398438 142.332031 160.5 136.6875 163.667969 C 129.378906 167.773438 125.390625 171.769531 125.152344 175.222656 C 124.527344 184.347656 112.160156 205.21875 111.636719 206.101562 L 111.257812 206.738281 Z M 111.257812 206.746094 " fill-opacity="1" fill-rule="nonzero"/><path fill="#82001a" d="M 143.179688 228.066406 L 142.28125 226.988281 C 170.585938 203.511719 182.5 112.53125 182.617188 111.613281 L 184.011719 111.792969 C 183.984375 112.019531 180.996094 135.105469 174.519531 160.816406 C 165.804688 195.425781 155.257812 218.050781 143.179688 228.066406 Z M 143.179688 228.066406 " fill-opacity="1" fill-rule="nonzero"/><path fill="#82001a" d="M 154.375 234.574219 L 153.125 233.9375 C 182.359375 176.640625 187.84375 111.964844 187.898438 111.320312 L 189.296875 111.429688 C 189.246094 112.082031 183.734375 177.035156 154.375 234.574219 Z M 154.375 234.574219 " fill-opacity="1" fill-rule="nonzero"/><path fill="#82001a" d="M 272.082031 265.769531 C 272.082031 265.769531 269.789062 259.558594 260.75 251.519531 C 251.710938 243.476562 241.339844 247.488281 241.339844 247.488281 C 230.128906 253.25 219.898438 250.183594 219.898438 250.183594 C 219.898438 250.183594 212.902344 248.816406 204.992188 253.390625 C 197.078125 257.960938 192.96875 267.464844 192.886719 280.410156 C 192.800781 293.359375 201.082031 307.375 201.082031 307.375 C 201.082031 307.375 208.882812 321.765625 221.863281 324.234375 C 234.84375 326.707031 252.9375 320.605469 256.960938 319.261719 C 260.980469 317.917969 273.375 311.011719 276 295.089844 C 278.699219 278.707031 272.085938 265.769531 272.085938 265.769531 Z M 231.972656 312.65625 C 231.972656 312.65625 229.722656 315.535156 221.609375 313.445312 C 213.503906 311.359375 209.703125 300.730469 209.703125 300.730469 C 209.703125 300.730469 208.898438 299.101562 211.042969 298.046875 C 212.773438 297.195312 215.949219 300.824219 215.949219 300.824219 C 215.949219 300.824219 219.683594 307.472656 225.191406 308.257812 C 234.578125 309.589844 231.972656 312.65625 231.972656 312.65625 Z M 225.894531 262.492188 C 215.738281 265.171875 213.496094 258.265625 218.167969 257.738281 C 218.167969 257.738281 224.671875 256.816406 226.894531 258.253906 C 226.894531 258.253906 231.78125 260.941406 225.894531 262.492188 Z M 237.75 259.75 C 231.898438 261.488281 231.472656 257.269531 234.238281 256.675781 C 237.003906 256.082031 240.34375 253.960938 243.898438 252.195312 C 248.992188 249.671875 249.679688 252.875 249.679688 252.875 C 250.828125 255.976562 243.605469 258.015625 237.753906 259.75 Z M 268.855469 284.179688 C 263.140625 288.761719 261.171875 279.609375 261.199219 277.515625 C 261.199219 277.515625 261.144531 275.027344 261.003906 274.378906 C 260.804688 273.460938 259.757812 270.816406 263.613281 270.941406 C 266.003906 271.023438 267.570312 271.527344 269.570312 276.363281 C 271.566406 281.199219 268.855469 284.175781 268.855469 284.175781 Z M 268.855469 284.179688 " fill-opacity="1" fill-rule="nonzero"/><path fill="#82001a" d="M 167.289062 237.085938 C 167.289062 237.085938 161.171875 233.136719 157.050781 234.023438 C 151.996094 235.105469 148.601562 232.476562 148.601562 232.476562 C 148.601562 232.476562 141.980469 228.304688 138.703125 222.164062 C 135.496094 216.152344 123.039062 211.652344 115.390625 216.167969 C 115.390625 216.167969 105.359375 220.722656 97.910156 232.855469 C 90.464844 244.988281 93.457031 261.105469 93.457031 261.105469 C 93.457031 261.105469 96.414062 281.535156 107.273438 289.730469 C 118.132812 297.925781 130.199219 300.597656 145.332031 299.738281 C 160.46875 298.875 175.292969 276.535156 177.207031 263.195312 C 179 250.722656 177.09375 242.632812 167.277344 237.082031 Z M 109.0625 248.652344 C 109.0625 248.652344 106.199219 253.578125 110.070312 262.097656 C 113.90625 270.535156 107.519531 268.609375 107.519531 268.609375 C 98.984375 262.304688 103.351562 247.003906 103.351562 247.003906 C 103.351562 247.003906 104.230469 244.421875 105.050781 243.765625 C 106.085938 242.9375 108.613281 242.523438 109.464844 244.253906 C 110.316406 245.984375 109.0625 248.648438 109.0625 248.648438 Z M 135.023438 240.671875 C 130.578125 237.796875 124.914062 227.046875 124.914062 227.046875 C 123.765625 223.945312 126.054688 223.453125 126.96875 223.25 C 127.882812 223.050781 129.355469 223.21875 130.582031 224.644531 C 131.355469 225.542969 135.539062 231.941406 137.503906 234.390625 C 139.472656 236.839844 142.605469 238.078125 142.605469 238.078125 C 142.605469 238.078125 144.832031 239.515625 149.703125 239.90625 C 154.574219 240.292969 157.386719 244.472656 152.710938 245.003906 C 148.035156 245.53125 139.472656 243.542969 135.023438 240.667969 Z M 162.109375 266.445312 C 159.140625 270.4375 157.3125 268.628906 157.175781 267.984375 C 156.980469 267.066406 157.597656 265.5 157.597656 265.5 C 157.597656 265.5 158.21875 263.929688 157.726562 261.640625 C 157.234375 259.351562 157.917969 256.324219 157.917969 256.324219 C 157.917969 256.324219 158.796875 253.273438 161.382812 254.152344 C 163.359375 254.828125 163.800781 256.503906 163.800781 256.503906 C 163.800781 256.503906 165.078125 262.453125 162.109375 266.445312 Z M 162.109375 266.445312 " fill-opacity="1" fill-rule="nonzero"/><path fill="#82001a" d="M 236.289062 249.632812 L 234.890625 249.734375 C 231.535156 204.324219 220.425781 168.699219 211.691406 146.808594 C 202.234375 123.085938 193.453125 109.9375 193.363281 109.808594 L 194.527344 109.019531 C 194.617188 109.152344 203.464844 122.394531 212.980469 146.238281 C 221.757812 168.226562 232.917969 204.015625 236.289062 249.625 Z M 236.289062 249.632812 " fill-opacity="1" fill-rule="nonzero"/><path fill="#82001a" d="M 229.648438 251.035156 L 228.25 251.152344 C 224.484375 205.5625 213.742188 170.09375 205.398438 148.363281 C 196.355469 124.8125 188.09375 111.886719 188.007812 111.753906 L 189.1875 110.992188 C 189.273438 111.121094 197.59375 124.140625 206.6875 147.804688 C 215.078125 169.625 225.867188 205.25 229.648438 251.03125 Z M 229.648438 251.035156 " fill-opacity="1" fill-rule="nonzero"/></g></g></svg>